Pinnacle-Regular.ufo
<glyph name="exclam" format="1">
  <advance width="180"/>
  <unicode hex="0021"/>
  <outline>
    <contour>
      <point x="120" y="157" type="line"/>
      <point x="120" y="700" type="line"/>
      <point x="60" y="700" type="line"/>
      <point x="60" y="157" type="line"/>
    </contour>
    <component base="bullet" xOffset="-60" yOffset="389" yScale="-1"/>
  </outline>
</glyph>
<glyph name="quotedbl" format="1">
  <advance width="305"/>
  <unicode hex="0022"/>
  <outline>
    <contour>
      <point x="131" y="624" type="line"/>
      <point x="94" y="641" type="line"/>
      <point x="40" y="579" type="line"/>
      <point x="62" y="550" type="line"/>
    </contour>
    <contour>
      <point x="125" y="611"/>
      <point x="148" y="634"/>
      <point x="148" y="661" type="curve" smooth="yes"/>
      <point x="148" y="689"/>
      <point x="125" y="711"/>
      <point x="98" y="711" type="curve" smooth="yes"/>
      <point x="70" y="711"/>
      <point x="48" y="689"/>
      <point x="48" y="661" type="curve" smooth="yes"/>
      <point x="48" y="634"/>
      <point x="70" y="611"/>
      <point x="98" y="611" type="curve" smooth="yes"/>
    </contour>
    <contour>
      <point x="248" y="624" type="line"/>
      <point x="211" y="641" type="line"/>
      <point x="157" y="579" type="line"/>
      <point x="179" y="550" type="line"/>
    </contour>
    <contour>
      <point x="242" y="611"/>
      <point x="265" y="634"/>
      <point x="265" y="661" type="curve" smooth="yes"/>
      <point x="265" y="689"/>
      <point x="242" y="711"/>
      <point x="215" y="711" type="curve" smooth="yes"/>
      <point x="187" y="711"/>
      <point x="165" y="689"/>
      <point x="165" y="661" type="curve" smooth="yes"/>
      <point x="165" y="634"/>
      <point x="187" y="611"/>
      <point x="215" y="611" type="curve" smooth="yes"/>
    </contour>
  </outline>
</glyph>
<glyph name="numbersign" format="2">
	<advance width="541"/>
	<unicode hex="0023"/>
	<outline>
		<contour>
			<point x="193" y="750" type="line"/>
			<point x="73" y="-50" type="line"/>
			<point x="135" y="-50" type="line"/>
			<point x="255" y="750" type="line"/>
		</contour>
		<contour>
			<point x="382" y="750" type="line"/>
			<point x="262" y="-50" type="line"/>
			<point x="324" y="-50" type="line"/>
			<point x="444" y="750" type="line"/>
		</contour>
		<contour>
			<point x="68" y="520" type="line"/>
			<point x="60" y="460" type="line"/>
			<point x="503" y="460" type="line"/>
			<point x="511" y="520" type="line"/>
		</contour>
		<contour>
			<point x="38" y="231" type="line"/>
			<point x="30" y="171" type="line"/>
			<point x="473" y="171" type="line"/>
			<point x="481" y="231" type="line"/>
		</contour>
	</outline>
</glyph>
<glyph name="dollar" format="2">
	<advance width="700"/>
	<unicode hex="0024"/>
	<guideline x="438" y="-26" angle="0"/>
	<guideline x="438" y="729" angle="0"/>
	<outline>
		<contour>
			<point x="138" y="50" type="line"/>
			<point x="437" y="50" type="line" smooth="yes"/>
			<point x="529" y="50"/>
			<point x="604" y="125"/>
			<point x="604" y="219" type="curve" smooth="yes"/>
			<point x="604" y="311"/>
			<point x="529" y="386"/>
			<point x="437" y="386" type="curve" smooth="yes"/>
			<point x="259" y="386" type="line" smooth="yes"/>
			<point x="202" y="386"/>
			<point x="156" y="432"/>
			<point x="156" y="489" type="curve" smooth="yes"/>
			<point x="156" y="546"/>
			<point x="202" y="592"/>
			<point x="259" y="592" type="curve" smooth="yes"/>
			<point x="544" y="592" type="line"/>
			<point x="544" y="652" type="line"/>
			<point x="259" y="652" type="line" smooth="yes"/>
			<point x="169" y="652"/>
			<point x="96" y="579"/>
			<point x="96" y="489" type="curve" smooth="yes"/>
			<point x="96" y="399"/>
			<point x="169" y="326"/>
			<point x="259" y="326" type="curve" smooth="yes"/>
			<point x="437" y="326" type="line" smooth="yes"/>
			<point x="496" y="326"/>
			<point x="544" y="278"/>
			<point x="544" y="219" type="curve" smooth="yes"/>
			<point x="544" y="158"/>
			<point x="496" y="110"/>
			<point x="437" y="110" type="curve" smooth="yes"/>
			<point x="138" y="110" type="line"/>
		</contour>
		<contour>
			<point x="330" y="-26" type="line"/>
			<point x="390" y="-26" type="line"/>
			<point x="390" y="81" type="line"/>
			<point x="330" y="81" type="line"/>
		</contour>
		<contour>
			<point x="330" y="619" type="line"/>
			<point x="390" y="619" type="line"/>
			<point x="390" y="729" type="line"/>
			<point x="330" y="729" type="line"/>
		</contour>
	</outline>
</glyph>
<glyph name="percent" format="2">
	<advance width="800"/>
	<unicode hex="0025"/>
	<outline>
		<contour>
			<point x="145" y="7" type="line"/>
			<point x="688" y="654" type="line"/>
			<point x="641" y="693" type="line"/>
			<point x="99" y="45" type="line"/>
		</contour>
		<contour>
			<point x="209" y="361" type="curve" smooth="yes"/>
			<point x="280" y="361"/>
			<point x="339" y="420"/>
			<point x="339" y="491" type="curve" smooth="yes"/>
			<point x="339" y="561" type="line" smooth="yes"/>
			<point x="339" y="632"/>
			<point x="280" y="691"/>
			<point x="209" y="691" type="curve" smooth="yes"/>
			<point x="138" y="691"/>
			<point x="79" y="632"/>
			<point x="79" y="561" type="curve" smooth="yes"/>
			<point x="79" y="491" type="line" smooth="yes"/>
			<point x="79" y="420"/>
			<point x="138" y="361"/>
		</contour>
		<contour>
			<point x="209" y="421" type="curve" smooth="yes"/>
			<point x="171" y="421"/>
			<point x="139" y="453"/>
			<point x="139" y="491" type="curve" smooth="yes"/>
			<point x="139" y="561" type="line" smooth="yes"/>
			<point x="139" y="599"/>
			<point x="171" y="631"/>
			<point x="209" y="631" type="curve" smooth="yes"/>
			<point x="247" y="631"/>
			<point x="279" y="599"/>
			<point x="279" y="561" type="curve" smooth="yes"/>
			<point x="279" y="491" type="line" smooth="yes"/>
			<point x="279" y="453"/>
			<point x="247" y="421"/>
		</contour>
		<contour>
			<point x="591" y="11" type="curve" smooth="yes"/>
			<point x="662" y="11"/>
			<point x="721" y="70"/>
			<point x="721" y="141" type="curve" smooth="yes"/>
			<point x="721" y="211" type="line" smooth="yes"/>
			<point x="721" y="282"/>
			<point x="662" y="341"/>
			<point x="591" y="341" type="curve" smooth="yes"/>
			<point x="520" y="341"/>
			<point x="461" y="282"/>
			<point x="461" y="211" type="curve" smooth="yes"/>
			<point x="461" y="141" type="line" smooth="yes"/>
			<point x="461" y="70"/>
			<point x="520" y="11"/>
		</contour>
		<contour>
			<point x="591" y="71" type="curve" smooth="yes"/>
			<point x="553" y="71"/>
			<point x="521" y="103"/>
			<point x="521" y="141" type="curve" smooth="yes"/>
			<point x="521" y="211" type="line" smooth="yes"/>
			<point x="521" y="249"/>
			<point x="553" y="281"/>
			<point x="591" y="281" type="curve" smooth="yes"/>
			<point x="629" y="281"/>
			<point x="661" y="249"/>
			<point x="661" y="211" type="curve" smooth="yes"/>
			<point x="661" y="141" type="line" smooth="yes"/>
			<point x="661" y="103"/>
			<point x="629" y="71"/>
		</contour>
	</outline>
</glyph>
<glyph name="ampersand" format="1">
  <advance width="747"/>
  <unicode hex="0026"/>
  <outline>
    <contour>
      <point x="707" y="0" type="line"/>
      <point x="229" y="480" type="line" smooth="yes"/>
      <point x="193" y="517"/>
      <point x="182" y="541"/>
      <point x="182" y="581" type="curve" smooth="yes"/>
      <point x="182" y="655"/>
      <point x="245" y="717"/>
      <point x="321" y="717" type="curve" smooth="yes"/>
      <point x="360" y="717"/>
      <point x="392" y="703"/>
      <point x="418" y="677" type="curve"/>
      <point x="461" y="719" type="line"/>
      <point x="425" y="756"/>
      <point x="376" y="777"/>
      <point x="321" y="777" type="curve" smooth="yes"/>
      <point x="212" y="777"/>
      <point x="122" y="688"/>
      <point x="122" y="581" type="curve" smooth="yes"/>
      <point x="122" y="525"/>
      <point x="140" y="485"/>
      <point x="186" y="438" type="curve" smooth="yes"/>
      <point x="622" y="0" type="line"/>
    </contour>
    <contour>
      <point x="359" y="-9"/>
      <point x="425" y="18"/>
      <point x="474" y="67" type="curve" smooth="yes"/>
      <point x="659" y="252" type="line"/>
      <point x="617" y="294" type="line"/>
      <point x="432" y="109" type="line" smooth="yes"/>
      <point x="394" y="71"/>
      <point x="344" y="51"/>
      <point x="290" y="51" type="curve" smooth="yes"/>
      <point x="180" y="51"/>
      <point x="90" y="141"/>
      <point x="90" y="250" type="curve" smooth="yes"/>
      <point x="90" y="303"/>
      <point x="111" y="353"/>
      <point x="148" y="392" type="curve" smooth="yes"/>
      <point x="212" y="458" type="line"/>
      <point x="169" y="500" type="line"/>
      <point x="105" y="434" type="line" smooth="yes"/>
      <point x="57" y="385"/>
      <point x="30" y="318"/>
      <point x="30" y="250" type="curve" smooth="yes"/>
      <point x="30" y="107"/>
      <point x="147" y="-9"/>
      <point x="290" y="-9" type="curve" smooth="yes"/>
    </contour>
  </outline>
</glyph>
<glyph name="quotesingle" format="2">
	<advance width="270"/>
	<unicode hex="0027"/>
	<outline>
		<contour>
			<point x="115" y="534" type="line"/>
			<point x="155" y="534" type="line"/>
			<point x="170" y="674" type="line"/>
			<point x="170" y="744" type="line"/>
			<point x="100" y="744" type="line"/>
			<point x="100" y="674" type="line"/>
		</contour>
	</outline>
</glyph>
<glyph name="parenleft" format="1">
  <advance width="316"/>
  <unicode hex="0028"/>
  <outline>
    <contour>
      <point x="276" y="-83" type="line"/>
      <point x="162" y="31"/>
      <point x="100" y="182"/>
      <point x="100" y="341" type="curve" smooth="yes"/>
      <point x="100" y="500"/>
      <point x="162" y="650"/>
      <point x="276" y="765" type="curve"/>
      <point x="233" y="807" type="line"/>
      <point x="114" y="687"/>
      <point x="40" y="523"/>
      <point x="40" y="341" type="curve" smooth="yes"/>
      <point x="40" y="160"/>
      <point x="114" y="-5"/>
      <point x="233" y="-125" type="curve"/>
    </contour>
  </outline>
</glyph>
<glyph name="asterisk" format="1">
  <advance width="405"/>
  <unicode hex="002A"/>
  <outline>
    <contour>
      <point x="330" y="463" type="line"/>
      <point x="365" y="511" type="line"/>
      <point x="228" y="611" type="line"/>
      <point x="192" y="563" type="line"/>
    </contour>
    <contour>
      <point x="181" y="577" type="line"/>
      <point x="239" y="595" type="line"/>
      <point x="186" y="757" type="line"/>
      <point x="129" y="738" type="line"/>
    </contour>
    <contour>
      <point x="40" y="557" type="line"/>
      <point x="210" y="557" type="line"/>
      <point x="210" y="617" type="line"/>
      <point x="40" y="617" type="line"/>
    </contour>
    <contour>
      <point x="228" y="562" type="line"/>
      <point x="365" y="662" type="line"/>
      <point x="330" y="710" type="line"/>
      <point x="192" y="610" type="line"/>
    </contour>
    <contour>
      <point x="186" y="416" type="line"/>
      <point x="239" y="578" type="line"/>
      <point x="181" y="596" type="line"/>
      <point x="129" y="435" type="line"/>
    </contour>
  </outline>
</glyph>
<glyph name="plus" format="2">
	<advance width="700"/>
	<unicode hex="002B"/>
	<outline>
		<contour>
			<point x="320" y="530" type="line"/>
			<point x="320" y="170" type="line"/>
			<point x="380" y="170" type="line"/>
			<point x="380" y="530" type="line"/>
		</contour>
		<contour>
			<point x="530" y="380" type="line"/>
			<point x="170" y="380" type="line"/>
			<point x="170" y="320" type="line"/>
			<point x="530" y="320" type="line"/>
		</contour>
	</outline>
</glyph>
<glyph name="comma" format="1">
  <advance width="180"/>
  <unicode hex="002C"/>
  <outline>
    <contour>
      <point x="123" y="2" type="line"/>
      <point x="86" y="19" type="line"/>
      <point x="32" y="-43" type="line"/>
      <point x="54" y="-72" type="line"/>
    </contour>
    <contour>
      <point x="117" y="-11"/>
      <point x="140" y="12"/>
      <point x="140" y="39" type="curve" smooth="yes"/>
      <point x="140" y="67"/>
      <point x="117" y="89"/>
      <point x="90" y="89" type="curve" smooth="yes"/>
      <point x="62" y="89"/>
      <point x="40" y="67"/>
      <point x="40" y="39" type="curve" smooth="yes"/>
      <point x="40" y="12"/>
      <point x="62" y="-11"/>
      <point x="90" y="-11" type="curve" smooth="yes"/>
    </contour>
    <contour>
      <point x="80" y="-1" type="move" name="_accent"/>
    </contour>
  </outline>
</glyph>
<glyph name="hyphen" format="1">
  <advance width="480"/>
  <unicode hex="002D"/>
  <outline>
    <contour>
      <point x="80" y="380" type="line"/>
      <point x="80" y="320" type="line"/>
      <point x="400" y="320" type="line"/>
      <point x="400" y="380" type="line"/>
    </contour>
  </outline>
</glyph>
<glyph name="slash" format="1">
  <advance width="354"/>
  <unicode hex="002F"/>
  <outline>
    <contour>
      <point x="347" y="841" type="line"/>
      <point x="289" y="856" type="line"/>
      <point x="38" y="-75" type="line"/>
      <point x="96" y="-90" type="line"/>
    </contour>
  </outline>
</glyph>
<glyph name="zero" format="2">
	<advance width="733"/>
	<unicode hex="0030"/>
	<outline>
		<contour>
			<point x="367" y="-10" type="curve" smooth="yes"/>
			<point x="514" y="-10"/>
			<point x="633" y="109"/>
			<point x="633" y="256" type="curve" smooth="yes"/>
			<point x="633" y="444" type="line" smooth="yes"/>
			<point x="633" y="591"/>
			<point x="515" y="710"/>
			<point x="367" y="710" type="curve" smooth="yes"/>
			<point x="219" y="710"/>
			<point x="100" y="591"/>
			<point x="100" y="444" type="curve" smooth="yes"/>
			<point x="100" y="256" type="line" smooth="yes"/>
			<point x="100" y="109"/>
			<point x="219" y="-10"/>
		</contour>
		<contour>
			<point x="367" y="50" type="curve" smooth="yes"/>
			<point x="252" y="50"/>
			<point x="160" y="142"/>
			<point x="160" y="256" type="curve" smooth="yes"/>
			<point x="160" y="444" type="line" smooth="yes"/>
			<point x="160" y="558"/>
			<point x="252" y="650"/>
			<point x="367" y="650" type="curve" smooth="yes"/>
			<point x="482" y="650"/>
			<point x="573" y="558"/>
			<point x="573" y="445" type="curve" smooth="yes"/>
			<point x="573" y="256" type="line" smooth="yes"/>
			<point x="573" y="142"/>
			<point x="481" y="50"/>
		</contour>
	</outline>
</glyph>
<glyph name="one" format="1">
  <advance width="368"/>
  <unicode hex="0031"/>
  <outline>
    <contour>
      <point x="208" y="700" type="line"/>
      <point x="208" y="0" type="line"/>
      <point x="268" y="0" type="line"/>
      <point x="268" y="700" type="line"/>
    </contour>
    <contour>
      <point x="119" y="700" type="line"/>
      <point x="100" y="640" type="line"/>
      <point x="239" y="640" type="line"/>
      <point x="239" y="700" type="line"/>
    </contour>
  </outline>
</glyph>
<glyph name="two" format="2">
	<advance width="784"/>
	<unicode hex="0032"/>
	<outline>
		<contour>
			<point x="250" y="0" type="curve" smooth="yes"/>
			<point x="681" y="0" type="line"/>
			<point x="681" y="60" type="line"/>
			<point x="250" y="60" type="line" smooth="yes"/>
			<point x="196" y="60"/>
			<point x="160" y="93"/>
			<point x="160" y="142" type="curve" smooth="yes"/>
			<point x="160" y="193"/>
			<point x="194" y="231"/>
			<point x="245" y="238" type="curve" smooth="yes"/>
			<point x="509" y="274" type="line" smooth="yes"/>
			<point x="614" y="288"/>
			<point x="684" y="366"/>
			<point x="684" y="467" type="curve" smooth="yes"/>
			<point x="684" y="607"/>
			<point x="591" y="700"/>
			<point x="451" y="700" type="curve" smooth="yes"/>
			<point x="140" y="700" type="line"/>
			<point x="140" y="640" type="line"/>
			<point x="451" y="640" type="line" smooth="yes"/>
			<point x="555" y="640"/>
			<point x="624" y="571"/>
			<point x="624" y="467" type="curve" smooth="yes"/>
			<point x="624" y="396"/>
			<point x="576" y="342"/>
			<point x="503" y="332" type="curve" smooth="yes"/>
			<point x="239" y="296" type="line" smooth="yes"/>
			<point x="156" y="285"/>
			<point x="100" y="222"/>
			<point x="100" y="142" type="curve" smooth="yes"/>
			<point x="100" y="57"/>
			<point x="160" y="0"/>
		</contour>
	</outline>
</glyph>
<glyph name="three" format="1">
  <advance width="714"/>
  <unicode hex="0033"/>
  <outline>
    <contour>
      <point x="424" y="0" type="line" smooth="yes"/>
      <point x="529" y="0"/>
      <point x="614" y="85"/>
      <point x="614" y="190" type="curve" smooth="yes"/>
      <point x="614" y="281"/>
      <point x="561" y="353"/>
      <point x="476" y="374" type="curve"/>
      <point x="482" y="347" type="line"/>
      <point x="537" y="380"/>
      <point x="574" y="441"/>
      <point x="574" y="510" type="curve" smooth="yes"/>
      <point x="574" y="615"/>
      <point x="489" y="700"/>
      <point x="384" y="700" type="curve" smooth="yes"/>
      <point x="100" y="700" type="line"/>
      <point x="100" y="640" type="line"/>
      <point x="384" y="640" type="line" smooth="yes"/>
      <point x="456" y="640"/>
      <point x="514" y="582"/>
      <point x="514" y="510" type="curve" smooth="yes"/>
      <point x="514" y="438"/>
      <point x="456" y="380"/>
      <point x="384" y="380" type="curve" smooth="yes"/>
      <point x="160" y="380" type="line"/>
      <point x="160" y="320" type="line"/>
      <point x="424" y="320" type="line" smooth="yes"/>
      <point x="496" y="320"/>
      <point x="554" y="262"/>
      <point x="554" y="190" type="curve" smooth="yes"/>
      <point x="554" y="118"/>
      <point x="496" y="60"/>
      <point x="424" y="60" type="curve" smooth="yes"/>
      <point x="100" y="60" type="line"/>
      <point x="100" y="0" type="line"/>
    </contour>
  </outline>
</glyph>
<glyph name="four" format="2">
	<advance width="715"/>
	<unicode hex="0034"/>
	<outline>
		<contour>
			<point x="234" y="194" type="curve" smooth="yes"/>
			<point x="589" y="194" type="line"/>
			<point x="589" y="254" type="line"/>
			<point x="228" y="254" type="line" smooth="yes"/>
			<point x="187" y="254"/>
			<point x="159" y="283"/>
			<point x="159" y="319" type="curve" smooth="yes"/>
			<point x="159" y="327"/>
			<point x="160" y="336"/>
			<point x="163" y="344" type="curve" smooth="yes"/>
			<point x="283" y="700" type="line"/>
			<point x="225" y="718" type="line"/>
			<point x="108" y="369" type="line" smooth="yes"/>
			<point x="102" y="352"/>
			<point x="100" y="336"/>
			<point x="100" y="321" type="curve" smooth="yes"/>
			<point x="100" y="250"/>
			<point x="154" y="194"/>
		</contour>
		<contour>
			<point x="555" y="0" type="line"/>
			<point x="615" y="0" type="line"/>
			<point x="615" y="600" type="line"/>
			<point x="555" y="600" type="line"/>
		</contour>
	</outline>
</glyph>
<glyph name="five" format="1">
  <advance width="775"/>
  <unicode hex="0035"/>
  <outline>
    <contour>
      <point x="489" y="0" type="line" smooth="yes"/>
      <point x="592" y="0"/>
      <point x="675" y="83"/>
      <point x="675" y="186" type="curve" smooth="yes"/>
      <point x="675" y="288"/>
      <point x="592" y="371"/>
      <point x="489" y="371" type="curve" smooth="yes"/>
      <point x="260" y="371" type="line" smooth="yes"/>
      <point x="189" y="371"/>
      <point x="160" y="401"/>
      <point x="160" y="471" type="curve" smooth="yes"/>
      <point x="160" y="664" type="line"/>
      <point x="135" y="639" type="line"/>
      <point x="635" y="640" type="line"/>
      <point x="635" y="700" type="line"/>
      <point x="160" y="699" type="line" smooth="yes"/>
      <point x="121" y="699"/>
      <point x="100" y="678"/>
      <point x="100" y="639" type="curve" smooth="yes"/>
      <point x="100" y="471" type="line" smooth="yes"/>
      <point x="100" y="367"/>
      <point x="156" y="311"/>
      <point x="260" y="311" type="curve" smooth="yes"/>
      <point x="489" y="311" type="line" smooth="yes"/>
      <point x="559" y="311"/>
      <point x="615" y="255"/>
      <point x="615" y="186" type="curve" smooth="yes"/>
      <point x="615" y="116"/>
      <point x="559" y="60"/>
      <point x="489" y="60" type="curve" smooth="yes"/>
      <point x="127" y="60" type="line"/>
      <point x="127" y="0" type="line"/>
    </contour>
  </outline>
</glyph>
<glyph name="six" format="1">
  <advance width="754"/>
  <unicode hex="0036"/>
  <outline>
    <contour>
      <point x="459" y="331" type="line" smooth="yes"/>
      <point x="533" y="331"/>
      <point x="594" y="270"/>
      <point x="594" y="195" type="curve" smooth="yes"/>
      <point x="594" y="110"/>
      <point x="544" y="60"/>
      <point x="459" y="60" type="curve" smooth="yes"/>
      <point x="315" y="60" type="line" smooth="yes"/>
      <point x="230" y="60"/>
      <point x="160" y="130"/>
      <point x="160" y="215" type="curve" smooth="yes"/>
      <point x="160" y="485" type="line" smooth="yes"/>
      <point x="160" y="570"/>
      <point x="230" y="640"/>
      <point x="315" y="640" type="curve" smooth="yes"/>
      <point x="585" y="640" type="line"/>
      <point x="585" y="700" type="line"/>
      <point x="315" y="700" type="line" smooth="yes"/>
      <point x="197" y="700"/>
      <point x="100" y="603"/>
      <point x="100" y="485" type="curve" smooth="yes"/>
      <point x="100" y="215" type="line" smooth="yes"/>
      <point x="100" y="97"/>
      <point x="197" y="0"/>
      <point x="315" y="0" type="curve" smooth="yes"/>
      <point x="459" y="0" type="line" smooth="yes"/>
      <point x="577" y="0"/>
      <point x="654" y="77"/>
      <point x="654" y="195" type="curve" smooth="yes"/>
      <point x="654" y="303"/>
      <point x="566" y="391"/>
      <point x="459" y="391" type="curve" smooth="yes"/>
      <point x="136" y="391" type="line"/>
      <point x="136" y="331" type="line"/>
    </contour>
  </outline>
</glyph>
<glyph name="seven" format="2">
	<advance width="709"/>
	<unicode hex="0037"/>
	<outline>
		<contour>
			<point x="425" y="0" type="line"/>
			<point x="601" y="525" type="line" smooth="yes"/>
			<point x="607" y="542"/>
			<point x="609" y="558"/>
			<point x="609" y="573" type="curve" smooth="yes"/>
			<point x="609" y="644"/>
			<point x="555" y="700"/>
			<point x="475" y="700" type="curve" smooth="yes"/>
			<point x="100" y="700" type="line"/>
			<point x="100" y="640" type="line"/>
			<point x="481" y="640" type="line" smooth="yes"/>
			<point x="522" y="640"/>
			<point x="550" y="611"/>
			<point x="550" y="575" type="curve" smooth="yes"/>
			<point x="550" y="567"/>
			<point x="549" y="558"/>
			<point x="546" y="550" type="curve" smooth="yes"/>
			<point x="362" y="0" type="line"/>
		</contour>
	</outline>
</glyph>
<glyph name="eight" format="1">
  <advance width="717"/>
  <unicode hex="0038"/>
  <outline>
    <contour>
      <point x="427" y="0" type="line" smooth="yes"/>
      <point x="532" y="0"/>
      <point x="617" y="85"/>
      <point x="617" y="190" type="curve" smooth="yes"/>
      <point x="617" y="276"/>
      <point x="570" y="345"/>
      <point x="493" y="370" type="curve"/>
      <point x="496" y="342" type="line"/>
      <point x="556" y="374"/>
      <point x="597" y="437"/>
      <point x="597" y="510" type="curve" smooth="yes"/>
      <point x="597" y="615"/>
      <point x="512" y="700"/>
      <point x="407" y="700" type="curve" smooth="yes"/>
      <point x="310" y="700" type="line" smooth="yes"/>
      <point x="205" y="700"/>
      <point x="120" y="615"/>
      <point x="120" y="510" type="curve" smooth="yes"/>
      <point x="120" y="437"/>
      <point x="161" y="374"/>
      <point x="221" y="342" type="curve"/>
      <point x="224" y="370" type="line"/>
      <point x="147" y="345"/>
      <point x="100" y="276"/>
      <point x="100" y="190" type="curve" smooth="yes"/>
      <point x="100" y="85"/>
      <point x="185" y="0"/>
      <point x="290" y="0" type="curve" smooth="yes"/>
    </contour>
    <contour>
      <point x="218" y="60"/>
      <point x="160" y="118"/>
      <point x="160" y="190" type="curve" smooth="yes"/>
      <point x="160" y="262"/>
      <point x="218" y="320"/>
      <point x="290" y="320" type="curve" smooth="yes"/>
      <point x="427" y="320" type="line" smooth="yes"/>
      <point x="499" y="320"/>
      <point x="557" y="262"/>
      <point x="557" y="190" type="curve" smooth="yes"/>
      <point x="557" y="118"/>
      <point x="499" y="60"/>
      <point x="427" y="60" type="curve" smooth="yes"/>
      <point x="290" y="60" type="line" smooth="yes"/>
    </contour>
    <contour>
      <point x="238" y="380"/>
      <point x="180" y="438"/>
      <point x="180" y="510" type="curve" smooth="yes"/>
      <point x="180" y="582"/>
      <point x="238" y="640"/>
      <point x="310" y="640" type="curve" smooth="yes"/>
      <point x="407" y="640" type="line" smooth="yes"/>
      <point x="479" y="640"/>
      <point x="537" y="582"/>
      <point x="537" y="510" type="curve" smooth="yes"/>
      <point x="537" y="438"/>
      <point x="479" y="380"/>
      <point x="407" y="380" type="curve" smooth="yes"/>
      <point x="310" y="380" type="line" smooth="yes"/>
    </contour>
  </outline>
</glyph>
<glyph name="nine" format="2">
	<advance width="754"/>
	<unicode hex="0039"/>
	<outline>
		<contour>
			<point x="169" y="0" type="line"/>
			<point x="439" y="0" type="line" smooth="yes"/>
			<point x="557" y="0"/>
			<point x="654" y="97"/>
			<point x="654" y="215" type="curve" smooth="yes"/>
			<point x="654" y="485" type="line" smooth="yes"/>
			<point x="654" y="603"/>
			<point x="557" y="700"/>
			<point x="439" y="700" type="curve" smooth="yes"/>
			<point x="295" y="700" type="line" smooth="yes"/>
			<point x="177" y="700"/>
			<point x="100" y="623"/>
			<point x="100" y="505" type="curve" smooth="yes"/>
			<point x="100" y="397"/>
			<point x="188" y="309"/>
			<point x="295" y="309" type="curve" smooth="yes"/>
			<point x="618" y="309" type="line"/>
			<point x="618" y="369" type="line"/>
			<point x="295" y="369" type="line" smooth="yes"/>
			<point x="221" y="369"/>
			<point x="160" y="430"/>
			<point x="160" y="505" type="curve" smooth="yes"/>
			<point x="160" y="590"/>
			<point x="210" y="640"/>
			<point x="295" y="640" type="curve" smooth="yes"/>
			<point x="439" y="640" type="line" smooth="yes"/>
			<point x="524" y="640"/>
			<point x="594" y="570"/>
			<point x="594" y="485" type="curve" smooth="yes"/>
			<point x="594" y="215" type="line" smooth="yes"/>
			<point x="594" y="130"/>
			<point x="524" y="60"/>
			<point x="439" y="60" type="curve" smooth="yes"/>
			<point x="169" y="60" type="line"/>
		</contour>
	</outline>
</glyph>
<glyph name="colon" format="2">
	<advance width="180"/>
	<unicode hex="003A"/>
	<outline>
		<contour>
			<point x="90" y="84" type="curve" smooth="yes"/>
			<point x="117" y="84"/>
			<point x="140" y="107"/>
			<point x="140" y="134" type="curve" smooth="yes"/>
			<point x="140" y="162"/>
			<point x="117" y="184"/>
			<point x="90" y="184" type="curve" smooth="yes"/>
			<point x="62" y="184"/>
			<point x="40" y="162"/>
			<point x="40" y="134" type="curve" smooth="yes"/>
			<point x="40" y="107"/>
			<point x="62" y="84"/>
		</contour>
		<contour>
			<point x="90" y="386" type="curve" smooth="yes"/>
			<point x="117" y="386"/>
			<point x="140" y="409"/>
			<point x="140" y="436" type="curve" smooth="yes"/>
			<point x="140" y="464"/>
			<point x="117" y="486"/>
			<point x="90" y="486" type="curve" smooth="yes"/>
			<point x="62" y="486"/>
			<point x="40" y="464"/>
			<point x="40" y="436" type="curve" smooth="yes"/>
			<point x="40" y="409"/>
			<point x="62" y="386"/>
		</contour>
	</outline>
</glyph>
<glyph name="semicolon" format="2">
	<advance width="188"/>
	<unicode hex="003B"/>
	<outline>
		<contour>
			<point x="98" y="291" type="curve" smooth="yes"/>
			<point x="125" y="291"/>
			<point x="148" y="314"/>
			<point x="148" y="341" type="curve" smooth="yes"/>
			<point x="148" y="369"/>
			<point x="125" y="391"/>
			<point x="98" y="391" type="curve" smooth="yes"/>
			<point x="70" y="391"/>
			<point x="48" y="369"/>
			<point x="48" y="341" type="curve" smooth="yes"/>
			<point x="48" y="314"/>
			<point x="70" y="291"/>
		</contour>
		<contour>
			<point x="98" y="-11" type="curve" smooth="yes"/>
			<point x="125" y="-11"/>
			<point x="148" y="12"/>
			<point x="148" y="39" type="curve" smooth="yes"/>
			<point x="148" y="67"/>
			<point x="125" y="89"/>
			<point x="98" y="89" type="curve" smooth="yes"/>
			<point x="70" y="89"/>
			<point x="48" y="67"/>
			<point x="48" y="39" type="curve" smooth="yes"/>
			<point x="48" y="12"/>
			<point x="70" y="-11"/>
		</contour>
		<contour>
			<point x="66" y="-67" type="line"/>
			<point x="136" y="7" type="line"/>
			<point x="94" y="19" type="line"/>
			<point x="40" y="-43" type="line"/>
		</contour>
	</outline>
</glyph>
<glyph name="less" format="1">
  <advance width="435"/>
  <unicode hex="003C"/>
  <outline>
    <contour>
      <point x="355" y="239" type="line"/>
      <point x="157" y="353" type="line"/>
      <point x="355" y="467" type="line"/>
      <point x="325" y="518" type="line"/>
      <point x="111" y="394" type="line" smooth="yes"/>
      <point x="91" y="382"/>
      <point x="80" y="368"/>
      <point x="80" y="353" type="curve" smooth="yes"/>
      <point x="80" y="339"/>
      <point x="91" y="324"/>
      <point x="111" y="312" type="curve" smooth="yes"/>
      <point x="325" y="188" type="line"/>
    </contour>
  </outline>
</glyph>
<glyph name="equal" format="2">
	<advance width="700"/>
	<unicode hex="003D"/>
	<outline>
		<contour>
			<point x="515" y="440" type="line"/>
			<point x="185" y="440" type="line"/>
			<point x="185" y="380" type="line"/>
			<point x="515" y="380" type="line"/>
		</contour>
		<contour>
			<point x="515" y="320" type="line"/>
			<point x="185" y="320" type="line"/>
			<point x="185" y="260" type="line"/>
			<point x="515" y="260" type="line"/>
		</contour>
	</outline>
</glyph>
<glyph name="question" format="1">
  <advance width="378"/>
  <unicode hex="003F"/>
  <outline>
    <contour>
      <point x="203" y="158" type="line"/>
      <point x="203" y="236"/>
      <point x="221" y="265"/>
      <point x="292" y="346" type="curve" smooth="yes"/>
      <point x="356" y="418"/>
      <point x="378" y="466"/>
      <point x="378" y="535" type="curve" smooth="yes"/>
      <point x="378" y="648"/>
      <point x="286" y="741"/>
      <point x="173" y="741" type="curve" smooth="yes"/>
      <point x="101" y="741"/>
      <point x="37" y="703"/>
      <point x="0" y="647" type="curve"/>
      <point x="51" y="614" type="line"/>
      <point x="77" y="654"/>
      <point x="122" y="681"/>
      <point x="173" y="681" type="curve" smooth="yes"/>
      <point x="253" y="681"/>
      <point x="318" y="615"/>
      <point x="318" y="535" type="curve" smooth="yes"/>
      <point x="318" y="485"/>
      <point x="299" y="445"/>
      <point x="243" y="381" type="curve" smooth="yes"/>
      <point x="163" y="289"/>
      <point x="143" y="253"/>
      <point x="143" y="158" type="curve"/>
    </contour>
    <component base="bullet" xOffset="25" yOffset="389" yScale="-1"/>
  </outline>
</glyph>
<glyph name="at" format="1">
  <advance width="1040"/>
  <unicode hex="0040"/>
  <outline>
    <contour>
      <point x="608" y="492" type="line" smooth="yes"/>
      <point x="593" y="537"/>
      <point x="557" y="560"/>
      <point x="520" y="560" type="curve" smooth="yes"/>
      <point x="484" y="560"/>
      <point x="447" y="537"/>
      <point x="432" y="492" type="curve" smooth="yes"/>
      <point x="303" y="101" type="line"/>
      <point x="361" y="81" type="line"/>
      <point x="490" y="480" type="line" smooth="yes"/>
      <point x="495" y="496"/>
      <point x="508" y="503"/>
      <point x="521" y="503" type="curve" smooth="yes"/>
      <point x="534" y="503"/>
      <point x="547" y="496"/>
      <point x="552" y="480" type="curve" smooth="yes"/>
      <point x="675" y="102" type="line"/>
      <point x="738" y="102" type="line"/>
    </contour>
    <contour>
      <point x="887" y="102"/>
      <point x="980" y="195"/>
      <point x="980" y="310" type="curve" smooth="yes"/>
      <point x="980" y="564"/>
      <point x="774" y="770"/>
      <point x="520" y="770" type="curve" smooth="yes"/>
      <point x="266" y="770"/>
      <point x="60" y="564"/>
      <point x="60" y="310" type="curve" smooth="yes"/>
      <point x="60" y="56"/>
      <point x="266" y="-149"/>
      <point x="520" y="-150" type="curve" smooth="yes"/>
      <point x="647" y="-150"/>
      <point x="762" y="-98"/>
      <point x="845" y="-15" type="curve"/>
      <point x="803" y="27" type="line"/>
      <point x="730" y="-46"/>
      <point x="630" y="-90"/>
      <point x="520" y="-90" type="curve" smooth="yes"/>
      <point x="298" y="-90"/>
      <point x="120" y="89"/>
      <point x="120" y="310" type="curve" smooth="yes"/>
      <point x="120" y="531"/>
      <point x="299" y="710"/>
      <point x="520" y="710" type="curve" smooth="yes"/>
      <point x="741" y="710"/>
      <point x="920" y="531"/>
      <point x="920" y="310" type="curve" smooth="yes"/>
      <point x="920" y="228"/>
      <point x="854" y="162"/>
      <point x="772" y="162" type="curve" smooth="yes"/>
      <point x="675" y="162" type="line"/>
      <point x="675" y="102" type="line"/>
      <point x="772" y="102" type="line" smooth="yes"/>
    </contour>
  </outline>
</glyph>
<glyph name="A" format="1">
  <advance width="756"/>
  <unicode hex="0041"/>
  <outline>
    <contour>
      <point x="163" y="238" type="line"/>
      <point x="163" y="185" type="line"/>
      <point x="594" y="185" type="line"/>
      <point x="594" y="238" type="line"/>
    </contour>
    <contour>
      <point x="510" y="632" type="line"/>
      <point x="490" y="689"/>
      <point x="439" y="725"/>
      <point x="378" y="725" type="curve"/>
      <point x="317" y="725"/>
      <point x="265" y="689"/>
      <point x="245" y="632" type="curve"/>
      <point x="40" y="0" type="line"/>
      <point x="104" y="0" type="line"/>
      <point x="301" y="612" type="line"/>
      <point x="313" y="643"/>
      <point x="345" y="665"/>
      <point x="378" y="665" type="curve"/>
      <point x="411" y="665"/>
      <point x="442" y="643"/>
      <point x="454" y="612" type="curve"/>
      <point x="653" y="0" type="line"/>
      <point x="716" y="0" type="line"/>
    </contour>
    <contour>
      <point x="378" y="-167" type="move" name="below"/>
    </contour>
    <contour>
      <point x="378" y="869" type="move" name="accent"/>
    </contour>
    <contour>
      <point x="378" y="1079" type="move" name="above"/>
    </contour>
    <contour>
      <point x="654" y="8" type="move" name="bottom"/>
    </contour>
  </outline>
</glyph>
<glyph name="B" format="1">
  <advance width="794"/>
  <unicode hex="0042"/>
  <outline>
    <contour>
      <point x="140" y="700" type="line" smooth="yes"/>
      <point x="101" y="700"/>
      <point x="80" y="679"/>
      <point x="80" y="640" type="curve" smooth="yes"/>
      <point x="80" y="60" type="line" smooth="yes"/>
      <point x="80" y="21"/>
      <point x="101" y="0"/>
      <point x="140" y="0" type="curve" smooth="yes"/>
      <point x="524" y="0" type="line" smooth="yes"/>
      <point x="629" y="0"/>
      <point x="714" y="85"/>
      <point x="714" y="190" type="curve" smooth="yes"/>
      <point x="714" y="281"/>
      <point x="661" y="353"/>
      <point x="576" y="374" type="curve"/>
      <point x="582" y="347" type="line"/>
      <point x="637" y="380"/>
      <point x="674" y="441"/>
      <point x="674" y="510" type="curve" smooth="yes"/>
      <point x="674" y="615"/>
      <point x="589" y="700"/>
      <point x="484" y="700" type="curve" smooth="yes"/>
    </contour>
    <contour>
      <point x="596" y="320"/>
      <point x="654" y="262"/>
      <point x="654" y="190" type="curve" smooth="yes"/>
      <point x="654" y="118"/>
      <point x="596" y="60"/>
      <point x="524" y="60" type="curve" smooth="yes"/>
      <point x="140" y="60" type="line"/>
      <point x="140" y="320" type="line"/>
      <point x="524" y="320" type="line" smooth="yes"/>
    </contour>
    <contour>
      <point x="556" y="640"/>
      <point x="614" y="582"/>
      <point x="614" y="510" type="curve" smooth="yes"/>
      <point x="614" y="438"/>
      <point x="556" y="380"/>
      <point x="484" y="380" type="curve" smooth="yes"/>
      <point x="140" y="380" type="line"/>
      <point x="140" y="640" type="line"/>
      <point x="484" y="640" type="line" smooth="yes"/>
    </contour>
  </outline>
</glyph>
<glyph name="C" format="1">
  <advance width="840"/>
  <unicode hex="0043"/>
  <outline>
    <contour>
      <point x="653" y="91"/>
      <point x="542" y="35"/>
      <point x="435" y="35" type="curve" smooth="yes"/>
      <point x="229" y="35"/>
      <point x="120" y="203"/>
      <point x="120" y="350" type="curve" smooth="yes"/>
      <point x="120" y="493"/>
      <point x="230" y="665"/>
      <point x="435" y="665" type="curve" smooth="yes"/>
      <point x="564" y="665"/>
      <point x="660" y="594"/>
      <point x="708" y="508" type="curve"/>
      <point x="760" y="538" type="line"/>
      <point x="695" y="650"/>
      <point x="574" y="725"/>
      <point x="435" y="725" type="curve" smooth="yes"/>
      <point x="228" y="725"/>
      <point x="60" y="557"/>
      <point x="60" y="350" type="curve" smooth="yes"/>
      <point x="60" y="143"/>
      <point x="228" y="-25"/>
      <point x="435" y="-25" type="curve" smooth="yes"/>
      <point x="574" y="-25"/>
      <point x="695" y="50"/>
      <point x="760" y="162" type="curve"/>
      <point x="708" y="192" type="line"/>
    </contour>
    <contour>
      <point x="435" y="-16" type="move" name="bottom"/>
    </contour>
    <contour>
      <point x="435" y="869" type="move" name="accent"/>
    </contour>
  </outline>
</glyph>
<glyph name="D" format="2">
	<advance width="800"/>
	<unicode hex="0044"/>
	<anchor x="110" y="360" name="bar"/>
	<anchor x="376" y="869" name="accent"/>
	<anchor x="110" y="360" name="stroke"/>
	<outline>
		<contour>
			<point x="140" y="0" type="curve" smooth="yes"/>
			<point x="390" y="0" type="line" smooth="yes"/>
			<point x="584" y="0"/>
			<point x="740" y="158"/>
			<point x="740" y="350" type="curve" smooth="yes"/>
			<point x="740" y="542"/>
			<point x="584" y="700"/>
			<point x="390" y="700" type="curve" smooth="yes"/>
			<point x="140" y="700" type="line" smooth="yes"/>
			<point x="101" y="700"/>
			<point x="80" y="679"/>
			<point x="80" y="640" type="curve" smooth="yes"/>
			<point x="80" y="60" type="line" smooth="yes"/>
			<point x="80" y="21"/>
			<point x="101" y="0"/>
		</contour>
		<contour>
			<point x="140" y="60" type="line"/>
			<point x="140" y="640" type="line"/>
			<point x="390" y="640" type="line" smooth="yes"/>
			<point x="551" y="640"/>
			<point x="680" y="509"/>
			<point x="680" y="350" type="curve" smooth="yes"/>
			<point x="680" y="191"/>
			<point x="551" y="60"/>
			<point x="390" y="60" type="curve" smooth="yes"/>
		</contour>
	</outline>
</glyph>
<glyph name="E" format="2">
	<advance width="760"/>
	<unicode hex="0045"/>
	<anchor x="381" y="-167" name="below"/>
	<anchor x="381" y="869" name="accent"/>
	<anchor x="381" y="1079" name="above"/>
	<anchor x="380" y="8" name="bottom"/>
	<outline>
		<contour>
			<point x="148" y="0" type="curve" smooth="yes"/>
			<point x="673" y="0" type="line"/>
			<point x="673" y="60" type="line"/>
			<point x="148" y="60" type="line"/>
			<point x="148" y="640" type="line"/>
			<point x="673" y="640" type="line"/>
			<point x="673" y="700" type="line"/>
			<point x="148" y="700" type="line" smooth="yes"/>
			<point x="109" y="700"/>
			<point x="88" y="679"/>
			<point x="88" y="640" type="curve" smooth="yes"/>
			<point x="88" y="60" type="line" smooth="yes"/>
			<point x="88" y="21"/>
			<point x="109" y="0"/>
		</contour>
		<contour>
			<point x="118" y="320" type="line"/>
			<point x="511" y="320" type="line"/>
			<point x="511" y="380" type="line"/>
			<point x="118" y="380" type="line"/>
		</contour>
	</outline>
</glyph>
<glyph name="F" format="2">
	<advance width="700"/>
	<unicode hex="0046"/>
	<outline>
		<contour>
			<point x="88" y="0" type="line"/>
			<point x="148" y="0" type="line"/>
			<point x="148" y="640" type="line"/>
			<point x="613" y="640" type="line"/>
			<point x="613" y="700" type="line"/>
			<point x="148" y="700" type="line" smooth="yes"/>
			<point x="109" y="700"/>
			<point x="88" y="679"/>
			<point x="88" y="640" type="curve" smooth="yes"/>
		</contour>
		<contour>
			<point x="118" y="320" type="line"/>
			<point x="451" y="320" type="line"/>
			<point x="451" y="380" type="line"/>
			<point x="118" y="380" type="line"/>
		</contour>
	</outline>
</glyph>
<glyph name="G" format="1">
  <advance width="834"/>
  <unicode hex="0047"/>
  <outline>
    <contour>
      <point x="230" y="725"/>
      <point x="60" y="555"/>
      <point x="60" y="350" type="curve" smooth="yes"/>
      <point x="60" y="145"/>
      <point x="230" y="-25"/>
      <point x="435" y="-25" type="curve" smooth="yes"/>
      <point x="555" y="-25"/>
      <point x="661" y="32"/>
      <point x="731" y="121" type="curve" smooth="yes"/>
      <point x="749" y="144"/>
      <point x="754" y="165"/>
      <point x="754" y="195" type="curve" smooth="yes"/>
      <point x="754" y="320" type="line" smooth="yes"/>
      <point x="754" y="359"/>
      <point x="733" y="380"/>
      <point x="694" y="380" type="curve" smooth="yes"/>
      <point x="437" y="380" type="line"/>
      <point x="437" y="320" type="line"/>
      <point x="694" y="320" type="line"/>
      <point x="694" y="172" type="line"/>
      <point x="636" y="88"/>
      <point x="542" y="35"/>
      <point x="435" y="35" type="curve" smooth="yes"/>
      <point x="263" y="35"/>
      <point x="120" y="178"/>
      <point x="120" y="350" type="curve" smooth="yes"/>
      <point x="120" y="522"/>
      <point x="263" y="665"/>
      <point x="435" y="665" type="curve" smooth="yes"/>
      <point x="522" y="665"/>
      <point x="601" y="630"/>
      <point x="657" y="572" type="curve"/>
      <point x="700" y="614" type="line"/>
      <point x="633" y="683"/>
      <point x="539" y="725"/>
      <point x="435" y="725" type="curve" smooth="yes"/>
    </contour>
    <contour>
      <point x="437" y="869" type="move" name="accent"/>
    </contour>
  </outline>
</glyph>
<glyph name="H" format="1">
  <advance width="745"/>
  <unicode hex="0048"/>
  <outline>
    <contour>
      <point x="605" y="700" type="line"/>
      <point x="605" y="0" type="line"/>
      <point x="665" y="0" type="line"/>
      <point x="665" y="700" type="line"/>
    </contour>
    <contour>
      <point x="80" y="700" type="line"/>
      <point x="80" y="0" type="line"/>
      <point x="140" y="0" type="line"/>
      <point x="140" y="700" type="line"/>
    </contour>
    <contour>
      <point x="110" y="380" type="line"/>
      <point x="110" y="320" type="line"/>
      <point x="638" y="320" type="line"/>
      <point x="638" y="380" type="line"/>
    </contour>
    <contour>
      <point x="374" y="542" type="move" name="bar"/>
    </contour>
  </outline>
</glyph>
<glyph name="I" format="1">
  <advance width="260"/>
  <unicode hex="0049"/>
  <outline>
    <contour>
      <point x="100" y="700" type="line"/>
      <point x="100" y="0" type="line"/>
      <point x="160" y="0" type="line"/>
      <point x="160" y="700" type="line"/>
    </contour>
    <contour>
      <point x="130" y="-167" type="move" name="below"/>
    </contour>
    <contour>
      <point x="130" y="869" type="move" name="accent"/>
    </contour>
    <contour>
      <point x="130" y="1079" type="move" name="above"/>
    </contour>
    <contour>
      <point x="136" y="8" type="move" name="bottom"/>
    </contour>
  </outline>
</glyph>
<glyph name="J" format="2">
	<advance width="600"/>
	<unicode hex="004A"/>
	<outline>
		<contour>
			<point x="63" y="0" type="line"/>
			<point x="218" y="0" type="line"/>
			<point x="412" y="0"/>
			<point x="538" y="126"/>
			<point x="538" y="320" type="curve"/>
			<point x="538" y="700" type="line"/>
			<point x="478" y="700" type="line"/>
			<point x="478" y="320" type="line"/>
			<point x="478" y="159"/>
			<point x="379" y="60"/>
			<point x="218" y="60" type="curve"/>
			<point x="63" y="60" type="line"/>
		</contour>
	</outline>
</glyph>
<glyph name="K" format="1">
  <advance width="683"/>
  <unicode hex="004B"/>
  <outline>
    <contour>
      <point x="623" y="0" type="line"/>
      <point x="271" y="309" type="line" smooth="yes"/>
      <point x="257" y="321"/>
      <point x="250" y="336"/>
      <point x="250" y="350" type="curve" smooth="yes"/>
      <point x="250" y="365"/>
      <point x="257" y="379"/>
      <point x="271" y="391" type="curve" smooth="yes"/>
      <point x="623" y="700" type="line"/>
      <point x="531" y="700" type="line"/>
      <point x="231" y="437" type="line" smooth="yes"/>
      <point x="204" y="413"/>
      <point x="190" y="382"/>
      <point x="190" y="350" type="curve" smooth="yes"/>
      <point x="190" y="319"/>
      <point x="204" y="287"/>
      <point x="231" y="263" type="curve" smooth="yes"/>
      <point x="531" y="0" type="line"/>
    </contour>
    <contour>
      <point x="140" y="0" type="line"/>
      <point x="140" y="700" type="line"/>
      <point x="80" y="700" type="line"/>
      <point x="80" y="0" type="line"/>
    </contour>
    <contour>
      <point x="339" y="869" type="move" name="accent"/>
    </contour>
  </outline>
</glyph>
<glyph name="L" format="1">
  <advance width="655"/>
  <unicode hex="004C"/>
  <outline>
    <contour>
      <point x="80" y="700" type="line"/>
      <point x="80" y="60" type="line" smooth="yes"/>
      <point x="80" y="21"/>
      <point x="101" y="0"/>
      <point x="140" y="0" type="curve" smooth="yes"/>
      <point x="615" y="0" type="line"/>
      <point x="615" y="60" type="line"/>
      <point x="140" y="60" type="line"/>
      <point x="140" y="700" type="line"/>
    </contour>
    <contour>
      <point x="111" y="350" type="move" name="slash"/>
    </contour>
    <contour>
      <point x="113" y="869" type="move" name="accent"/>
    </contour>
  </outline>
</glyph>
<glyph name="M" format="2">
	<advance width="1100"/>
	<unicode hex="004D"/>
	<outline>
		<contour>
			<point x="551" y="-5" type="curve" smooth="yes"/>
			<point x="587" y="-5"/>
			<point x="624" y="18"/>
			<point x="630" y="64" type="curve" smooth="yes"/>
			<point x="700" y="598" type="line" smooth="yes"/>
			<point x="706" y="644"/>
			<point x="743" y="667"/>
			<point x="780" y="667" type="curve" smooth="yes"/>
			<point x="816" y="667"/>
			<point x="853" y="644"/>
			<point x="859" y="597" type="curve" smooth="yes"/>
			<point x="937" y="0" type="line"/>
			<point x="997" y="0" type="line"/>
			<point x="918" y="605" type="line" smooth="yes"/>
			<point x="907" y="686"/>
			<point x="843" y="727"/>
			<point x="779" y="727" type="curve" smooth="yes"/>
			<point x="715" y="727"/>
			<point x="652" y="686"/>
			<point x="641" y="606" type="curve" smooth="yes"/>
			<point x="570" y="72" type="line"/>
			<point x="569" y="61"/>
			<point x="560" y="55"/>
			<point x="551" y="55" type="curve" smooth="yes"/>
			<point x="542" y="55"/>
			<point x="532" y="61"/>
			<point x="531" y="72" type="curve" smooth="yes"/>
			<point x="459" y="606" type="line" smooth="yes"/>
			<point x="448" y="686"/>
			<point x="385" y="726"/>
			<point x="321" y="726" type="curve" smooth="yes"/>
			<point x="257" y="726"/>
			<point x="193" y="686"/>
			<point x="182" y="605" type="curve" smooth="yes"/>
			<point x="103" y="0" type="line"/>
			<point x="163" y="0" type="line"/>
			<point x="241" y="597" type="line" smooth="yes"/>
			<point x="248" y="644"/>
			<point x="284" y="667"/>
			<point x="321" y="667" type="curve" smooth="yes"/>
			<point x="357" y="667"/>
			<point x="394" y="644"/>
			<point x="400" y="598" type="curve" smooth="yes"/>
			<point x="471" y="64" type="line" smooth="yes"/>
			<point x="477" y="18"/>
			<point x="514" y="-5"/>
		</contour>
	</outline>
</glyph>
<glyph name="N" format="2">
	<advance width="900"/>
	<unicode hex="004E"/>
	<anchor x="451" y="869" name="accent"/>
	<outline>
		<contour>
			<point x="633" y="-22" type="curve" smooth="yes"/>
			<point x="714" y="-22"/>
			<point x="779" y="39"/>
			<point x="779" y="123" type="curve" smooth="yes"/>
			<point x="779" y="701" type="line"/>
			<point x="719" y="701" type="line"/>
			<point x="719" y="123" type="line" smooth="yes"/>
			<point x="719" y="75"/>
			<point x="686" y="38"/>
			<point x="633" y="38" type="curve" smooth="yes"/>
			<point x="597" y="38"/>
			<point x="563" y="60"/>
			<point x="552" y="100" type="curve" smooth="yes"/>
			<point x="407" y="617" type="line" smooth="yes"/>
			<point x="389" y="684"/>
			<point x="332" y="723"/>
			<point x="268" y="723" type="curve" smooth="yes"/>
			<point x="215" y="723"/>
			<point x="122" y="686"/>
			<point x="122" y="578" type="curve" smooth="yes"/>
			<point x="122" y="0" type="line"/>
			<point x="182" y="0" type="line"/>
			<point x="182" y="578" type="line" smooth="yes"/>
			<point x="182" y="627"/>
			<point x="219" y="663"/>
			<point x="269" y="663" type="curve" smooth="yes"/>
			<point x="306" y="663"/>
			<point x="337" y="640"/>
			<point x="350" y="601" type="curve"/>
			<point x="494" y="84" type="line" smooth="yes"/>
			<point x="513" y="17"/>
			<point x="570" y="-22"/>
		</contour>
	</outline>
</glyph>
<glyph name="O" format="1">
  <advance width="863"/>
  <unicode hex="004F"/>
  <outline>
    <contour>
      <point x="226" y="725"/>
      <point x="60" y="557"/>
      <point x="60" y="350" type="curve" smooth="yes"/>
      <point x="60" y="143"/>
      <point x="226" y="-25"/>
      <point x="431" y="-25" type="curve" smooth="yes"/>
      <point x="637" y="-25"/>
      <point x="803" y="143"/>
      <point x="803" y="350" type="curve" smooth="yes"/>
      <point x="803" y="557"/>
      <point x="637" y="725"/>
      <point x="431" y="725" type="curve" smooth="yes"/>
    </contour>
    <contour>
      <point x="605" y="665"/>
      <point x="744" y="524"/>
      <point x="744" y="350" type="curve" smooth="yes"/>
      <point x="744" y="176"/>
      <point x="605" y="35"/>
      <point x="431" y="35" type="curve" smooth="yes"/>
      <point x="258" y="35"/>
      <point x="119" y="176"/>
      <point x="119" y="350" type="curve" smooth="yes"/>
      <point x="119" y="524"/>
      <point x="258" y="665"/>
      <point x="431" y="665" type="curve" smooth="yes"/>
    </contour>
    <contour>
      <point x="431" y="-167" type="move" name="below"/>
    </contour>
    <contour>
      <point x="431" y="869" type="move" name="accent"/>
    </contour>
    <contour>
      <point x="432" y="1079" type="move" name="above"/>
    </contour>
    <contour>
      <point x="431" y="350" type="move" name="slash"/>
    </contour>
    <contour>
      <point x="407" y="-17" type="move" name="bottom"/>
    </contour>
  </outline>
</glyph>
<glyph name="P" format="1">
  <advance width="735"/>
  <unicode hex="0050"/>
  <outline>
    <contour>
      <point x="140" y="699" type="line" smooth="yes"/>
      <point x="101" y="699"/>
      <point x="80" y="678"/>
      <point x="80" y="639" type="curve" smooth="yes"/>
      <point x="80" y="-1" type="line"/>
      <point x="140" y="-1" type="line"/>
      <point x="140" y="639" type="line"/>
      <point x="500" y="639" type="line" smooth="yes"/>
      <point x="564" y="639"/>
      <point x="615" y="588"/>
      <point x="615" y="524" type="curve" smooth="yes"/>
      <point x="615" y="461"/>
      <point x="564" y="409"/>
      <point x="500" y="409" type="curve" smooth="yes"/>
      <point x="111" y="409" type="line"/>
      <point x="111" y="349" type="line"/>
      <point x="500" y="349" type="line" smooth="yes"/>
      <point x="597" y="349"/>
      <point x="675" y="428"/>
      <point x="675" y="524" type="curve" smooth="yes"/>
      <point x="675" y="621"/>
      <point x="597" y="699"/>
      <point x="500" y="699" type="curve" smooth="yes"/>
    </contour>
  </outline>
</glyph>
<glyph name="Q" format="2">
	<advance width="900"/>
	<unicode hex="0051"/>
	<guideline x="340" y="-25" angle="0"/>
	<guideline x="717" y="346" angle="90"/>
	<anchor x="450" y="350" name="slash"/>
	<anchor x="426" y="-17" name="bottom"/>
	<anchor x="450" y="869" name="accent"/>
	<outline>
		<contour>
			<point x="450" y="-25" type="curve" smooth="yes"/>
			<point x="656" y="-25"/>
			<point x="822" y="143"/>
			<point x="822" y="350" type="curve" smooth="yes"/>
			<point x="822" y="557"/>
			<point x="656" y="725"/>
			<point x="450" y="725" type="curve" smooth="yes"/>
			<point x="245" y="725"/>
			<point x="79" y="557"/>
			<point x="79" y="350" type="curve" smooth="yes"/>
			<point x="79" y="143"/>
			<point x="245" y="-25"/>
		</contour>
		<contour>
			<point x="744" y="-26" type="line"/>
			<point x="786" y="16" type="line"/>
			<point x="508" y="294" type="line"/>
			<point x="466" y="252" type="line"/>
		</contour>
		<contour>
			<point x="450" y="35" type="curve" smooth="yes"/>
			<point x="277" y="35"/>
			<point x="138" y="176"/>
			<point x="138" y="350" type="curve" smooth="yes"/>
			<point x="138" y="524"/>
			<point x="277" y="665"/>
			<point x="450" y="665" type="curve" smooth="yes"/>
			<point x="624" y="665"/>
			<point x="763" y="524"/>
			<point x="763" y="350" type="curve" smooth="yes"/>
			<point x="763" y="176"/>
			<point x="624" y="35"/>
		</contour>
	</outline>
</glyph>
<glyph name="S" format="2">
	<advance width="748"/>
	<unicode hex="0053"/>
	<anchor x="384" y="8" name="bottom"/>
	<anchor x="384" y="869" name="accent"/>
	<outline>
		<contour>
			<point x="94" y="0" type="line"/>
			<point x="498" y="0" type="line" smooth="yes"/>
			<point x="603" y="0"/>
			<point x="688" y="85"/>
			<point x="688" y="190" type="curve" smooth="yes"/>
			<point x="688" y="295"/>
			<point x="603" y="380"/>
			<point x="498" y="380" type="curve" smooth="yes"/>
			<point x="270" y="380" type="line" smooth="yes"/>
			<point x="198" y="380"/>
			<point x="140" y="438"/>
			<point x="140" y="510" type="curve" smooth="yes"/>
			<point x="140" y="582"/>
			<point x="198" y="640"/>
			<point x="270" y="640" type="curve" smooth="yes"/>
			<point x="648" y="640" type="line"/>
			<point x="648" y="700" type="line"/>
			<point x="270" y="700" type="line" smooth="yes"/>
			<point x="165" y="700"/>
			<point x="80" y="615"/>
			<point x="80" y="510" type="curve" smooth="yes"/>
			<point x="80" y="405"/>
			<point x="165" y="320"/>
			<point x="270" y="320" type="curve" smooth="yes"/>
			<point x="498" y="320" type="line" smooth="yes"/>
			<point x="570" y="320"/>
			<point x="628" y="262"/>
			<point x="628" y="190" type="curve" smooth="yes"/>
			<point x="628" y="118"/>
			<point x="570" y="60"/>
			<point x="498" y="60" type="curve" smooth="yes"/>
			<point x="94" y="60" type="line"/>
		</contour>
	</outline>
</glyph>
<glyph name="T" format="2">
	<advance width="780"/>
	<unicode hex="0054"/>
	<anchor x="390" y="391" name="stroke"/>
	<anchor x="390" y="391" name="bar"/>
	<anchor x="384" y="869" name="accent"/>
	<anchor x="385" y="8" name="bottom"/>
	<outline>
		<contour>
			<point x="360" y="0" type="line"/>
			<point x="420" y="0" type="line"/>
			<point x="420" y="670" type="line"/>
			<point x="360" y="670" type="line"/>
		</contour>
		<contour>
			<point x="80" y="640" type="line"/>
			<point x="700" y="640" type="line"/>
			<point x="700" y="700" type="line"/>
			<point x="80" y="700" type="line"/>
		</contour>
	</outline>
</glyph>
<glyph name="V" format="2">
	<advance width="756"/>
	<unicode hex="0056"/>
	<outline>
		<contour>
			<point x="378" y="-25" type="curve" smooth="yes"/>
			<point x="439" y="-25"/>
			<point x="490" y="11"/>
			<point x="510" y="68" type="curve" smooth="yes"/>
			<point x="716" y="700" type="line"/>
			<point x="653" y="700" type="line"/>
			<point x="454" y="88" type="line"/>
			<point x="442" y="57"/>
			<point x="411" y="35"/>
			<point x="378" y="35" type="curve" smooth="yes"/>
			<point x="345" y="35"/>
			<point x="313" y="57"/>
			<point x="301" y="88" type="curve"/>
			<point x="104" y="700" type="line"/>
			<point x="40" y="700" type="line"/>
			<point x="245" y="68" type="line" smooth="yes"/>
			<point x="265" y="11"/>
			<point x="317" y="-25"/>
		</contour>
	</outline>
</glyph>
<glyph name="W" format="1">
  <advance width="961"/>
  <unicode hex="0057"/>
  <outline>
    <contour>
      <point x="80" y="700" type="line"/>
      <point x="80" y="189" type="line"/>
      <point x="80" y="70"/>
      <point x="177" y="-26"/>
      <point x="295" y="-26" type="curve"/>
      <point x="414" y="-26"/>
      <point x="511" y="70"/>
      <point x="511" y="189" type="curve"/>
      <point x="511" y="700" type="line"/>
      <point x="451" y="700" type="line"/>
      <point x="451" y="189" type="line"/>
      <point x="451" y="103"/>
      <point x="381" y="34"/>
      <point x="295" y="34" type="curve"/>
      <point x="209" y="34"/>
      <point x="140" y="103"/>
      <point x="140" y="189" type="curve"/>
      <point x="140" y="700" type="line"/>
    </contour>
    <contour>
      <point x="451" y="189" type="line"/>
      <point x="451" y="70"/>
      <point x="547" y="-26"/>
      <point x="666" y="-26" type="curve"/>
      <point x="785" y="-26"/>
      <point x="881" y="70"/>
      <point x="881" y="189" type="curve"/>
      <point x="881" y="700" type="line"/>
      <point x="821" y="700" type="line"/>
      <point x="821" y="189" type="line"/>
      <point x="821" y="103"/>
      <point x="752" y="34"/>
      <point x="666" y="34" type="curve"/>
      <point x="580" y="34"/>
      <point x="511" y="103"/>
      <point x="511" y="189" type="curve"/>
    </contour>
    <contour>
      <point x="481" y="869" type="move" name="accent"/>
    </contour>
  </outline>
</glyph>
<glyph name="X" format="2">
	<advance width="760"/>
	<unicode hex="0058"/>
	<outline>
		<contour>
			<point x="80" y="0" type="line"/>
			<point x="80" y="68"/>
			<point x="108" y="139"/>
			<point x="152" y="180" type="curve"/>
			<point x="567" y="564" type="line"/>
			<point x="600" y="594"/>
			<point x="620" y="645"/>
			<point x="620" y="700" type="curve"/>
			<point x="680" y="700" type="line"/>
			<point x="680" y="632"/>
			<point x="652" y="561"/>
			<point x="608" y="520" type="curve"/>
			<point x="193" y="136" type="line"/>
			<point x="160" y="106"/>
			<point x="140" y="55"/>
			<point x="140" y="0" type="curve"/>
		</contour>
		<contour>
			<point x="620" y="0" type="line"/>
			<point x="620" y="55"/>
			<point x="600" y="106"/>
			<point x="567" y="136" type="curve"/>
			<point x="152" y="520" type="line"/>
			<point x="108" y="561"/>
			<point x="80" y="632"/>
			<point x="80" y="700" type="curve"/>
			<point x="140" y="700" type="line"/>
			<point x="140" y="645"/>
			<point x="160" y="594"/>
			<point x="193" y="564" type="curve"/>
			<point x="608" y="180" type="line"/>
			<point x="652" y="139"/>
			<point x="680" y="68"/>
			<point x="680" y="0" type="curve"/>
		</contour>
	</outline>
</glyph>
<glyph name="Y" format="2">
	<advance width="766"/>
	<unicode hex="0059"/>
	<anchor x="383" y="1049" name="above"/>
	<anchor x="383" y="869" name="accent"/>
	<outline>
		<contour>
			<point x="82" y="0" type="line"/>
			<point x="392" y="0" type="line" smooth="yes"/>
			<point x="553" y="0"/>
			<point x="684" y="131"/>
			<point x="684" y="292" type="curve" smooth="yes"/>
			<point x="684" y="700" type="line"/>
			<point x="624" y="700" type="line"/>
			<point x="624" y="292" type="line" smooth="yes"/>
			<point x="624" y="164"/>
			<point x="520" y="60"/>
			<point x="392" y="60" type="curve" smooth="yes"/>
			<point x="82" y="60" type="line"/>
		</contour>
		<contour>
			<point x="622" y="192" type="line"/>
			<point x="641" y="249" type="line"/>
			<point x="318" y="354" type="line" smooth="yes"/>
			<point x="199" y="392"/>
			<point x="140" y="473"/>
			<point x="140" y="600" type="curve" smooth="yes"/>
			<point x="140" y="700" type="line"/>
			<point x="80" y="700" type="line"/>
			<point x="80" y="600" type="line" smooth="yes"/>
			<point x="80" y="448"/>
			<point x="156" y="343"/>
			<point x="299" y="297" type="curve" smooth="yes"/>
		</contour>
	</outline>
</glyph>
<glyph name="Z" format="2">
	<advance width="790"/>
	<unicode hex="005A"/>
	<anchor x="412" y="869" name="accent"/>
	<outline>
		<contour>
			<point x="151" y="0" type="curve" smooth="yes"/>
			<point x="727" y="0" type="line"/>
			<point x="727" y="60" type="line"/>
			<point x="151" y="60" type="line" smooth="yes"/>
			<point x="132" y="60"/>
			<point x="120" y="76"/>
			<point x="120" y="92" type="curve" smooth="yes"/>
			<point x="120" y="101"/>
			<point x="123" y="111"/>
			<point x="132" y="117" type="curve" smooth="yes"/>
			<point x="693" y="535" type="line" smooth="yes"/>
			<point x="718" y="554"/>
			<point x="730" y="581"/>
			<point x="730" y="607" type="curve" smooth="yes"/>
			<point x="730" y="654"/>
			<point x="694" y="700"/>
			<point x="638" y="700" type="curve" smooth="yes"/>
			<point x="95" y="700" type="line"/>
			<point x="95" y="640" type="line"/>
			<point x="638" y="640" type="line" smooth="yes"/>
			<point x="658" y="640"/>
			<point x="670" y="624"/>
			<point x="670" y="608" type="curve" smooth="yes"/>
			<point x="670" y="599"/>
			<point x="666" y="590"/>
			<point x="657" y="583" type="curve" smooth="yes"/>
			<point x="97" y="165" type="line" smooth="yes"/>
			<point x="72" y="146"/>
			<point x="60" y="119"/>
			<point x="60" y="93" type="curve" smooth="yes"/>
			<point x="60" y="46"/>
			<point x="95" y="0"/>
		</contour>
	</outline>
</glyph>
<glyph name="bracketleft" format="1">
  <advance width="310"/>
  <unicode hex="005B"/>
  <outline>
    <contour>
      <point x="270" y="-59" type="line"/>
      <point x="100" y="-59" type="line"/>
      <point x="100" y="681" type="line"/>
      <point x="270" y="681" type="line"/>
      <point x="270" y="741" type="line"/>
      <point x="40" y="741" type="line"/>
      <point x="40" y="-119" type="line"/>
      <point x="270" y="-119" type="line"/>
    </contour>
  </outline>
</glyph>
<glyph name="asciicircum" format="1">
  <advance width="450"/>
  <unicode hex="005E"/>
  <outline>
    <contour>
      <point x="111" y="492" type="line"/>
      <point x="225" y="690" type="line"/>
      <point x="339" y="492" type="line"/>
      <point x="390" y="522" type="line"/>
      <point x="266" y="736" type="line" smooth="yes"/>
      <point x="254" y="756"/>
      <point x="240" y="767"/>
      <point x="225" y="767" type="curve" smooth="yes"/>
      <point x="211" y="767"/>
      <point x="196" y="756"/>
      <point x="184" y="736" type="curve" smooth="yes"/>
      <point x="60" y="522" type="line"/>
    </contour>
  </outline>
</glyph>
<glyph name="grave" format="1">
  <advance width="203"/>
  <unicode hex="0060"/>
  <outline>
    <contour>
      <point x="40" y="744" type="line"/>
      <point x="104" y="600" type="line"/>
      <point x="163" y="600" type="line"/>
      <point x="99" y="744" type="line"/>
    </contour>
    <contour>
      <point x="134" y="680" type="move" name="_accent"/>
    </contour>
    <contour>
      <point x="134" y="680" type="move" name="_above"/>
    </contour>
  </outline>
</glyph>
<glyph name="a" format="1">
  <advance width="689"/>
  <unicode hex="0061"/>
  <outline>
    <contour>
      <point x="489" y="0" type="line" smooth="yes"/>
      <point x="558" y="0"/>
      <point x="609" y="51"/>
      <point x="609" y="120" type="curve" smooth="yes"/>
      <point x="609" y="385" type="line" smooth="yes"/>
      <point x="609" y="503"/>
      <point x="512" y="600"/>
      <point x="394" y="600" type="curve" smooth="yes"/>
      <point x="124" y="600" type="line"/>
      <point x="124" y="540" type="line"/>
      <point x="394" y="540" type="line" smooth="yes"/>
      <point x="479" y="540"/>
      <point x="549" y="470"/>
      <point x="549" y="385" type="curve" smooth="yes"/>
      <point x="549" y="121" type="line" smooth="yes"/>
      <point x="549" y="86"/>
      <point x="523" y="60"/>
      <point x="488" y="60" type="curve" smooth="yes"/>
      <point x="235" y="60" type="line" smooth="yes"/>
      <point x="163" y="60"/>
      <point x="120" y="103"/>
      <point x="120" y="175" type="curve" smooth="yes"/>
      <point x="120" y="238"/>
      <point x="172" y="290"/>
      <point x="235" y="290" type="curve" smooth="yes"/>
      <point x="572" y="290" type="line"/>
      <point x="572" y="350" type="line"/>
      <point x="235" y="350" type="line" smooth="yes"/>
      <point x="139" y="350"/>
      <point x="60" y="272"/>
      <point x="60" y="175" type="curve" smooth="yes"/>
      <point x="60" y="69"/>
      <point x="130" y="0"/>
      <point x="235" y="0" type="curve" smooth="yes"/>
    </contour>
    <contour>
      <point x="341" y="-167" type="move" name="below"/>
    </contour>
    <contour>
      <point x="341" y="759" type="move" name="accent"/>
    </contour>
    <contour>
      <point x="341" y="969" type="move" name="above"/>
    </contour>
    <contour>
      <point x="335" y="8" type="move" name="bottom"/>
    </contour>
  </outline>
</glyph>
<glyph name="b" format="1">
  <advance width="714"/>
  <unicode hex="0062"/>
  <outline>
    <contour>
      <point x="514" y="-9"/>
      <point x="654" y="132"/>
      <point x="654" y="301" type="curve" smooth="yes"/>
      <point x="654" y="470"/>
      <point x="514" y="611"/>
      <point x="344" y="611" type="curve" smooth="yes"/>
      <point x="240" y="611"/>
      <point x="149" y="559"/>
      <point x="92" y="480" type="curve"/>
      <point x="135" y="440" type="line"/>
      <point x="185" y="511"/>
      <point x="263" y="551"/>
      <point x="344" y="551" type="curve" smooth="yes"/>
      <point x="481" y="551"/>
      <point x="594" y="438"/>
      <point x="594" y="301" type="curve" smooth="yes"/>
      <point x="594" y="164"/>
      <point x="481" y="51"/>
      <point x="344" y="51" type="curve" smooth="yes"/>
      <point x="270" y="51"/>
      <point x="200" y="84"/>
      <point x="152" y="142" type="curve"/>
      <point x="143" y="152"/>
      <point x="140" y="160"/>
      <point x="140" y="184" type="curve" smooth="yes"/>
      <point x="140" y="800" type="line"/>
      <point x="80" y="800" type="line"/>
      <point x="80" y="184" type="line" smooth="yes"/>
      <point x="80" y="152"/>
      <point x="85" y="127"/>
      <point x="106" y="103" type="curve" smooth="yes"/>
      <point x="163" y="35"/>
      <point x="249" y="-9"/>
      <point x="344" y="-9" type="curve" smooth="yes"/>
    </contour>
  </outline>
</glyph>
<glyph name="c" format="1">
  <advance width="718"/>
  <unicode hex="0063"/>
  <outline>
    <contour>
      <point x="586" y="175" type="line"/>
      <point x="542" y="98"/>
      <point x="460" y="51"/>
      <point x="370" y="51" type="curve" smooth="yes"/>
      <point x="232" y="51"/>
      <point x="120" y="163"/>
      <point x="120" y="301" type="curve" smooth="yes"/>
      <point x="120" y="439"/>
      <point x="232" y="550"/>
      <point x="370" y="550" type="curve" smooth="yes"/>
      <point x="460" y="550"/>
      <point x="542" y="503"/>
      <point x="586" y="426" type="curve"/>
      <point x="638" y="456" type="line"/>
      <point x="585" y="549"/>
      <point x="484" y="610"/>
      <point x="370" y="610" type="curve" smooth="yes"/>
      <point x="199" y="610"/>
      <point x="60" y="472"/>
      <point x="60" y="301" type="curve" smooth="yes"/>
      <point x="60" y="130"/>
      <point x="199" y="-9"/>
      <point x="370" y="-9" type="curve" smooth="yes"/>
      <point x="484" y="-9"/>
      <point x="585" y="53"/>
      <point x="638" y="145" type="curve"/>
    </contour>
    <contour>
      <point x="370" y="0" type="move" name="bottom"/>
    </contour>
    <contour>
      <point x="370" y="759" type="move" name="accent"/>
    </contour>
  </outline>
</glyph>
<glyph name="d" format="2">
	<advance width="714"/>
	<unicode hex="0064"/>
	<anchor x="699" y="681" name="accentside"/>
	<anchor x="601" y="681" name="bar"/>
	<outline>
		<contour>
			<point x="370" y="-9" type="curve" smooth="yes"/>
			<point x="465" y="-9"/>
			<point x="550" y="36"/>
			<point x="608" y="103" type="curve" smooth="yes"/>
			<point x="629" y="127"/>
			<point x="634" y="152"/>
			<point x="634" y="184" type="curve" smooth="yes"/>
			<point x="634" y="800" type="line"/>
			<point x="574" y="800" type="line"/>
			<point x="574" y="184" type="line" smooth="yes"/>
			<point x="574" y="160"/>
			<point x="571" y="152"/>
			<point x="562" y="142" type="curve"/>
			<point x="514" y="84"/>
			<point x="444" y="51"/>
			<point x="370" y="51" type="curve" smooth="yes"/>
			<point x="233" y="51"/>
			<point x="120" y="164"/>
			<point x="120" y="301" type="curve" smooth="yes"/>
			<point x="120" y="438"/>
			<point x="233" y="551"/>
			<point x="370" y="551" type="curve" smooth="yes"/>
			<point x="451" y="551"/>
			<point x="529" y="511"/>
			<point x="579" y="440" type="curve"/>
			<point x="622" y="480" type="line"/>
			<point x="565" y="559"/>
			<point x="474" y="611"/>
			<point x="370" y="611" type="curve" smooth="yes"/>
			<point x="200" y="611"/>
			<point x="60" y="470"/>
			<point x="60" y="301" type="curve" smooth="yes"/>
			<point x="60" y="132"/>
			<point x="200" y="-9"/>
		</contour>
	</outline>
</glyph>
<glyph name="f" format="1">
  <advance width="456"/>
  <unicode hex="0066"/>
  <outline>
    <contour>
      <point x="140" y="0" type="line"/>
      <point x="140" y="494" type="line" smooth="yes"/>
      <point x="140" y="581"/>
      <point x="210" y="650"/>
      <point x="296" y="650" type="curve" smooth="yes"/>
      <point x="316" y="650"/>
      <point x="336" y="646"/>
      <point x="354" y="639" type="curve"/>
      <point x="376" y="695" type="line"/>
      <point x="351" y="705"/>
      <point x="324" y="710"/>
      <point x="296" y="710" type="curve" smooth="yes"/>
      <point x="177" y="710"/>
      <point x="80" y="613"/>
      <point x="80" y="494" type="curve" smooth="yes"/>
      <point x="80" y="0" type="line"/>
    </contour>
    <contour>
      <point x="344" y="320" type="line"/>
      <point x="344" y="380" type="line"/>
      <point x="97" y="380" type="line"/>
      <point x="97" y="320" type="line"/>
    </contour>
  </outline>
</glyph>
<glyph name="h" format="1">
  <advance width="734"/>
  <unicode hex="0068"/>
  <outline>
    <contour>
      <point x="654" y="0" type="line"/>
      <point x="654" y="301" type="line" smooth="yes"/>
      <point x="654" y="470"/>
      <point x="514" y="611"/>
      <point x="344" y="611" type="curve" smooth="yes"/>
      <point x="240" y="611"/>
      <point x="149" y="559"/>
      <point x="92" y="480" type="curve"/>
      <point x="135" y="440" type="line"/>
      <point x="185" y="511"/>
      <point x="263" y="551"/>
      <point x="344" y="551" type="curve" smooth="yes"/>
      <point x="481" y="551"/>
      <point x="594" y="438"/>
      <point x="594" y="301" type="curve" smooth="yes"/>
      <point x="594" y="0" type="line"/>
    </contour>
    <contour>
      <point x="140" y="1" type="line"/>
      <point x="140" y="800" type="line"/>
      <point x="80" y="800" type="line"/>
      <point x="80" y="1" type="line"/>
    </contour>
    <contour>
      <point x="110" y="681" type="move" name="bar"/>
    </contour>
  </outline>
</glyph>
<glyph name="k" format="2">
	<advance width="631"/>
	<unicode hex="006B"/>
	<anchor x="320" y="759" name="accent"/>
	<outline>
		<contour>
			<point x="484" y="0" type="line"/>
			<point x="571" y="0" type="line"/>
			<point x="261" y="288" type="line" smooth="yes"/>
			<point x="249" y="299"/>
			<point x="243" y="308"/>
			<point x="243" y="317" type="curve" smooth="yes"/>
			<point x="243" y="326"/>
			<point x="249" y="335"/>
			<point x="259" y="346" type="curve" smooth="yes"/>
			<point x="496" y="600" type="line"/>
			<point x="415" y="600" type="line"/>
			<point x="216" y="387" type="line" smooth="yes"/>
			<point x="194" y="364"/>
			<point x="184" y="340"/>
			<point x="184" y="317" type="curve" smooth="yes"/>
			<point x="184" y="292"/>
			<point x="196" y="268"/>
			<point x="221" y="245" type="curve" smooth="yes"/>
		</contour>
		<contour>
			<point x="80" y="0" type="line"/>
			<point x="140" y="0" type="line"/>
			<point x="140" y="800" type="line"/>
			<point x="80" y="800" type="line"/>
		</contour>
	</outline>
</glyph>
<glyph name="l" format="1">
  <advance width="220"/>
  <unicode hex="006C"/>
  <outline>
    <contour>
      <point x="80" y="0" type="line"/>
      <point x="140" y="0" type="line"/>
      <point x="140" y="800" type="line"/>
      <point x="80" y="800" type="line"/>
    </contour>
    <contour>
      <point x="111" y="389" type="move" name="slash"/>
    </contour>
    <contour>
      <point x="110" y="969" type="move" name="accent"/>
    </contour>
  </outline>
</glyph>
<glyph name="m" format="1">
  <advance width="868"/>
  <unicode hex="006D"/>
  <outline>
    <contour>
      <point x="788" y="0" type="line"/>
      <point x="788" y="419" type="line" smooth="yes"/>
      <point x="788" y="525"/>
      <point x="702" y="610"/>
      <point x="596" y="610" type="curve" smooth="yes"/>
      <point x="491" y="610"/>
      <point x="404" y="525"/>
      <point x="404" y="419" type="curve"/>
      <point x="464" y="419" type="line"/>
      <point x="464" y="491"/>
      <point x="523" y="550"/>
      <point x="596" y="550" type="curve" smooth="yes"/>
      <point x="669" y="550"/>
      <point x="728" y="492"/>
      <point x="728" y="419" type="curve" smooth="yes"/>
      <point x="728" y="0" type="line"/>
    </contour>
    <contour>
      <point x="140" y="0" type="line"/>
      <point x="140" y="419" type="line" smooth="yes"/>
      <point x="140" y="491"/>
      <point x="199" y="550"/>
      <point x="272" y="550" type="curve" smooth="yes"/>
      <point x="345" y="550"/>
      <point x="404" y="492"/>
      <point x="404" y="419" type="curve" smooth="yes"/>
      <point x="404" y="0" type="line"/>
      <point x="464" y="0" type="line"/>
      <point x="464" y="419" type="line" smooth="yes"/>
      <point x="464" y="525"/>
      <point x="378" y="610"/>
      <point x="272" y="610" type="curve" smooth="yes"/>
      <point x="167" y="610"/>
      <point x="80" y="525"/>
      <point x="80" y="419" type="curve" smooth="yes"/>
      <point x="80" y="0" type="line"/>
    </contour>
  </outline>
</glyph>
<glyph name="n" format="1">
  <advance width="734"/>
  <unicode hex="006E"/>
  <outline>
    <contour>
      <point x="140" y="0" type="line"/>
      <point x="140" y="418" type="line" smooth="yes"/>
      <point x="140" y="441"/>
      <point x="143" y="450"/>
      <point x="152" y="460" type="curve" smooth="yes"/>
      <point x="200" y="518"/>
      <point x="270" y="551"/>
      <point x="344" y="551" type="curve" smooth="yes"/>
      <point x="481" y="551"/>
      <point x="594" y="438"/>
      <point x="594" y="301" type="curve" smooth="yes"/>
      <point x="594" y="0" type="line"/>
      <point x="654" y="0" type="line"/>
      <point x="654" y="301" type="line" smooth="yes"/>
      <point x="654" y="470"/>
      <point x="514" y="611"/>
      <point x="344" y="611" type="curve" smooth="yes"/>
      <point x="249" y="611"/>
      <point x="163" y="567"/>
      <point x="106" y="499" type="curve" smooth="yes"/>
      <point x="86" y="475"/>
      <point x="80" y="450"/>
      <point x="80" y="418" type="curve" smooth="yes"/>
      <point x="80" y="0" type="line"/>
    </contour>
    <contour>
      <point x="344" y="759" type="move" name="accent"/>
    </contour>
  </outline>
</glyph>
<glyph name="o" format="1">
  <advance width="741"/>
  <unicode hex="006F"/>
  <outline>
    <contour>
      <point x="508" y="551"/>
      <point x="621" y="439"/>
      <point x="621" y="301" type="curve" smooth="yes"/>
      <point x="621" y="163"/>
      <point x="509" y="51"/>
      <point x="370" y="51" type="curve" smooth="yes"/>
      <point x="232" y="51"/>
      <point x="120" y="163"/>
      <point x="120" y="301" type="curve" smooth="yes"/>
      <point x="120" y="439"/>
      <point x="232" y="551"/>
      <point x="370" y="551" type="curve" smooth="yes"/>
    </contour>
    <contour>
      <point x="199" y="611"/>
      <point x="60" y="472"/>
      <point x="60" y="301" type="curve" smooth="yes"/>
      <point x="60" y="130"/>
      <point x="199" y="-9"/>
      <point x="370" y="-9" type="curve" smooth="yes"/>
      <point x="542" y="-9"/>
      <point x="681" y="130"/>
      <point x="681" y="301" type="curve" smooth="yes"/>
      <point x="681" y="472"/>
      <point x="541" y="611"/>
      <point x="370" y="611" type="curve" smooth="yes"/>
    </contour>
    <contour>
      <point x="370" y="-167" type="move" name="below"/>
    </contour>
    <contour>
      <point x="370" y="759" type="move" name="accent"/>
    </contour>
    <contour>
      <point x="370" y="969" type="move" name="above"/>
    </contour>
    <contour>
      <point x="370" y="301" type="move" name="slash"/>
    </contour>
    <contour>
      <point x="347" y="-2" type="move" name="bottom"/>
    </contour>
  </outline>
</glyph>
<glyph name="p" format="2">
	<advance width="714"/>
	<unicode hex="0070"/>
	<outline>
		<contour>
			<point x="80" y="-200" type="line"/>
			<point x="140" y="-200" type="line"/>
			<point x="140" y="416" type="line" smooth="yes"/>
			<point x="140" y="440"/>
			<point x="143" y="448"/>
			<point x="152" y="458" type="curve"/>
			<point x="200" y="516"/>
			<point x="270" y="549"/>
			<point x="344" y="549" type="curve" smooth="yes"/>
			<point x="481" y="549"/>
			<point x="594" y="436"/>
			<point x="594" y="299" type="curve" smooth="yes"/>
			<point x="594" y="162"/>
			<point x="481" y="49"/>
			<point x="344" y="49" type="curve" smooth="yes"/>
			<point x="263" y="49"/>
			<point x="185" y="89"/>
			<point x="135" y="160" type="curve"/>
			<point x="92" y="120" type="line"/>
			<point x="149" y="41"/>
			<point x="240" y="-11"/>
			<point x="344" y="-11" type="curve" smooth="yes"/>
			<point x="514" y="-11"/>
			<point x="654" y="130"/>
			<point x="654" y="299" type="curve" smooth="yes"/>
			<point x="654" y="468"/>
			<point x="514" y="609"/>
			<point x="344" y="609" type="curve" smooth="yes"/>
			<point x="249" y="609"/>
			<point x="163" y="565"/>
			<point x="106" y="497" type="curve" smooth="yes"/>
			<point x="86" y="473"/>
			<point x="80" y="448"/>
			<point x="80" y="416" type="curve" smooth="yes"/>
		</contour>
	</outline>
</glyph>
<glyph name="r" format="1">
  <advance width="580"/>
  <unicode hex="0072"/>
  <outline>
    <contour>
      <point x="140" y="0" type="line"/>
      <point x="140" y="418" type="line" smooth="yes"/>
      <point x="140" y="441"/>
      <point x="143" y="450"/>
      <point x="152" y="460" type="curve" smooth="yes"/>
      <point x="200" y="518"/>
      <point x="270" y="551"/>
      <point x="344" y="551" type="curve" smooth="yes"/>
      <point x="391" y="551"/>
      <point x="435" y="538"/>
      <point x="472" y="515" type="curve"/>
      <point x="500" y="568" type="line"/>
      <point x="454" y="595"/>
      <point x="401" y="611"/>
      <point x="344" y="611" type="curve" smooth="yes"/>
      <point x="249" y="611"/>
      <point x="163" y="567"/>
      <point x="106" y="499" type="curve" smooth="yes"/>
      <point x="86" y="475"/>
      <point x="80" y="450"/>
      <point x="80" y="418" type="curve" smooth="yes"/>
      <point x="80" y="0" type="line"/>
    </contour>
    <contour>
      <point x="294" y="759" type="move" name="accent"/>
    </contour>
  </outline>
</glyph>
<glyph name="s" format="1">
  <advance width="648"/>
  <unicode hex="0073"/>
  <outline>
    <contour>
      <point x="421" y="0" type="line" smooth="yes"/>
      <point x="513" y="0"/>
      <point x="588" y="75"/>
      <point x="588" y="169" type="curve" smooth="yes"/>
      <point x="588" y="261"/>
      <point x="513" y="336"/>
      <point x="421" y="336" type="curve" smooth="yes"/>
      <point x="243" y="336" type="line" smooth="yes"/>
      <point x="186" y="336"/>
      <point x="140" y="382"/>
      <point x="140" y="439" type="curve" smooth="yes"/>
      <point x="140" y="496"/>
      <point x="186" y="542"/>
      <point x="243" y="542" type="curve" smooth="yes"/>
      <point x="558" y="542" type="line"/>
      <point x="558" y="602" type="line"/>
      <point x="243" y="602" type="line" smooth="yes"/>
      <point x="153" y="602"/>
      <point x="80" y="529"/>
      <point x="80" y="439" type="curve" smooth="yes"/>
      <point x="80" y="349"/>
      <point x="153" y="276"/>
      <point x="243" y="276" type="curve" smooth="yes"/>
      <point x="421" y="276" type="line" smooth="yes"/>
      <point x="480" y="276"/>
      <point x="528" y="228"/>
      <point x="528" y="169" type="curve" smooth="yes"/>
      <point x="528" y="108"/>
      <point x="480" y="60"/>
      <point x="421" y="60" type="curve" smooth="yes"/>
      <point x="92" y="60" type="line"/>
      <point x="92" y="0" type="line"/>
    </contour>
    <contour>
      <point x="334" y="8" type="move" name="bottom"/>
    </contour>
    <contour>
      <point x="334" y="759" type="move" name="accent"/>
    </contour>
  </outline>
</glyph>
<glyph name="t" format="1">
  <advance width="530"/>
  <unicode hex="0074"/>
  <outline>
    <contour>
      <point x="450" y="0" type="line"/>
      <point x="450" y="60" type="line"/>
      <point x="270" y="60" type="line" smooth="yes"/>
      <point x="198" y="60"/>
      <point x="140" y="118"/>
      <point x="140" y="190" type="curve" smooth="yes"/>
      <point x="140" y="700" type="line"/>
      <point x="80" y="700" type="line"/>
      <point x="80" y="190" type="line" smooth="yes"/>
      <point x="80" y="85"/>
      <point x="166" y="0"/>
      <point x="270" y="0" type="curve" smooth="yes"/>
    </contour>
    <contour>
      <point x="450" y="540" type="line"/>
      <point x="450" y="600" type="line"/>
      <point x="111" y="600" type="line"/>
      <point x="111" y="540" type="line"/>
    </contour>
    <contour>
      <point x="108" y="362" type="move" name="bar"/>
    </contour>
    <contour>
      <point x="274" y="8" type="move" name="bottom"/>
    </contour>
    <contour>
      <point x="274" y="799" type="move" name="accent"/>
    </contour>
  </outline>
</glyph>
<glyph name="u" format="1">
  <advance width="684"/>
  <unicode hex="0075"/>
  <outline>
    <contour>
      <point x="486" y="-9"/>
      <point x="604" y="109"/>
      <point x="604" y="254" type="curve" smooth="yes"/>
      <point x="604" y="600" type="line"/>
      <point x="544" y="600" type="line"/>
      <point x="544" y="254" type="line" smooth="yes"/>
      <point x="544" y="142"/>
      <point x="453" y="51"/>
      <point x="342" y="51" type="curve" smooth="yes"/>
      <point x="231" y="51"/>
      <point x="140" y="142"/>
      <point x="140" y="254" type="curve" smooth="yes"/>
      <point x="140" y="600" type="line"/>
      <point x="80" y="600" type="line"/>
      <point x="80" y="254" type="line" smooth="yes"/>
      <point x="80" y="109"/>
      <point x="198" y="-9"/>
      <point x="342" y="-9" type="curve" smooth="yes"/>
    </contour>
    <contour>
      <point x="342" y="-167" type="move" name="below"/>
    </contour>
    <contour>
      <point x="342" y="759" type="move" name="accent"/>
    </contour>
    <contour>
      <point x="342" y="969" type="move" name="above"/>
    </contour>
    <contour>
      <point x="324" y="-1" type="move" name="bottom"/>
    </contour>
  </outline>
</glyph>
<glyph name="v" format="2">
	<advance width="633"/>
	<unicode hex="0076"/>
	<outline>
		<contour>
			<point x="316" y="-7" type="curve" smooth="yes"/>
			<point x="364" y="-7"/>
			<point x="405" y="22"/>
			<point x="419" y="66" type="curve" smooth="yes"/>
			<point x="593" y="600" type="line"/>
			<point x="529" y="600" type="line"/>
			<point x="361" y="84" type="line" smooth="yes"/>
			<point x="355" y="65"/>
			<point x="338" y="53"/>
			<point x="316" y="53" type="curve" smooth="yes"/>
			<point x="294" y="53"/>
			<point x="277" y="65"/>
			<point x="271" y="84" type="curve" smooth="yes"/>
			<point x="104" y="600" type="line"/>
			<point x="40" y="600" type="line"/>
			<point x="213" y="66" type="line" smooth="yes"/>
			<point x="227" y="22"/>
			<point x="268" y="-7"/>
		</contour>
	</outline>
</glyph>
<glyph name="w" format="1">
  <advance width="868"/>
  <unicode hex="0077"/>
  <outline>
    <contour>
      <point x="728" y="181" type="line" smooth="yes"/>
      <point x="728" y="108"/>
      <point x="669" y="50"/>
      <point x="596" y="50" type="curve" smooth="yes"/>
      <point x="523" y="50"/>
      <point x="464" y="109"/>
      <point x="464" y="181" type="curve"/>
      <point x="404" y="181" type="line"/>
      <point x="404" y="75"/>
      <point x="491" y="-10"/>
      <point x="596" y="-10" type="curve" smooth="yes"/>
      <point x="702" y="-10"/>
      <point x="788" y="75"/>
      <point x="788" y="181" type="curve" smooth="yes"/>
      <point x="788" y="600" type="line"/>
      <point x="728" y="600" type="line"/>
    </contour>
    <contour>
      <point x="80" y="181" type="line" smooth="yes"/>
      <point x="80" y="75"/>
      <point x="167" y="-10"/>
      <point x="272" y="-10" type="curve" smooth="yes"/>
      <point x="378" y="-10"/>
      <point x="464" y="75"/>
      <point x="464" y="181" type="curve" smooth="yes"/>
      <point x="464" y="600" type="line"/>
      <point x="404" y="600" type="line"/>
      <point x="404" y="181" type="line" smooth="yes"/>
      <point x="404" y="108"/>
      <point x="345" y="50"/>
      <point x="272" y="50" type="curve" smooth="yes"/>
      <point x="199" y="50"/>
      <point x="140" y="109"/>
      <point x="140" y="181" type="curve" smooth="yes"/>
      <point x="140" y="600" type="line"/>
      <point x="80" y="600" type="line"/>
    </contour>
    <contour>
      <point x="434" y="759" type="move" name="accent"/>
    </contour>
  </outline>
</glyph>
<glyph name="x" format="1">
  <advance width="770"/>
  <unicode hex="0078"/>
  <outline>
    <contour>
      <point x="690" y="0" type="line"/>
      <point x="690" y="97"/>
      <point x="641" y="183"/>
      <point x="558" y="232" type="curve" smooth="yes"/>
      <point x="241" y="420" type="line" smooth="yes"/>
      <point x="176" y="459"/>
      <point x="140" y="523"/>
      <point x="140" y="600" type="curve"/>
      <point x="80" y="600" type="line"/>
      <point x="80" y="502"/>
      <point x="128" y="417"/>
      <point x="211" y="368" type="curve" smooth="yes"/>
      <point x="528" y="180" type="line" smooth="yes"/>
      <point x="593" y="141"/>
      <point x="630" y="76"/>
      <point x="630" y="0" type="curve"/>
    </contour>
    <contour>
      <point x="140" y="0" type="line"/>
      <point x="140" y="76"/>
      <point x="177" y="141"/>
      <point x="242" y="180" type="curve" smooth="yes"/>
      <point x="559" y="368" type="line" smooth="yes"/>
      <point x="642" y="417"/>
      <point x="690" y="502"/>
      <point x="690" y="600" type="curve"/>
      <point x="630" y="600" type="line"/>
      <point x="630" y="523"/>
      <point x="594" y="459"/>
      <point x="529" y="420" type="curve" smooth="yes"/>
      <point x="212" y="232" type="line" smooth="yes"/>
      <point x="129" y="183"/>
      <point x="80" y="97"/>
      <point x="80" y="0" type="curve"/>
    </contour>
  </outline>
</glyph>
<glyph name="y" format="1">
  <advance width="684"/>
  <unicode hex="0079"/>
  <outline>
    <contour>
      <point x="389" y="-229" type="line" smooth="yes"/>
      <point x="507" y="-229"/>
      <point x="604" y="-132"/>
      <point x="604" y="-14" type="curve" smooth="yes"/>
      <point x="604" y="600" type="line"/>
      <point x="544" y="600" type="line"/>
      <point x="544" y="-14" type="line" smooth="yes"/>
      <point x="544" y="-99"/>
      <point x="474" y="-169"/>
      <point x="389" y="-169" type="curve" smooth="yes"/>
      <point x="119" y="-169" type="line"/>
      <point x="119" y="-229" type="line"/>
    </contour>
    <contour>
      <point x="486" y="-9"/>
      <point x="604" y="109"/>
      <point x="604" y="254" type="curve"/>
      <point x="544" y="254" type="line"/>
      <point x="544" y="142"/>
      <point x="453" y="51"/>
      <point x="342" y="51" type="curve" smooth="yes"/>
      <point x="231" y="51"/>
      <point x="140" y="142"/>
      <point x="140" y="254" type="curve" smooth="yes"/>
      <point x="140" y="600" type="line"/>
      <point x="80" y="600" type="line"/>
      <point x="80" y="254" type="line" smooth="yes"/>
      <point x="80" y="109"/>
      <point x="198" y="-9"/>
      <point x="342" y="-9" type="curve" smooth="yes"/>
    </contour>
    <contour>
      <point x="343" y="939" type="move" name="above"/>
    </contour>
    <contour>
      <point x="343" y="759" type="move" name="accent"/>
    </contour>
  </outline>
</glyph>
<glyph name="z" format="2">
	<advance width="750"/>
	<unicode hex="007A"/>
	<anchor x="392" y="759" name="accent"/>
	<outline>
		<contour>
			<point x="182" y="0" type="curve" smooth="yes"/>
			<point x="645" y="0" type="line"/>
			<point x="645" y="60" type="line"/>
			<point x="182" y="60" type="line" smooth="yes"/>
			<point x="172" y="60"/>
			<point x="166" y="66"/>
			<point x="166" y="74" type="curve" smooth="yes"/>
			<point x="166" y="79"/>
			<point x="168" y="83"/>
			<point x="172" y="87" type="curve" smooth="yes"/>
			<point x="616" y="467" type="line" smooth="yes"/>
			<point x="636" y="484"/>
			<point x="645" y="506"/>
			<point x="645" y="526" type="curve" smooth="yes"/>
			<point x="645" y="564"/>
			<point x="615" y="600"/>
			<point x="567" y="600" type="curve" smooth="yes"/>
			<point x="124" y="600" type="line"/>
			<point x="124" y="540" type="line"/>
			<point x="567" y="540" type="line" smooth="yes"/>
			<point x="577" y="540"/>
			<point x="583" y="534"/>
			<point x="583" y="526" type="curve" smooth="yes"/>
			<point x="583" y="521"/>
			<point x="581" y="517"/>
			<point x="577" y="513" type="curve" smooth="yes"/>
			<point x="133" y="133" type="line" smooth="yes"/>
			<point x="113" y="116"/>
			<point x="104" y="94"/>
			<point x="104" y="74" type="curve" smooth="yes"/>
			<point x="104" y="36"/>
			<point x="134" y="0"/>
		</contour>
	</outline>
</glyph>
<glyph name="braceleft" format="2">
	<advance width="362"/>
	<unicode hex="007B"/>
	<outline>
		<contour>
			<point x="90" y="282" type="line"/>
			<point x="166" y="282"/>
			<point x="228" y="345"/>
			<point x="228" y="421" type="curve" smooth="yes"/>
			<point x="228" y="597" type="line" smooth="yes"/>
			<point x="228" y="649"/>
			<point x="270" y="690"/>
			<point x="322" y="690" type="curve"/>
			<point x="322" y="750" type="line"/>
			<point x="237" y="750"/>
			<point x="168" y="682"/>
			<point x="168" y="597" type="curve" smooth="yes"/>
			<point x="168" y="421" type="line" smooth="yes"/>
			<point x="168" y="378"/>
			<point x="133" y="342"/>
			<point x="90" y="342" type="curve"/>
		</contour>
		<contour>
			<point x="322" y="-126" type="curve"/>
			<point x="322" y="-66" type="line"/>
			<point x="270" y="-66"/>
			<point x="228" y="-25"/>
			<point x="228" y="27" type="curve" smooth="yes"/>
			<point x="228" y="203" type="line" smooth="yes"/>
			<point x="228" y="279"/>
			<point x="166" y="342"/>
			<point x="90" y="342" type="curve"/>
			<point x="90" y="282" type="line"/>
			<point x="133" y="282"/>
			<point x="168" y="246"/>
			<point x="168" y="203" type="curve" smooth="yes"/>
			<point x="168" y="27" type="line" smooth="yes"/>
			<point x="168" y="-58"/>
			<point x="237" y="-126"/>
		</contour>
		<contour>
			<point x="40" y="342" type="line"/>
			<point x="40" y="282" type="line"/>
			<point x="90" y="282" type="line"/>
			<point x="90" y="342" type="line"/>
		</contour>
	</outline>
</glyph>
<glyph name="bar" format="1">
  <advance width="180"/>
  <unicode hex="007C"/>
  <outline>
    <contour>
      <point x="60" y="-110" type="line"/>
      <point x="120" y="-110" type="line"/>
      <point x="120" y="800" type="line"/>
      <point x="60" y="800" type="line"/>
    </contour>
  </outline>
</glyph>
<glyph name="asciitilde" format="1">
  <advance width="505"/>
  <unicode hex="007E"/>
  <outline>
    <contour>
      <point x="357" y="306"/>
      <point x="396" y="325"/>
      <point x="425" y="360" type="curve"/>
      <point x="378" y="398" type="line"/>
      <point x="362" y="379"/>
      <point x="340" y="368"/>
      <point x="314" y="368" type="curve" smooth="yes"/>
      <point x="269" y="368"/>
      <point x="250" y="402"/>
      <point x="189" y="402" type="curve" smooth="yes"/>
      <point x="147" y="402"/>
      <point x="107" y="384"/>
      <point x="80" y="350" type="curve"/>
      <point x="126" y="310" type="line"/>
      <point x="141" y="330"/>
      <point x="163" y="341"/>
      <point x="189" y="341" type="curve" smooth="yes"/>
      <point x="235" y="341"/>
      <point x="250" y="306"/>
      <point x="314" y="306" type="curve" smooth="yes"/>
    </contour>
  </outline>
</glyph>
<glyph name="cent" format="1">
  <advance width="580"/>
  <unicode hex="00A2"/>
  <outline>
    <contour>
      <point x="407" y="84"/>
      <point x="494" y="138"/>
      <point x="540" y="217" type="curve"/>
      <point x="488" y="247" type="line"/>
      <point x="451" y="183"/>
      <point x="383" y="144"/>
      <point x="308" y="144" type="curve" smooth="yes"/>
      <point x="193" y="144"/>
      <point x="100" y="237"/>
      <point x="100" y="352" type="curve" smooth="yes"/>
      <point x="100" y="466"/>
      <point x="193" y="559"/>
      <point x="308" y="559" type="curve" smooth="yes"/>
      <point x="383" y="559"/>
      <point x="451" y="520"/>
      <point x="488" y="456" type="curve"/>
      <point x="540" y="486" type="line"/>
      <point x="494" y="566"/>
      <point x="407" y="619"/>
      <point x="308" y="619" type="curve" smooth="yes"/>
      <point x="160" y="619"/>
      <point x="40" y="500"/>
      <point x="40" y="352" type="curve" smooth="yes"/>
      <point x="40" y="204"/>
      <point x="160" y="84"/>
      <point x="308" y="84" type="curve" smooth="yes"/>
    </contour>
    <contour>
      <point x="338" y="-26" type="line"/>
      <point x="338" y="134" type="line"/>
      <point x="278" y="134" type="line"/>
      <point x="278" y="-26" type="line"/>
    </contour>
    <contour>
      <point x="338" y="569" type="line"/>
      <point x="338" y="729" type="line"/>
      <point x="278" y="729" type="line"/>
      <point x="278" y="569" type="line"/>
    </contour>
  </outline>
</glyph>
<glyph name="sterling" format="2">
	<advance width="700"/>
	<unicode hex="00A3"/>
	<outline>
		<contour>
			<point x="125" y="30" type="line"/>
			<point x="224" y="29"/>
			<point x="305" y="110"/>
			<point x="305" y="210" type="curve" smooth="yes"/>
			<point x="306" y="404" type="line" smooth="yes"/>
			<point x="306" y="519"/>
			<point x="398" y="610"/>
			<point x="513" y="610" type="curve"/>
			<point x="513" y="670" type="line"/>
			<point x="365" y="670"/>
			<point x="246" y="551"/>
			<point x="246" y="404" type="curve" smooth="yes"/>
			<point x="245" y="210" type="line" smooth="yes"/>
			<point x="245" y="144"/>
			<point x="191" y="90"/>
			<point x="125" y="90" type="curve"/>
		</contour>
		<contour>
			<point x="125" y="30" type="line"/>
			<point x="575" y="30" type="line"/>
			<point x="575" y="90" type="line"/>
			<point x="125" y="90" type="line"/>
		</contour>
		<contour>
			<point x="125" y="320" type="line"/>
			<point x="513" y="320" type="line"/>
			<point x="513" y="380" type="line"/>
			<point x="125" y="380" type="line"/>
		</contour>
	</outline>
</glyph>
<glyph name="yen" format="1">
  <advance width="600"/>
  <unicode hex="00A5"/>
  <outline>
    <contour>
      <point x="386" y="269" type="line"/>
      <point x="517" y="670" type="line"/>
      <point x="453" y="670" type="line"/>
      <point x="344" y="336" type="line" smooth="yes"/>
      <point x="338" y="317"/>
      <point x="321" y="305"/>
      <point x="299" y="305" type="curve" smooth="yes"/>
      <point x="277" y="305"/>
      <point x="260" y="317"/>
      <point x="254" y="336" type="curve" smooth="yes"/>
      <point x="146" y="670" type="line"/>
      <point x="82" y="670" type="line"/>
      <point x="212" y="269" type="line"/>
    </contour>
    <contour>
      <point x="330" y="-26" type="line"/>
      <point x="330" y="160" type="line"/>
      <point x="270" y="160" type="line"/>
      <point x="270" y="-26" type="line"/>
    </contour>
    <contour>
      <point x="509" y="129" type="line"/>
      <point x="509" y="189" type="line"/>
      <point x="89" y="189" type="line"/>
      <point x="89" y="129" type="line"/>
    </contour>
    <contour>
      <point x="509" y="249" type="line"/>
      <point x="509" y="309" type="line"/>
      <point x="373" y="309" type="line"/>
      <point x="373" y="299" type="line"/>
      <point x="224" y="299" type="line"/>
      <point x="224" y="309" type="line"/>
      <point x="89" y="309" type="line"/>
      <point x="89" y="249" type="line"/>
    </contour>
  </outline>
</glyph>
<glyph name="brokenbar" format="1">
  <advance width="180"/>
  <unicode hex="00A6"/>
  <outline>
    <contour>
      <point x="120" y="448" type="line"/>
      <point x="120" y="800" type="line"/>
      <point x="60" y="800" type="line"/>
      <point x="60" y="448" type="line"/>
    </contour>
    <contour>
      <point x="120" y="-110" type="line"/>
      <point x="120" y="242" type="line"/>
      <point x="60" y="242" type="line"/>
      <point x="60" y="-110" type="line"/>
    </contour>
  </outline>
</glyph>
<glyph name="section" format="1">
  <advance width="520"/>
  <unicode hex="00A7"/>
  <outline>
    <contour>
      <point x="356" y="216" type="line" smooth="yes"/>
      <point x="428" y="216"/>
      <point x="488" y="276"/>
      <point x="488" y="350" type="curve" smooth="yes"/>
      <point x="488" y="425"/>
      <point x="430" y="484"/>
      <point x="356" y="484" type="curve" smooth="yes"/>
      <point x="164" y="484" type="line" smooth="yes"/>
      <point x="92" y="484"/>
      <point x="32" y="424"/>
      <point x="32" y="350" type="curve" smooth="yes"/>
      <point x="32" y="275"/>
      <point x="90" y="216"/>
      <point x="164" y="216" type="curve" smooth="yes"/>
    </contour>
    <contour>
      <point x="356" y="7" type="line" smooth="yes"/>
      <point x="430" y="7"/>
      <point x="490" y="67"/>
      <point x="490" y="142" type="curve" smooth="yes"/>
      <point x="490" y="215"/>
      <point x="429" y="276"/>
      <point x="356" y="276" type="curve"/>
      <point x="356" y="216" type="line"/>
      <point x="396" y="216"/>
      <point x="430" y="182"/>
      <point x="430" y="142" type="curve" smooth="yes"/>
      <point x="430" y="100"/>
      <point x="397" y="67"/>
      <point x="356" y="67" type="curve" smooth="yes"/>
      <point x="69" y="67" type="line"/>
      <point x="69" y="7" type="line"/>
    </contour>
    <contour>
      <point x="123" y="276"/>
      <point x="92" y="308"/>
      <point x="92" y="350" type="curve" smooth="yes"/>
      <point x="92" y="390"/>
      <point x="125" y="424"/>
      <point x="164" y="424" type="curve" smooth="yes"/>
      <point x="356" y="424" type="line" smooth="yes"/>
      <point x="397" y="424"/>
      <point x="428" y="392"/>
      <point x="428" y="350" type="curve" smooth="yes"/>
      <point x="428" y="310"/>
      <point x="395" y="276"/>
      <point x="356" y="276" type="curve" smooth="yes"/>
      <point x="164" y="276" type="line" smooth="yes"/>
    </contour>
    <contour>
      <point x="164" y="484" type="line"/>
      <point x="124" y="484"/>
      <point x="90" y="518"/>
      <point x="90" y="558" type="curve" smooth="yes"/>
      <point x="90" y="600"/>
      <point x="123" y="633"/>
      <point x="164" y="633" type="curve" smooth="yes"/>
      <point x="471" y="633" type="line"/>
      <point x="471" y="693" type="line"/>
      <point x="164" y="693" type="line" smooth="yes"/>
      <point x="90" y="693"/>
      <point x="30" y="633"/>
      <point x="30" y="558" type="curve" smooth="yes"/>
      <point x="30" y="485"/>
      <point x="91" y="424"/>
      <point x="164" y="424" type="curve"/>
    </contour>
  </outline>
</glyph>
<glyph name="dieresis" format="1">
  <advance width="341"/>
  <unicode hex="00A8"/>
  <outline>
    <contour>
      <point x="107" y="610"/>
      <point x="130" y="633"/>
      <point x="130" y="660" type="curve" smooth="yes"/>
      <point x="130" y="688"/>
      <point x="107" y="710"/>
      <point x="80" y="710" type="curve" smooth="yes"/>
      <point x="52" y="710"/>
      <point x="30" y="688"/>
      <point x="30" y="660" type="curve" smooth="yes"/>
      <point x="30" y="633"/>
      <point x="52" y="610"/>
      <point x="80" y="610" type="curve" smooth="yes"/>
    </contour>
    <contour>
      <point x="288" y="610"/>
      <point x="311" y="633"/>
      <point x="311" y="660" type="curve" smooth="yes"/>
      <point x="311" y="688"/>
      <point x="288" y="710"/>
      <point x="261" y="710" type="curve" smooth="yes"/>
      <point x="233" y="710"/>
      <point x="211" y="688"/>
      <point x="211" y="660" type="curve" smooth="yes"/>
      <point x="211" y="633"/>
      <point x="233" y="610"/>
      <point x="261" y="610" type="curve" smooth="yes"/>
    </contour>
    <contour>
      <point x="170" y="680" type="move" name="_accent"/>
    </contour>
    <contour>
      <point x="170" y="680" type="move" name="_above"/>
    </contour>
  </outline>
</glyph>
<glyph name="copyright" format="1">
  <advance width="761"/>
  <unicode hex="00A9"/>
  <outline>
    <contour>
      <point x="588" y="-25"/>
      <point x="756" y="143"/>
      <point x="756" y="350" type="curve" smooth="yes"/>
      <point x="756" y="557"/>
      <point x="588" y="725"/>
      <point x="380" y="725" type="curve" smooth="yes"/>
      <point x="173" y="725"/>
      <point x="5" y="557"/>
      <point x="5" y="350" type="curve" smooth="yes"/>
      <point x="5" y="143"/>
      <point x="173" y="-25"/>
      <point x="380" y="-25" type="curve" smooth="yes"/>
    </contour>
    <contour>
      <point x="453" y="149"/>
      <point x="518" y="189"/>
      <point x="552" y="248" type="curve"/>
      <point x="500" y="278" type="line"/>
      <point x="476" y="235"/>
      <point x="430" y="209"/>
      <point x="380" y="209" type="curve" smooth="yes"/>
      <point x="303" y="209"/>
      <point x="240" y="272"/>
      <point x="240" y="349" type="curve" smooth="yes"/>
      <point x="240" y="426"/>
      <point x="302" y="488"/>
      <point x="380" y="488" type="curve" smooth="yes"/>
      <point x="430" y="488"/>
      <point x="476" y="462"/>
      <point x="500" y="419" type="curve"/>
      <point x="552" y="449" type="line"/>
      <point x="518" y="509"/>
      <point x="453" y="548"/>
      <point x="380" y="548" type="curve" smooth="yes"/>
      <point x="269" y="548"/>
      <point x="180" y="459"/>
      <point x="180" y="349" type="curve" smooth="yes"/>
      <point x="180" y="239"/>
      <point x="269" y="149"/>
      <point x="380" y="149" type="curve" smooth="yes"/>
    </contour>
    <contour>
      <point x="206" y="35"/>
      <point x="65" y="176"/>
      <point x="65" y="350" type="curve" smooth="yes"/>
      <point x="65" y="524"/>
      <point x="206" y="665"/>
      <point x="380" y="665" type="curve" smooth="yes"/>
      <point x="555" y="665"/>
      <point x="696" y="524"/>
      <point x="696" y="350" type="curve" smooth="yes"/>
      <point x="696" y="176"/>
      <point x="555" y="35"/>
      <point x="380" y="35" type="curve" smooth="yes"/>
    </contour>
  </outline>
</glyph>
<glyph name="logicalnot" format="2">
	<advance width="700"/>
	<unicode hex="00AC"/>
	<outline>
		<contour>
			<point x="565" y="380" type="line"/>
			<point x="135" y="380" type="line"/>
			<point x="135" y="320" type="line"/>
			<point x="565" y="320" type="line"/>
		</contour>
		<contour>
			<point x="565" y="170" type="line"/>
			<point x="565" y="380" type="line"/>
			<point x="505" y="380" type="line"/>
			<point x="505" y="170" type="line"/>
		</contour>
	</outline>
</glyph>
<glyph name="macron" format="1">
  <advance width="340"/>
  <unicode hex="00AF"/>
  <outline>
    <contour>
      <point x="20" y="640" type="line"/>
      <point x="320" y="640" type="line"/>
      <point x="320" y="700" type="line"/>
      <point x="20" y="700" type="line"/>
    </contour>
    <contour>
      <point x="170" y="690" type="move" name="_accent"/>
    </contour>
    <contour>
      <point x="170" y="690" type="move" name="_above"/>
    </contour>
  </outline>
</glyph>
<glyph name="degree" format="2">
	<advance width="380"/>
	<unicode hex="00B0"/>
	<outline>
		<contour>
			<point x="190" y="446" type="curve" smooth="yes"/>
			<point x="261" y="446"/>
			<point x="320" y="505"/>
			<point x="320" y="576" type="curve" smooth="yes"/>
			<point x="320" y="647"/>
			<point x="261" y="706"/>
			<point x="190" y="706" type="curve" smooth="yes"/>
			<point x="119" y="706"/>
			<point x="60" y="647"/>
			<point x="60" y="576" type="curve" smooth="yes"/>
			<point x="60" y="505"/>
			<point x="119" y="446"/>
		</contour>
		<contour>
			<point x="190" y="506" type="curve" smooth="yes"/>
			<point x="152" y="506"/>
			<point x="120" y="538"/>
			<point x="120" y="576" type="curve" smooth="yes"/>
			<point x="120" y="614"/>
			<point x="152" y="646"/>
			<point x="190" y="646" type="curve" smooth="yes"/>
			<point x="228" y="646"/>
			<point x="260" y="614"/>
			<point x="260" y="576" type="curve" smooth="yes"/>
			<point x="260" y="538"/>
			<point x="228" y="506"/>
		</contour>
	</outline>
</glyph>
<glyph name="plusminus" format="1">
  <advance width="490"/>
  <unicode hex="00B1"/>
  <outline>
    <contour>
      <point x="215" y="299" type="line"/>
      <point x="275" y="299" type="line"/>
      <point x="275" y="515" type="line"/>
      <point x="215" y="515" type="line"/>
    </contour>
    <contour>
      <point x="80" y="437" type="line"/>
      <point x="80" y="377" type="line"/>
      <point x="410" y="377" type="line"/>
      <point x="410" y="437" type="line"/>
    </contour>
    <contour>
      <point x="80" y="255" type="line"/>
      <point x="80" y="195" type="line"/>
      <point x="410" y="195" type="line"/>
      <point x="410" y="255" type="line"/>
    </contour>
  </outline>
</glyph>
<glyph name="acute" format="1">
  <advance width="203"/>
  <unicode hex="00B4"/>
  <outline>
    <contour>
      <point x="40" y="600" type="line"/>
      <point x="99" y="600" type="line"/>
      <point x="163" y="744" type="line"/>
      <point x="104" y="744" type="line"/>
    </contour>
    <contour>
      <point x="69" y="680" type="move" name="_accent"/>
    </contour>
    <contour>
      <point x="69" y="625" type="move" name="_accentside"/>
    </contour>
    <contour>
      <point x="69" y="680" type="move" name="_above"/>
    </contour>
  </outline>
</glyph>
<glyph name="paragraph" format="1">
  <advance width="567"/>
  <unicode hex="00B6"/>
  <outline>
    <contour>
      <point x="307" y="-110" type="line"/>
      <point x="367" y="-110" type="line"/>
      <point x="367" y="800" type="line"/>
      <point x="307" y="800" type="line"/>
    </contour>
    <contour>
      <point x="447" y="-110" type="line"/>
      <point x="507" y="-110" type="line"/>
      <point x="507" y="800" type="line"/>
      <point x="447" y="800" type="line"/>
    </contour>
    <contour>
      <point x="307" y="800" type="line"/>
      <point x="171" y="800"/>
      <point x="60" y="689"/>
      <point x="60" y="553" type="curve" smooth="yes"/>
      <point x="60" y="417"/>
      <point x="171" y="306"/>
      <point x="307" y="306" type="curve"/>
    </contour>
  </outline>
</glyph>
<glyph name="cedilla" format="1">
  <advance width="242"/>
  <unicode hex="00B8"/>
  <outline>
    <contour>
      <point x="-10" y="-193"/>
      <point x="23" y="-208"/>
      <point x="59" y="-208" type="curve" smooth="yes"/>
      <point x="131" y="-208"/>
      <point x="189" y="-150"/>
      <point x="189" y="-78" type="curve" smooth="yes"/>
      <point x="189" y="-10"/>
      <point x="137" y="45"/>
      <point x="71" y="51" type="curve"/>
      <point x="65" y="-8" type="line"/>
      <point x="101" y="-10"/>
      <point x="129" y="-41"/>
      <point x="129" y="-78" type="curve" smooth="yes"/>
      <point x="129" y="-117"/>
      <point x="98" y="-148"/>
      <point x="59" y="-148" type="curve" smooth="yes"/>
      <point x="40" y="-148"/>
      <point x="22" y="-140"/>
      <point x="10" y="-127" type="curve"/>
      <point x="-33" y="-169" type="line"/>
    </contour>
    <contour>
      <point x="89" y="0" type="move" name="_bottom"/>
    </contour>
  </outline>
</glyph>
<glyph name="AE" format="2">
	<advance width="1059"/>
	<unicode hex="00C6"/>
	<outline>
		<contour>
			<point x="62" y="0" type="line"/>
			<point x="126" y="0" type="line"/>
			<point x="315" y="587" type="line" smooth="yes"/>
			<point x="327" y="618"/>
			<point x="359" y="640"/>
			<point x="392" y="640" type="curve" smooth="yes"/>
			<point x="972" y="640" type="line"/>
			<point x="972" y="700" type="line"/>
			<point x="392" y="700" type="line" smooth="yes"/>
			<point x="331" y="700"/>
			<point x="279" y="664"/>
			<point x="259" y="607" type="curve" smooth="yes"/>
		</contour>
		<contour>
			<point x="527" y="0" type="curve" smooth="yes"/>
			<point x="972" y="0" type="line"/>
			<point x="972" y="60" type="line"/>
			<point x="527" y="60" type="line"/>
			<point x="527" y="320" type="line"/>
			<point x="850" y="320" type="line"/>
			<point x="850" y="380" type="line"/>
			<point x="527" y="380" type="line"/>
			<point x="527" y="655" type="line"/>
			<point x="467" y="655" type="line"/>
			<point x="467" y="238" type="line"/>
			<point x="162" y="238" type="line"/>
			<point x="162" y="185" type="line"/>
			<point x="467" y="185" type="line"/>
			<point x="467" y="60" type="line" smooth="yes"/>
			<point x="467" y="21"/>
			<point x="488" y="0"/>
		</contour>
	</outline>
</glyph>
<glyph name="multiply" format="1">
  <advance width="457"/>
  <unicode hex="00D7"/>
  <outline>
    <contour>
      <point x="80" y="246" type="line"/>
      <point x="123" y="203" type="line"/>
      <point x="377" y="458" type="line"/>
      <point x="335" y="500" type="line"/>
    </contour>
    <contour>
      <point x="123" y="500" type="line"/>
      <point x="80" y="458" type="line"/>
      <point x="335" y="203" type="line"/>
      <point x="377" y="246" type="line"/>
    </contour>
  </outline>
</glyph>
<glyph name="ae" format="2">
	<advance width="1244"/>
	<unicode hex="00E6"/>
	<outline>
		<contour>
			<point x="251" y="0" type="curve" smooth="yes"/>
			<point x="505" y="0" type="line" smooth="yes"/>
			<point x="574" y="0"/>
			<point x="625" y="51"/>
			<point x="625" y="120" type="curve" smooth="yes"/>
			<point x="625" y="385" type="line" smooth="yes"/>
			<point x="625" y="503"/>
			<point x="528" y="600"/>
			<point x="410" y="600" type="curve" smooth="yes"/>
			<point x="140" y="600" type="line"/>
			<point x="140" y="540" type="line"/>
			<point x="410" y="540" type="line" smooth="yes"/>
			<point x="495" y="540"/>
			<point x="565" y="470"/>
			<point x="565" y="385" type="curve" smooth="yes"/>
			<point x="565" y="121" type="line" smooth="yes"/>
			<point x="565" y="86"/>
			<point x="539" y="60"/>
			<point x="504" y="60" type="curve" smooth="yes"/>
			<point x="251" y="60" type="line" smooth="yes"/>
			<point x="179" y="60"/>
			<point x="136" y="103"/>
			<point x="136" y="175" type="curve" smooth="yes"/>
			<point x="136" y="238"/>
			<point x="188" y="290"/>
			<point x="251" y="290" type="curve" smooth="yes"/>
			<point x="588" y="290" type="line"/>
			<point x="588" y="350" type="line"/>
			<point x="251" y="350" type="line" smooth="yes"/>
			<point x="155" y="350"/>
			<point x="76" y="272"/>
			<point x="76" y="175" type="curve" smooth="yes"/>
			<point x="76" y="69"/>
			<point x="146" y="0"/>
		</contour>
		<contour>
			<point x="875" y="-9" type="curve" smooth="yes"/>
			<point x="990" y="-9"/>
			<point x="1090" y="55"/>
			<point x="1144" y="147" type="curve"/>
			<point x="1092" y="177" type="line"/>
			<point x="1047" y="100"/>
			<point x="965" y="52"/>
			<point x="875" y="51" type="curve" smooth="yes"/>
			<point x="737" y="49"/>
			<point x="625" y="163"/>
			<point x="625" y="301" type="curve" smooth="yes"/>
			<point x="625" y="439"/>
			<point x="737" y="550"/>
			<point x="875" y="550" type="curve" smooth="yes"/>
			<point x="1013" y="550"/>
			<point x="1124" y="438"/>
			<point x="1124" y="300" type="curve"/>
			<point x="1138" y="310"/>
			<point x="1153" y="321"/>
			<point x="1167" y="331" type="curve"/>
			<point x="610" y="331" type="line"/>
			<point x="610" y="271" type="line"/>
			<point x="1153" y="271" type="line" smooth="yes"/>
			<point x="1170" y="271"/>
			<point x="1184" y="284"/>
			<point x="1184" y="300" type="curve" smooth="yes"/>
			<point x="1184" y="471"/>
			<point x="1046" y="609"/>
			<point x="875" y="610" type="curve" smooth="yes"/>
			<point x="704" y="611"/>
			<point x="565" y="472"/>
			<point x="565" y="301" type="curve" smooth="yes"/>
			<point x="565" y="130"/>
			<point x="704" y="-9"/>
		</contour>
	</outline>
</glyph>
<glyph name="eth" format="2">
	<advance width="761"/>
	<unicode hex="00F0"/>
	<outline>
		<contour>
			<point x="370" y="-9" type="curve" smooth="yes"/>
			<point x="542" y="-9"/>
			<point x="681" y="130"/>
			<point x="681" y="301" type="curve" smooth="yes"/>
			<point x="681" y="472"/>
			<point x="541" y="611"/>
			<point x="370" y="611" type="curve" smooth="yes"/>
			<point x="199" y="611"/>
			<point x="60" y="472"/>
			<point x="60" y="301" type="curve" smooth="yes"/>
			<point x="60" y="130"/>
			<point x="199" y="-9"/>
		</contour>
		<contour>
			<point x="370" y="51" type="curve" smooth="yes"/>
			<point x="232" y="51"/>
			<point x="120" y="163"/>
			<point x="120" y="301" type="curve" smooth="yes"/>
			<point x="120" y="439"/>
			<point x="232" y="551"/>
			<point x="370" y="551" type="curve" smooth="yes"/>
			<point x="508" y="551"/>
			<point x="621" y="439"/>
			<point x="621" y="301" type="curve" smooth="yes"/>
			<point x="621" y="163"/>
			<point x="509" y="51"/>
		</contour>
		<contour>
			<point x="621" y="301" type="curve"/>
			<point x="681" y="301" type="line"/>
			<point x="681" y="500"/>
			<point x="628" y="686"/>
			<point x="536" y="848" type="curve"/>
			<point x="481" y="822" type="line"/>
			<point x="572" y="662"/>
			<point x="621" y="484"/>
		</contour>
		<contour>
			<point x="460" y="686" type="line"/>
			<point x="654" y="777" type="line"/>
			<point x="629" y="831" type="line"/>
			<point x="435" y="740" type="line"/>
		</contour>
	</outline>
</glyph>
<glyph name="divide" format="1">
  <advance width="520"/>
  <unicode hex="00F7"/>
  <outline>
    <contour>
      <point x="80" y="380" type="line"/>
      <point x="80" y="320" type="line"/>
      <point x="440" y="320" type="line"/>
      <point x="440" y="380" type="line"/>
    </contour>
    <contour>
      <point x="287" y="440"/>
      <point x="310" y="463"/>
      <point x="310" y="490" type="curve" smooth="yes"/>
      <point x="310" y="518"/>
      <point x="287" y="540"/>
      <point x="260" y="540" type="curve" smooth="yes"/>
      <point x="232" y="540"/>
      <point x="210" y="518"/>
      <point x="210" y="490" type="curve" smooth="yes"/>
      <point x="210" y="463"/>
      <point x="232" y="440"/>
      <point x="260" y="440" type="curve" smooth="yes"/>
    </contour>
    <contour>
      <point x="287" y="160"/>
      <point x="310" y="183"/>
      <point x="310" y="210" type="curve" smooth="yes"/>
      <point x="310" y="238"/>
      <point x="287" y="260"/>
      <point x="260" y="260" type="curve" smooth="yes"/>
      <point x="232" y="260"/>
      <point x="210" y="238"/>
      <point x="210" y="210" type="curve" smooth="yes"/>
      <point x="210" y="183"/>
      <point x="232" y="160"/>
      <point x="260" y="160" type="curve" smooth="yes"/>
    </contour>
  </outline>
</glyph>
<glyph name="thorn" format="1">
  <advance width="714"/>
  <unicode hex="00FE"/>
  <outline>
    <contour>
      <point x="140" y="800" type="line"/>
      <point x="80" y="800" type="line"/>
      <point x="80" y="-199" type="line"/>
      <point x="140" y="-199" type="line"/>
    </contour>
    <contour>
      <point x="594" y="164"/>
      <point x="481" y="51"/>
      <point x="344" y="51" type="curve" smooth="yes"/>
      <point x="263" y="51"/>
      <point x="185" y="91"/>
      <point x="135" y="162" type="curve"/>
      <point x="92" y="122" type="line"/>
      <point x="149" y="43"/>
      <point x="240" y="-9"/>
      <point x="344" y="-9" type="curve" smooth="yes"/>
      <point x="514" y="-9"/>
      <point x="654" y="132"/>
      <point x="654" y="301" type="curve" smooth="yes"/>
      <point x="654" y="470"/>
      <point x="514" y="611"/>
      <point x="344" y="611" type="curve" smooth="yes"/>
      <point x="240" y="611"/>
      <point x="149" y="559"/>
      <point x="92" y="480" type="curve"/>
      <point x="135" y="440" type="line"/>
      <point x="185" y="511"/>
      <point x="263" y="551"/>
      <point x="344" y="551" type="curve" smooth="yes"/>
      <point x="481" y="551"/>
      <point x="594" y="438"/>
      <point x="594" y="301" type="curve" smooth="yes"/>
    </contour>
  </outline>
</glyph>
<glyph name="idotless" format="2">
	<advance width="260"/>
	<unicode hex="0131"/>
	<anchor x="130" y="-167" name="below"/>
	<anchor x="130" y="759" name="accent"/>
	<anchor x="130" y="969" name="above"/>
	<anchor x="136" y="8" name="bottom"/>
	<outline>
		<contour>
			<point x="100" y="600" type="line"/>
			<point x="100" y="0" type="line"/>
			<point x="160" y="0" type="line"/>
			<point x="160" y="600" type="line"/>
		</contour>
	</outline>
</glyph>
<glyph name="Eng" format="1">
  <advance width="817"/>
  <unicode hex="014A"/>
  <outline>
    <contour>
      <point x="709" y="-22" type="line"/>
      <point x="709" y="38" type="line"/>
      <point x="591" y="38" type="line"/>
      <point x="555" y="38"/>
      <point x="521" y="60"/>
      <point x="510" y="100" type="curve" smooth="yes"/>
      <point x="365" y="617" type="line" smooth="yes"/>
      <point x="347" y="684"/>
      <point x="290" y="723"/>
      <point x="226" y="723" type="curve" smooth="yes"/>
      <point x="173" y="723"/>
      <point x="80" y="686"/>
      <point x="80" y="578" type="curve" smooth="yes"/>
      <point x="80" y="0" type="line"/>
      <point x="140" y="0" type="line"/>
      <point x="140" y="578" type="line" smooth="yes"/>
      <point x="140" y="627"/>
      <point x="177" y="663"/>
      <point x="227" y="663" type="curve" smooth="yes"/>
      <point x="264" y="663"/>
      <point x="295" y="640"/>
      <point x="308" y="601" type="curve"/>
      <point x="452" y="84" type="line" smooth="yes"/>
      <point x="471" y="17"/>
      <point x="528" y="-22"/>
      <point x="591" y="-22" type="curve"/>
    </contour>
    <contour>
      <point x="537" y="-230" type="line" smooth="yes"/>
      <point x="667" y="-230"/>
      <point x="737" y="-160"/>
      <point x="737" y="-30" type="curve" smooth="yes"/>
      <point x="737" y="701" type="line"/>
      <point x="677" y="701" type="line"/>
      <point x="677" y="-30" type="line" smooth="yes"/>
      <point x="677" y="-127"/>
      <point x="633" y="-170"/>
      <point x="537" y="-170" type="curve" smooth="yes"/>
      <point x="468" y="-170" type="line"/>
      <point x="468" y="-230" type="line"/>
    </contour>
    <contour>
      <point x="409" y="869" type="move" name="accent"/>
    </contour>
  </outline>
</glyph>
<glyph name="eng" format="1">
  <advance width="734"/>
  <unicode hex="014B"/>
  <outline>
    <contour>
      <point x="454" y="-230" type="line" smooth="yes"/>
      <point x="584" y="-230"/>
      <point x="654" y="-160"/>
      <point x="654" y="-30" type="curve"/>
      <point x="654" y="301" type="line" smooth="yes"/>
      <point x="654" y="470"/>
      <point x="514" y="611"/>
      <point x="344" y="611" type="curve" smooth="yes"/>
      <point x="249" y="611"/>
      <point x="163" y="567"/>
      <point x="106" y="499" type="curve" smooth="yes"/>
      <point x="86" y="475"/>
      <point x="80" y="450"/>
      <point x="80" y="418" type="curve" smooth="yes"/>
      <point x="80" y="0" type="line"/>
      <point x="140" y="0" type="line"/>
      <point x="140" y="418" type="line" smooth="yes"/>
      <point x="140" y="441"/>
      <point x="143" y="450"/>
      <point x="152" y="460" type="curve" smooth="yes"/>
      <point x="200" y="518"/>
      <point x="270" y="551"/>
      <point x="344" y="551" type="curve" smooth="yes"/>
      <point x="481" y="551"/>
      <point x="594" y="438"/>
      <point x="594" y="301" type="curve" smooth="yes"/>
      <point x="594" y="-30" type="line" smooth="yes"/>
      <point x="594" y="-127"/>
      <point x="550" y="-170"/>
      <point x="454" y="-170" type="curve" smooth="yes"/>
      <point x="385" y="-170" type="line"/>
      <point x="385" y="-230" type="line"/>
    </contour>
    <contour>
      <point x="344" y="759" type="move" name="accent"/>
    </contour>
  </outline>
</glyph>
<glyph name="OE" format="1">
  <advance width="1215"/>
  <unicode hex="0152"/>
  <outline>
    <contour>
      <point x="643" y="-25"/>
      <point x="811" y="143"/>
      <point x="811" y="350" type="curve"/>
      <point x="811" y="557"/>
      <point x="643" y="725"/>
      <point x="435" y="725" type="curve"/>
      <point x="228" y="725"/>
      <point x="60" y="557"/>
      <point x="60" y="350" type="curve"/>
      <point x="60" y="143"/>
      <point x="228" y="-25"/>
      <point x="435" y="-25" type="curve"/>
    </contour>
    <contour>
      <point x="261" y="35"/>
      <point x="120" y="176"/>
      <point x="120" y="350" type="curve"/>
      <point x="120" y="524"/>
      <point x="261" y="665"/>
      <point x="435" y="665" type="curve"/>
      <point x="610" y="665"/>
      <point x="751" y="524"/>
      <point x="751" y="350" type="curve"/>
      <point x="751" y="176"/>
      <point x="610" y="35"/>
      <point x="435" y="35" type="curve"/>
    </contour>
    <contour>
      <point x="1135" y="0" type="line"/>
      <point x="1135" y="60" type="line"/>
      <point x="584" y="60" type="line"/>
      <point x="584" y="21"/>
      <point x="605" y="0"/>
      <point x="644" y="0" type="curve" smooth="yes"/>
    </contour>
    <contour>
      <point x="973" y="320" type="line"/>
      <point x="973" y="380" type="line"/>
      <point x="784" y="380" type="line"/>
      <point x="784" y="320" type="line"/>
    </contour>
    <contour>
      <point x="1135" y="640" type="line"/>
      <point x="1135" y="700" type="line"/>
      <point x="644" y="700" type="line" smooth="yes"/>
      <point x="605" y="700"/>
      <point x="584" y="679"/>
      <point x="584" y="640" type="curve"/>
    </contour>
  </outline>
</glyph>
<glyph name="oe" format="2">
	<advance width="1300"/>
	<unicode hex="0153"/>
	<anchor x="1032" y="759" name="accent"/>
	<outline>
		<contour>
			<point x="931" y="-9" type="curve" smooth="yes"/>
			<point x="1046" y="-9"/>
			<point x="1146" y="55"/>
			<point x="1200" y="147" type="curve"/>
			<point x="1148" y="177" type="line"/>
			<point x="1103" y="100"/>
			<point x="1021" y="52"/>
			<point x="931" y="51" type="curve" smooth="yes"/>
			<point x="793" y="49"/>
			<point x="681" y="163"/>
			<point x="681" y="301" type="curve" smooth="yes"/>
			<point x="681" y="439"/>
			<point x="793" y="550"/>
			<point x="931" y="550" type="curve" smooth="yes"/>
			<point x="1069" y="550"/>
			<point x="1180" y="438"/>
			<point x="1180" y="300" type="curve"/>
			<point x="1194" y="310"/>
			<point x="1209" y="321"/>
			<point x="1223" y="331" type="curve"/>
			<point x="666" y="331" type="line"/>
			<point x="666" y="271" type="line"/>
			<point x="1209" y="271" type="line" smooth="yes"/>
			<point x="1226" y="271"/>
			<point x="1240" y="284"/>
			<point x="1240" y="300" type="curve" smooth="yes"/>
			<point x="1240" y="471"/>
			<point x="1102" y="609"/>
			<point x="931" y="610" type="curve" smooth="yes"/>
			<point x="760" y="611"/>
			<point x="621" y="472"/>
			<point x="621" y="301" type="curve" smooth="yes"/>
			<point x="621" y="130"/>
			<point x="760" y="-9"/>
		</contour>
		<contour>
			<point x="370" y="551" type="curve" smooth="yes"/>
			<point x="508" y="551"/>
			<point x="621" y="439"/>
			<point x="621" y="301" type="curve" smooth="yes"/>
			<point x="621" y="163"/>
			<point x="509" y="51"/>
			<point x="370" y="51" type="curve" smooth="yes"/>
			<point x="232" y="51"/>
			<point x="120" y="163"/>
			<point x="120" y="301" type="curve" smooth="yes"/>
			<point x="120" y="439"/>
			<point x="232" y="551"/>
		</contour>
		<contour>
			<point x="370" y="611" type="curve"/>
			<point x="199" y="611"/>
			<point x="60" y="472"/>
			<point x="60" y="301" type="curve"/>
			<point x="60" y="130"/>
			<point x="199" y="-9"/>
			<point x="370" y="-9" type="curve"/>
			<point x="542" y="-9"/>
			<point x="681" y="130"/>
			<point x="681" y="301" type="curve"/>
			<point x="681" y="472"/>
			<point x="541" y="611"/>
		</contour>
	</outline>
</glyph>
<glyph name="longs" format="2">
	<advance width="320"/>
	<unicode hex="017F"/>
	<outline>
		<contour>
			<point x="320" y="801" type="line" smooth="yes"/>
			<point x="215" y="801"/>
			<point x="130" y="716"/>
			<point x="130" y="611" type="curve" smooth="yes"/>
			<point x="130" y="-40" type="line" smooth="yes"/>
			<point x="130" y="-112"/>
			<point x="72" y="-170"/>
			<point x="0" y="-170" type="curve" smooth="yes"/>
			<point x="-100" y="-170" type="line"/>
			<point x="-100" y="-230" type="line"/>
			<point x="0" y="-230" type="line" smooth="yes"/>
			<point x="105" y="-230"/>
			<point x="190" y="-145"/>
			<point x="190" y="-40" type="curve" smooth="yes"/>
			<point x="190" y="611" type="line" smooth="yes"/>
			<point x="190" y="683"/>
			<point x="248" y="741"/>
			<point x="320" y="741" type="curve" smooth="yes"/>
			<point x="420" y="741" type="line"/>
			<point x="420" y="801" type="line"/>
		</contour>
	</outline>
</glyph>
<glyph name="Yogh" format="2">
	<advance width="701"/>
	<unicode hex="021C"/>
	<outline>
		<contour>
			<point x="237" y="0" type="curve" smooth="yes"/>
			<point x="431" y="0" type="line" smooth="yes"/>
			<point x="536" y="0"/>
			<point x="621" y="85"/>
			<point x="621" y="190" type="curve" smooth="yes"/>
			<point x="621" y="295"/>
			<point x="536" y="380"/>
			<point x="431" y="380" type="curve" smooth="yes"/>
			<point x="224" y="380" type="line"/>
			<point x="229" y="365" type="line"/>
			<point x="589" y="609" type="line" smooth="yes"/>
			<point x="605" y="620"/>
			<point x="612" y="636"/>
			<point x="612" y="651" type="curve" smooth="yes"/>
			<point x="612" y="676"/>
			<point x="593" y="700"/>
			<point x="561" y="700" type="curve" smooth="yes"/>
			<point x="89" y="700" type="line"/>
			<point x="89" y="640" type="line"/>
			<point x="554" y="640" type="line"/>
			<point x="549" y="655" type="line"/>
			<point x="197" y="413" type="line" smooth="yes"/>
			<point x="181" y="402"/>
			<point x="173" y="385"/>
			<point x="173" y="370" type="curve" smooth="yes"/>
			<point x="173" y="344"/>
			<point x="193" y="320"/>
			<point x="226" y="320" type="curve" smooth="yes"/>
			<point x="431" y="320" type="line" smooth="yes"/>
			<point x="503" y="320"/>
			<point x="561" y="262"/>
			<point x="561" y="190" type="curve" smooth="yes"/>
			<point x="561" y="118"/>
			<point x="503" y="60"/>
			<point x="431" y="60" type="curve" smooth="yes"/>
			<point x="237" y="60" type="line" smooth="yes"/>
			<point x="192" y="60"/>
			<point x="153" y="83"/>
			<point x="129" y="117" type="curve"/>
			<point x="80" y="84" type="line"/>
			<point x="114" y="33"/>
			<point x="171" y="0"/>
		</contour>
	</outline>
</glyph>
<glyph name="jdotless" format="1">
  <advance width="220"/>
  <unicode hex="0237"/>
  <outline>
    <contour>
      <point x="-60" y="-230" type="line" smooth="yes"/>
      <point x="70" y="-230"/>
      <point x="140" y="-160"/>
      <point x="140" y="-30" type="curve" smooth="yes"/>
      <point x="140" y="600" type="line"/>
      <point x="80" y="600" type="line"/>
      <point x="80" y="-30" type="line" smooth="yes"/>
      <point x="80" y="-127"/>
      <point x="36" y="-170"/>
      <point x="-60" y="-170" type="curve" smooth="yes"/>
      <point x="-129" y="-170" type="line"/>
      <point x="-129" y="-230" type="line"/>
    </contour>
    <contour>
      <point x="109" y="759" type="move" name="accent"/>
    </contour>
  </outline>
</glyph>
<glyph name="breve" format="2">
	<advance width="370"/>
	<unicode hex="02D8"/>
	<anchor x="185" y="700" name="_accent"/>
	<anchor x="185" y="700" name="_below"/>
	<outline>
		<contour>
			<point x="185" y="615" type="curve" smooth="yes"/>
			<point x="265" y="615"/>
			<point x="330" y="679"/>
			<point x="330" y="760" type="curve"/>
			<point x="270" y="760" type="line"/>
			<point x="270" y="712"/>
			<point x="233" y="675"/>
			<point x="185" y="675" type="curve" smooth="yes"/>
			<point x="137" y="675"/>
			<point x="100" y="712"/>
			<point x="100" y="760" type="curve"/>
			<point x="40" y="760" type="line"/>
			<point x="40" y="679"/>
			<point x="104" y="615"/>
		</contour>
	</outline>
</glyph>
<glyph name="dotaccent" format="1">
  <advance width="160"/>
  <unicode hex="02D9"/>
  <outline>
    <contour>
      <point x="107" y="632"/>
      <point x="130" y="655"/>
      <point x="130" y="682" type="curve" smooth="yes"/>
      <point x="130" y="710"/>
      <point x="107" y="732"/>
      <point x="80" y="732" type="curve" smooth="yes"/>
      <point x="52" y="732"/>
      <point x="30" y="710"/>
      <point x="30" y="682" type="curve" smooth="yes"/>
      <point x="30" y="655"/>
      <point x="52" y="632"/>
      <point x="80" y="632" type="curve" smooth="yes"/>
    </contour>
    <contour>
      <point x="80" y="682" type="move" name="_accent"/>
    </contour>
  </outline>
</glyph>
<glyph name="ogonek" format="2">
	<advance width="222"/>
	<unicode hex="02DB"/>
	<anchor x="100" y="0" name="_bottom"/>
	<outline>
		<contour>
			<point x="222" y="-169" type="curve"/>
			<point x="179" y="-127" type="line"/>
			<point x="167" y="-140"/>
			<point x="149" y="-148"/>
			<point x="130" y="-148" type="curve" smooth="yes"/>
			<point x="91" y="-148"/>
			<point x="60" y="-117"/>
			<point x="60" y="-78" type="curve" smooth="yes"/>
			<point x="60" y="-41"/>
			<point x="88" y="-10"/>
			<point x="124" y="-8" type="curve"/>
			<point x="118" y="51" type="line"/>
			<point x="52" y="45"/>
			<point x="0" y="-10"/>
			<point x="0" y="-78" type="curve" smooth="yes"/>
			<point x="0" y="-150"/>
			<point x="58" y="-208"/>
			<point x="130" y="-208" type="curve" smooth="yes"/>
			<point x="166" y="-208"/>
			<point x="199" y="-193"/>
		</contour>
	</outline>
</glyph>
<glyph name="tilde" format="2">
	<advance width="555"/>
	<unicode hex="02DC"/>
	<outline>
		<contour>
			<point x="346" y="629" type="curve" smooth="yes"/>
			<point x="404" y="629"/>
			<point x="449" y="674"/>
			<point x="455" y="736" type="curve"/>
			<point x="398" y="736" type="line"/>
			<point x="394" y="704"/>
			<point x="376" y="685"/>
			<point x="348" y="685" type="curve" smooth="yes"/>
			<point x="330" y="685"/>
			<point x="310" y="694"/>
			<point x="290" y="710" type="curve" smooth="yes"/>
			<point x="266" y="730"/>
			<point x="239" y="740"/>
			<point x="210" y="740" type="curve" smooth="yes"/>
			<point x="151" y="740"/>
			<point x="106" y="695"/>
			<point x="100" y="633" type="curve"/>
			<point x="157" y="633" type="line"/>
			<point x="161" y="664"/>
			<point x="180" y="684"/>
			<point x="208" y="684" type="curve" smooth="yes"/>
			<point x="226" y="684"/>
			<point x="246" y="676"/>
			<point x="266" y="660" type="curve" smooth="yes"/>
			<point x="291" y="640"/>
			<point x="319" y="629"/>
		</contour>
	</outline>
</glyph>
<glyph name="hungarumlaut" format="1">
  <advance width="321"/>
  <unicode hex="02DD"/>
  <outline>
    <contour>
      <point x="158" y="600" type="line"/>
      <point x="217" y="600" type="line"/>
      <point x="281" y="744" type="line"/>
      <point x="222" y="744" type="line"/>
    </contour>
    <contour>
      <point x="40" y="600" type="line"/>
      <point x="99" y="600" type="line"/>
      <point x="163" y="744" type="line"/>
      <point x="104" y="744" type="line"/>
    </contour>
    <contour>
      <point x="123" y="680" type="move" name="_accent"/>
    </contour>
  </outline>
</glyph>
<glyph name="tildecomb" format="1">
  <advance width="600"/>
  <unicode hex="0303"/>
  <outline>
    <contour>
      <point x="441" y="708"/>
      <point x="491" y="730"/>
      <point x="520" y="762" type="curve"/>
      <point x="479" y="798" type="line"/>
      <point x="461" y="777"/>
      <point x="429" y="763"/>
      <point x="400" y="763" type="curve" smooth="yes"/>
      <point x="383" y="763"/>
      <point x="355" y="771"/>
      <point x="331" y="782" type="curve" smooth="yes"/>
      <point x="301" y="796"/>
      <point x="266" y="805"/>
      <point x="245" y="805" type="curve" smooth="yes"/>
      <point x="201" y="805"/>
      <point x="151" y="783"/>
      <point x="121" y="749" type="curve"/>
      <point x="161" y="713" type="line"/>
      <point x="181" y="735"/>
      <point x="213" y="750"/>
      <point x="240" y="750" type="curve" smooth="yes"/>
      <point x="259" y="750"/>
      <point x="290" y="742"/>
      <point x="316" y="729" type="curve" smooth="yes"/>
      <point x="344" y="715"/>
      <point x="376" y="708"/>
      <point x="394" y="708" type="curve" smooth="yes"/>
    </contour>
    <contour>
      <point x="318" y="776" type="move" name="_accent"/>
    </contour>
    <contour>
      <point x="318" y="775" type="move" name="_below"/>
    </contour>
    <contour>
      <point x="318" y="775" type="move" name="_above"/>
    </contour>
  </outline>
</glyph>
<glyph name="macroncomb" format="1">
  <advance width="340"/>
  <unicode hex="0304"/>
  <outline>
    <component base="macron"/>
    <contour>
      <point x="170" y="690" type="move" name="_accent"/>
    </contour>
    <contour>
      <point x="170" y="690" type="move" name="_above"/>
    </contour>
  </outline>
</glyph>
<glyph name="strokeshortcomb" format="1">
  <advance width="280"/>
  <unicode hex="0335"/>
  <outline>
    <contour>
      <point x="20" y="361" type="line"/>
      <point x="260" y="361" type="line"/>
      <point x="260" y="421" type="line"/>
      <point x="20" y="421" type="line"/>
    </contour>
    <contour>
      <point x="137" y="391" type="move" name="_accent"/>
    </contour>
    <contour>
      <point x="137" y="391" type="move" name="_bar"/>
    </contour>
    <contour>
      <point x="137" y="391" type="move" name="_below"/>
    </contour>
  </outline>
</glyph>
<glyph name="strokelongcomb" format="2">
	<advance width="700"/>
	<unicode hex="0336"/>
	<anchor x="350" y="351" name="_bar"/>
	<outline>
		<contour>
			<point x="0" y="381" type="line"/>
			<point x="0" y="321" type="line"/>
			<point x="700" y="321" type="line"/>
			<point x="700" y="381" type="line"/>
		</contour>
	</outline>
</glyph>
<glyph name="slashshortcomb" format="1">
  <advance width="761"/>
  <unicode hex="0337"/>
  <outline>
    <contour>
      <point x="296" y="227" type="line"/>
      <point x="504" y="426" type="line"/>
      <point x="461" y="468" type="line"/>
      <point x="253" y="269" type="line"/>
    </contour>
    <contour>
      <point x="380" y="350" type="move" name="_slash"/>
    </contour>
  </outline>
</glyph>
<glyph name="slashlongcomb" format="1">
  <advance width="761"/>
  <unicode hex="0338"/>
  <outline>
    <contour>
      <point x="80" y="7" type="line"/>
      <point x="724" y="651" type="line"/>
      <point x="681" y="693" type="line"/>
      <point x="37" y="49" type="line"/>
    </contour>
    <contour>
      <point x="380" y="350" type="move" name="_slash"/>
    </contour>
  </outline>
</glyph>
<glyph name="mu" format="2">
	<advance width="800"/>
	<unicode hex="03BC"/>
	<outline>
		<contour>
			<point x="76" y="600" type="line"/>
			<point x="76" y="-120" type="line"/>
			<point x="136" y="-120" type="line"/>
			<point x="136" y="600" type="line"/>
		</contour>
		<contour>
			<point x="510" y="600" type="line"/>
			<point x="510" y="238" type="line" smooth="yes"/>
			<point x="510" y="134"/>
			<point x="427" y="51"/>
			<point x="323" y="51" type="curve" smooth="yes"/>
			<point x="220" y="51"/>
			<point x="136" y="135"/>
			<point x="136" y="238" type="curve" smooth="yes"/>
			<point x="136" y="600" type="line"/>
			<point x="76" y="600" type="line"/>
			<point x="76" y="238" type="line" smooth="yes"/>
			<point x="76" y="101"/>
			<point x="187" y="-9"/>
			<point x="323" y="-9" type="curve" smooth="yes"/>
			<point x="460" y="-9"/>
			<point x="570" y="101"/>
			<point x="570" y="238" type="curve" smooth="yes"/>
			<point x="570" y="600" type="line"/>
		</contour>
		<contour>
			<point x="724" y="51" type="line"/>
			<point x="639" y="51"/>
			<point x="570" y="120"/>
			<point x="570" y="206" type="curve" smooth="yes"/>
			<point x="570" y="600" type="line"/>
			<point x="510" y="600" type="line"/>
			<point x="510" y="206" type="line" smooth="yes"/>
			<point x="510" y="87"/>
			<point x="606" y="-9"/>
			<point x="724" y="-9" type="curve"/>
		</contour>
	</outline>
</glyph>
<glyph name="Lje-cy" format="1">
  <advance width="1060"/>
  <unicode hex="0409"/>
  <outline>
    <contour>
      <point x="602" y="391" type="line"/>
      <point x="602" y="608" type="line" smooth="yes"/>
      <point x="602" y="661"/>
      <point x="563" y="700"/>
      <point x="510" y="700" type="curve" smooth="yes"/>
      <point x="259" y="700" type="line" smooth="yes"/>
      <point x="206" y="700"/>
      <point x="167" y="661"/>
      <point x="167" y="608" type="curve" smooth="yes"/>
      <point x="167" y="200" type="line"/>
      <point x="227" y="200" type="line"/>
      <point x="227" y="609" type="line" smooth="yes"/>
      <point x="227" y="626"/>
      <point x="241" y="640"/>
      <point x="258" y="640" type="curve" smooth="yes"/>
      <point x="511" y="640" type="line" smooth="yes"/>
      <point x="528" y="640"/>
      <point x="542" y="626"/>
      <point x="542" y="609" type="curve" smooth="yes"/>
      <point x="542" y="391" type="line"/>
    </contour>
    <contour>
      <point x="27" y="0" type="line"/>
      <point x="157" y="0"/>
      <point x="227" y="70"/>
      <point x="227" y="200" type="curve"/>
      <point x="167" y="200" type="line"/>
      <point x="167" y="103"/>
      <point x="123" y="60"/>
      <point x="27" y="60" type="curve"/>
      <point x="20" y="60" type="line"/>
      <point x="20" y="0" type="line"/>
    </contour>
    <contour>
      <point x="802" y="0" type="line"/>
      <point x="912" y="6"/>
      <point x="1000" y="97"/>
      <point x="1000" y="209" type="curve" smooth="yes"/>
      <point x="1000" y="325"/>
      <point x="907" y="418"/>
      <point x="791" y="418" type="curve" smooth="yes"/>
      <point x="587" y="418" type="line"/>
      <point x="587" y="358" type="line"/>
      <point x="791" y="358" type="line" smooth="yes"/>
      <point x="874" y="358"/>
      <point x="940" y="292"/>
      <point x="940" y="209" type="curve" smooth="yes"/>
      <point x="940" y="126"/>
      <point x="873" y="60"/>
      <point x="790" y="60" type="curve" smooth="yes"/>
      <point x="602" y="60" type="line"/>
      <point x="602" y="391" type="line"/>
      <point x="542" y="391" type="line"/>
      <point x="542" y="60" type="line" smooth="yes"/>
      <point x="542" y="21"/>
      <point x="563" y="0"/>
      <point x="602" y="0" type="curve" smooth="yes"/>
    </contour>
  </outline>
</glyph>
<glyph name="Nje-cy" format="1">
  <advance width="1043"/>
  <unicode hex="040A"/>
  <outline>
    <contour>
      <point x="80" y="700" type="line"/>
      <point x="80" y="0" type="line"/>
      <point x="140" y="0" type="line"/>
      <point x="140" y="700" type="line"/>
    </contour>
    <contour>
      <point x="110" y="380" type="line"/>
      <point x="110" y="320" type="line"/>
      <point x="558" y="320" type="line"/>
      <point x="558" y="380" type="line"/>
    </contour>
    <contour>
      <point x="785" y="0" type="line"/>
      <point x="895" y="6"/>
      <point x="983" y="97"/>
      <point x="983" y="209" type="curve" smooth="yes"/>
      <point x="983" y="325"/>
      <point x="890" y="418"/>
      <point x="774" y="418" type="curve" smooth="yes"/>
      <point x="570" y="418" type="line"/>
      <point x="570" y="358" type="line"/>
      <point x="774" y="358" type="line" smooth="yes"/>
      <point x="857" y="358"/>
      <point x="923" y="292"/>
      <point x="923" y="209" type="curve" smooth="yes"/>
      <point x="923" y="126"/>
      <point x="856" y="60"/>
      <point x="773" y="60" type="curve" smooth="yes"/>
      <point x="585" y="60" type="line"/>
      <point x="585" y="700" type="line"/>
      <point x="525" y="700" type="line"/>
      <point x="525" y="60" type="line" smooth="yes"/>
      <point x="525" y="21"/>
      <point x="546" y="0"/>
      <point x="585" y="0" type="curve" smooth="yes"/>
    </contour>
  </outline>
</glyph>
<glyph name="Tshe-cy" format="1">
  <advance width="974"/>
  <unicode hex="040B"/>
  <outline>
    <contour>
      <point x="660" y="640" type="line"/>
      <point x="660" y="700" type="line"/>
      <point x="40" y="700" type="line"/>
      <point x="40" y="640" type="line"/>
    </contour>
    <component base="Shha-cy" xOffset="240"/>
  </outline>
</glyph>
<glyph name="Dzhe-cy" format="1">
  <advance width="745"/>
  <unicode hex="040F"/>
  <outline>
    <contour>
      <point x="573" y="0" type="line" smooth="yes"/>
      <point x="626" y="0"/>
      <point x="665" y="39"/>
      <point x="665" y="92" type="curve" smooth="yes"/>
      <point x="665" y="700" type="line"/>
      <point x="605" y="700" type="line"/>
      <point x="605" y="91" type="line" smooth="yes"/>
      <point x="605" y="74"/>
      <point x="591" y="60"/>
      <point x="574" y="60" type="curve" smooth="yes"/>
      <point x="171" y="60" type="line" smooth="yes"/>
      <point x="154" y="60"/>
      <point x="140" y="74"/>
      <point x="140" y="91" type="curve" smooth="yes"/>
      <point x="140" y="700" type="line"/>
      <point x="80" y="700" type="line"/>
      <point x="80" y="92" type="line" smooth="yes"/>
      <point x="80" y="39"/>
      <point x="119" y="0"/>
      <point x="172" y="0" type="curve" smooth="yes"/>
    </contour>
    <contour>
      <point x="403" y="-100" type="line"/>
      <point x="403" y="31" type="line"/>
      <point x="343" y="31" type="line"/>
      <point x="343" y="-100" type="line"/>
    </contour>
  </outline>
</glyph>
<glyph name="Be-cy" format="2">
	<advance width="838"/>
	<unicode hex="0411"/>
	<outline>
		<contour>
			<point x="260" y="0" type="curve" smooth="yes"/>
			<point x="528" y="0" type="line" smooth="yes"/>
			<point x="644" y="0"/>
			<point x="738" y="93"/>
			<point x="738" y="209" type="curve" smooth="yes"/>
			<point x="738" y="325"/>
			<point x="645" y="418"/>
			<point x="529" y="418" type="curve" smooth="yes"/>
			<point x="130" y="418" type="line"/>
			<point x="130" y="358" type="line"/>
			<point x="529" y="358" type="line" smooth="yes"/>
			<point x="612" y="358"/>
			<point x="678" y="292"/>
			<point x="678" y="209" type="curve" smooth="yes"/>
			<point x="678" y="126"/>
			<point x="611" y="60"/>
			<point x="528" y="60" type="curve" smooth="yes"/>
			<point x="260" y="60" type="line" smooth="yes"/>
			<point x="189" y="60"/>
			<point x="160" y="89"/>
			<point x="160" y="160" type="curve" smooth="yes"/>
			<point x="160" y="537" type="line" smooth="yes"/>
			<point x="160" y="602"/>
			<point x="198" y="640"/>
			<point x="263" y="640" type="curve" smooth="yes"/>
			<point x="613" y="640" type="line"/>
			<point x="613" y="700" type="line"/>
			<point x="263" y="700" type="line" smooth="yes"/>
			<point x="165" y="700"/>
			<point x="100" y="635"/>
			<point x="100" y="537" type="curve" smooth="yes"/>
			<point x="100" y="160" type="line" smooth="yes"/>
			<point x="100" y="56"/>
			<point x="156" y="0"/>
		</contour>
	</outline>
</glyph>
<glyph name="Ge-cy" format="2">
	<advance width="694"/>
	<unicode hex="0413"/>
	<anchor x="367" y="1079" name="above"/>
	<anchor x="367" y="-167" name="below"/>
	<anchor x="367" y="869" name="accent"/>
	<outline>
		<contour>
			<point x="654" y="700" type="line"/>
			<point x="172" y="700" type="line" smooth="yes"/>
			<point x="119" y="700"/>
			<point x="80" y="661"/>
			<point x="80" y="608" type="curve" smooth="yes"/>
			<point x="80" y="0" type="line"/>
			<point x="140" y="0" type="line"/>
			<point x="140" y="609" type="line" smooth="yes"/>
			<point x="140" y="626"/>
			<point x="154" y="640"/>
			<point x="171" y="640" type="curve" smooth="yes"/>
			<point x="654" y="640" type="line"/>
		</contour>
	</outline>
</glyph>
<glyph name="De-cy" format="1">
  <advance width="817"/>
  <unicode hex="0414"/>
  <outline>
    <contour>
      <point x="203" y="87"/>
      <point x="242" y="181"/>
      <point x="242" y="305" type="curve" smooth="yes"/>
      <point x="242" y="609" type="line" smooth="yes"/>
      <point x="242" y="626"/>
      <point x="256" y="640"/>
      <point x="273" y="640" type="curve" smooth="yes"/>
      <point x="606" y="640" type="line" smooth="yes"/>
      <point x="623" y="640"/>
      <point x="637" y="626"/>
      <point x="637" y="609" type="curve" smooth="yes"/>
      <point x="637" y="0" type="line"/>
      <point x="697" y="0" type="line"/>
      <point x="697" y="608" type="line" smooth="yes"/>
      <point x="697" y="661"/>
      <point x="658" y="700"/>
      <point x="605" y="700" type="curve" smooth="yes"/>
      <point x="274" y="700" type="line" smooth="yes"/>
      <point x="221" y="700"/>
      <point x="182" y="661"/>
      <point x="182" y="608" type="curve" smooth="yes"/>
      <point x="182" y="305" type="line" smooth="yes"/>
      <point x="182" y="196"/>
      <point x="150" y="119"/>
      <point x="73" y="42" type="curve"/>
      <point x="115" y="0" type="line"/>
    </contour>
    <contour>
      <point x="667" y="0" type="line"/>
      <point x="667" y="60" type="line"/>
      <point x="115" y="60" type="line"/>
      <point x="115" y="0" type="line"/>
    </contour>
    <contour>
      <point x="120" y="60" type="line"/>
      <point x="81" y="60"/>
      <point x="60" y="39"/>
      <point x="60" y="0" type="curve" smooth="yes"/>
      <point x="60" y="-100" type="line"/>
      <point x="120" y="-100" type="line"/>
    </contour>
    <contour>
      <point x="757" y="-100" type="line"/>
      <point x="757" y="0" type="line" smooth="yes"/>
      <point x="757" y="39"/>
      <point x="736" y="60"/>
      <point x="697" y="60" type="curve"/>
      <point x="697" y="-100" type="line"/>
    </contour>
  </outline>
</glyph>
<glyph name="Ze-cy" format="1">
  <advance width="801"/>
  <unicode hex="0417"/>
  <outline>
    <contour>
      <point x="531" y="0" type="line" smooth="yes"/>
      <point x="636" y="0"/>
      <point x="721" y="85"/>
      <point x="721" y="190" type="curve" smooth="yes"/>
      <point x="721" y="281"/>
      <point x="668" y="353"/>
      <point x="583" y="374" type="curve"/>
      <point x="589" y="347" type="line"/>
      <point x="644" y="380"/>
      <point x="681" y="441"/>
      <point x="681" y="510" type="curve" smooth="yes"/>
      <point x="681" y="615"/>
      <point x="596" y="700"/>
      <point x="491" y="700" type="curve" smooth="yes"/>
      <point x="267" y="700" type="line" smooth="yes"/>
      <point x="201" y="700"/>
      <point x="144" y="667"/>
      <point x="110" y="616" type="curve"/>
      <point x="159" y="583" type="line"/>
      <point x="183" y="618"/>
      <point x="222" y="640"/>
      <point x="267" y="640" type="curve" smooth="yes"/>
      <point x="491" y="640" type="line" smooth="yes"/>
      <point x="563" y="640"/>
      <point x="621" y="582"/>
      <point x="621" y="510" type="curve" smooth="yes"/>
      <point x="621" y="438"/>
      <point x="563" y="380"/>
      <point x="491" y="380" type="curve" smooth="yes"/>
      <point x="227" y="380" type="line"/>
      <point x="227" y="320" type="line"/>
      <point x="531" y="320" type="line" smooth="yes"/>
      <point x="603" y="320"/>
      <point x="661" y="262"/>
      <point x="661" y="190" type="curve" smooth="yes"/>
      <point x="661" y="118"/>
      <point x="603" y="60"/>
      <point x="531" y="60" type="curve" smooth="yes"/>
      <point x="237" y="60" type="line" smooth="yes"/>
      <point x="192" y="60"/>
      <point x="153" y="83"/>
      <point x="129" y="117" type="curve"/>
      <point x="80" y="84" type="line"/>
      <point x="114" y="33"/>
      <point x="171" y="0"/>
      <point x="237" y="0" type="curve" smooth="yes"/>
    </contour>
    <contour>
      <point x="393" y="-167" type="move" name="below"/>
    </contour>
    <contour>
      <point x="393" y="869" type="move" name="accent"/>
    </contour>
    <contour>
      <point x="393" y="1079" type="move" name="above"/>
    </contour>
    <contour>
      <point x="392" y="8" type="move" name="bottom"/>
    </contour>
  </outline>
</glyph>
<glyph name="Ii-cy" format="1">
  <advance width="818"/>
  <unicode hex="0418"/>
  <outline>
    <contour>
      <point x="188" y="-16"/>
      <point x="229" y="8"/>
      <point x="254" y="47" type="curve" smooth="yes"/>
      <point x="614" y="619" type="line" smooth="yes"/>
      <point x="631" y="647"/>
      <point x="661" y="659"/>
      <point x="699" y="652" type="curve"/>
      <point x="678" y="681" type="line"/>
      <point x="678" y="0" type="line"/>
      <point x="738" y="0" type="line"/>
      <point x="738" y="654" type="line" smooth="yes"/>
      <point x="738" y="693"/>
      <point x="717" y="714"/>
      <point x="678" y="714" type="curve" smooth="yes"/>
      <point x="630" y="714"/>
      <point x="589" y="690"/>
      <point x="564" y="651" type="curve" smooth="yes"/>
      <point x="204" y="79" type="line" smooth="yes"/>
      <point x="187" y="51"/>
      <point x="157" y="39"/>
      <point x="119" y="46" type="curve"/>
      <point x="140" y="17" type="line"/>
      <point x="140" y="700" type="line"/>
      <point x="80" y="700" type="line"/>
      <point x="80" y="44" type="line" smooth="yes"/>
      <point x="80" y="5"/>
      <point x="101" y="-16"/>
      <point x="140" y="-16" type="curve" smooth="yes"/>
    </contour>
    <contour>
      <point x="408" y="869" type="move" name="accent"/>
    </contour>
  </outline>
</glyph>
<glyph name="El-cy" format="1">
  <advance width="762"/>
  <unicode hex="041B"/>
  <outline>
    <contour>
      <point x="682" y="0" type="line"/>
      <point x="682" y="608" type="line" smooth="yes"/>
      <point x="682" y="661"/>
      <point x="643" y="700"/>
      <point x="590" y="700" type="curve" smooth="yes"/>
      <point x="259" y="700" type="line" smooth="yes"/>
      <point x="206" y="700"/>
      <point x="167" y="661"/>
      <point x="167" y="608" type="curve" smooth="yes"/>
      <point x="167" y="200" type="line"/>
      <point x="227" y="200" type="line"/>
      <point x="227" y="609" type="line" smooth="yes"/>
      <point x="227" y="626"/>
      <point x="241" y="640"/>
      <point x="258" y="640" type="curve" smooth="yes"/>
      <point x="591" y="640" type="line" smooth="yes"/>
      <point x="608" y="640"/>
      <point x="622" y="626"/>
      <point x="622" y="609" type="curve" smooth="yes"/>
      <point x="622" y="0" type="line"/>
    </contour>
    <contour>
      <point x="27" y="0" type="line"/>
      <point x="157" y="0"/>
      <point x="227" y="70"/>
      <point x="227" y="200" type="curve"/>
      <point x="167" y="200" type="line"/>
      <point x="167" y="103"/>
      <point x="123" y="60"/>
      <point x="27" y="60" type="curve"/>
      <point x="20" y="60" type="line"/>
      <point x="20" y="0" type="line"/>
    </contour>
  </outline>
</glyph>
<glyph name="O-cy" format="1">
  <advance width="863"/>
  <unicode hex="041E"/>
  <outline>
    <component base="O"/>
    <contour>
      <point x="431" y="-167" type="move" name="below"/>
    </contour>
    <contour>
      <point x="431" y="869" type="move" name="accent"/>
    </contour>
    <contour>
      <point x="432" y="1079" type="move" name="above"/>
    </contour>
    <contour>
      <point x="431" y="350" type="move" name="slash"/>
    </contour>
  </outline>
</glyph>
<glyph name="Pe-cy" format="1">
  <advance width="745"/>
  <unicode hex="041F"/>
  <outline>
    <contour>
      <point x="172" y="700" type="line" smooth="yes"/>
      <point x="119" y="700"/>
      <point x="80" y="661"/>
      <point x="80" y="608" type="curve" smooth="yes"/>
      <point x="80" y="0" type="line"/>
      <point x="140" y="0" type="line"/>
      <point x="140" y="609" type="line" smooth="yes"/>
      <point x="140" y="626"/>
      <point x="154" y="640"/>
      <point x="171" y="640" type="curve" smooth="yes"/>
      <point x="574" y="640" type="line" smooth="yes"/>
      <point x="591" y="640"/>
      <point x="605" y="626"/>
      <point x="605" y="609" type="curve" smooth="yes"/>
      <point x="605" y="0" type="line"/>
      <point x="665" y="0" type="line"/>
      <point x="665" y="608" type="line" smooth="yes"/>
      <point x="665" y="661"/>
      <point x="626" y="700"/>
      <point x="573" y="700" type="curve" smooth="yes"/>
    </contour>
  </outline>
</glyph>
<glyph name="Ef-cy" format="1">
  <advance width="798"/>
  <unicode hex="0424"/>
  <outline>
    <contour>
      <point x="495" y="107" type="line" smooth="yes"/>
      <point x="629" y="107"/>
      <point x="738" y="216"/>
      <point x="738" y="350" type="curve" smooth="yes"/>
      <point x="738" y="484"/>
      <point x="628" y="593"/>
      <point x="494" y="593" type="curve" smooth="yes"/>
      <point x="304" y="593" type="line" smooth="yes"/>
      <point x="169" y="593"/>
      <point x="60" y="484"/>
      <point x="60" y="350" type="curve" smooth="yes"/>
      <point x="60" y="216"/>
      <point x="168" y="107"/>
      <point x="303" y="107" type="curve" smooth="yes"/>
    </contour>
    <contour>
      <point x="202" y="167"/>
      <point x="120" y="249"/>
      <point x="120" y="350" type="curve" smooth="yes"/>
      <point x="120" y="451"/>
      <point x="202" y="533"/>
      <point x="304" y="533" type="curve" smooth="yes"/>
      <point x="494" y="533" type="line" smooth="yes"/>
      <point x="595" y="533"/>
      <point x="678" y="450"/>
      <point x="678" y="350" type="curve" smooth="yes"/>
      <point x="678" y="249"/>
      <point x="596" y="167"/>
      <point x="495" y="167" type="curve" smooth="yes"/>
      <point x="303" y="167" type="line" smooth="yes"/>
    </contour>
    <contour>
      <point x="429" y="0" type="line"/>
      <point x="429" y="700" type="line"/>
      <point x="369" y="700" type="line"/>
      <point x="369" y="0" type="line"/>
    </contour>
  </outline>
</glyph>
<glyph name="Tse-cy" format="1">
  <advance width="785"/>
  <unicode hex="0426"/>
  <outline>
    <contour>
      <point x="665" y="0" type="line"/>
      <point x="665" y="700" type="line"/>
      <point x="605" y="700" type="line"/>
      <point x="605" y="60" type="line"/>
      <point x="171" y="60" type="line" smooth="yes"/>
      <point x="154" y="60"/>
      <point x="140" y="74"/>
      <point x="140" y="91" type="curve" smooth="yes"/>
      <point x="140" y="700" type="line"/>
      <point x="80" y="700" type="line"/>
      <point x="80" y="92" type="line" smooth="yes"/>
      <point x="80" y="39"/>
      <point x="119" y="0"/>
      <point x="172" y="0" type="curve" smooth="yes"/>
    </contour>
    <contour>
      <point x="725" y="-100" type="line"/>
      <point x="725" y="0" type="line" smooth="yes"/>
      <point x="725" y="39"/>
      <point x="704" y="60"/>
      <point x="665" y="60" type="curve"/>
      <point x="665" y="-100" type="line"/>
    </contour>
  </outline>
</glyph>
<glyph name="Che-cy" format="1">
  <advance width="734"/>
  <unicode hex="0427"/>
  <outline>
    <contour>
      <point x="594" y="700" type="line"/>
      <point x="594" y="0" type="line"/>
      <point x="654" y="0" type="line"/>
      <point x="654" y="700" type="line"/>
    </contour>
    <contour>
      <point x="80" y="700" type="line"/>
      <point x="80" y="602" type="line" smooth="yes"/>
      <point x="80" y="433"/>
      <point x="220" y="292"/>
      <point x="390" y="292" type="curve" smooth="yes"/>
      <point x="494" y="292"/>
      <point x="585" y="344"/>
      <point x="642" y="423" type="curve"/>
      <point x="599" y="463" type="line"/>
      <point x="549" y="392"/>
      <point x="471" y="352"/>
      <point x="390" y="352" type="curve" smooth="yes"/>
      <point x="253" y="352"/>
      <point x="140" y="465"/>
      <point x="140" y="602" type="curve" smooth="yes"/>
      <point x="140" y="700" type="line"/>
    </contour>
    <contour>
      <point x="365" y="-167" type="move" name="below"/>
    </contour>
    <contour>
      <point x="365" y="869" type="move" name="accent"/>
    </contour>
    <contour>
      <point x="365" y="1079" type="move" name="above"/>
    </contour>
    <contour>
      <point x="370" y="8" type="move" name="bottom"/>
    </contour>
  </outline>
</glyph>
<glyph name="Sha-cy" format="1">
  <advance width="850"/>
  <unicode hex="0428"/>
  <outline>
    <contour>
      <point x="455" y="45" type="line"/>
      <point x="455" y="700" type="line"/>
      <point x="395" y="700" type="line"/>
      <point x="395" y="45" type="line"/>
    </contour>
    <contour>
      <point x="171" y="60" type="line" smooth="yes"/>
      <point x="154" y="60"/>
      <point x="140" y="74"/>
      <point x="140" y="91" type="curve" smooth="yes"/>
      <point x="140" y="700" type="line"/>
      <point x="80" y="700" type="line"/>
      <point x="80" y="92" type="line" smooth="yes"/>
      <point x="80" y="39"/>
      <point x="119" y="0"/>
      <point x="172" y="0" type="curve" smooth="yes"/>
      <point x="678" y="0" type="line" smooth="yes"/>
      <point x="731" y="0"/>
      <point x="770" y="39"/>
      <point x="770" y="92" type="curve" smooth="yes"/>
      <point x="770" y="700" type="line"/>
      <point x="710" y="700" type="line"/>
      <point x="710" y="91" type="line" smooth="yes"/>
      <point x="710" y="74"/>
      <point x="696" y="60"/>
      <point x="679" y="60" type="curve" smooth="yes"/>
    </contour>
  </outline>
</glyph>
<glyph name="Hardsign-cy" format="1">
  <advance width="778"/>
  <unicode hex="042A"/>
  <outline>
    <contour>
      <point x="520" y="0" type="line"/>
      <point x="630" y="6"/>
      <point x="718" y="97"/>
      <point x="718" y="209" type="curve" smooth="yes"/>
      <point x="718" y="325"/>
      <point x="625" y="418"/>
      <point x="509" y="418" type="curve" smooth="yes"/>
      <point x="245" y="418" type="line"/>
      <point x="245" y="358" type="line"/>
      <point x="509" y="358" type="line" smooth="yes"/>
      <point x="592" y="358"/>
      <point x="658" y="292"/>
      <point x="658" y="209" type="curve" smooth="yes"/>
      <point x="658" y="126"/>
      <point x="591" y="60"/>
      <point x="508" y="60" type="curve" smooth="yes"/>
      <point x="260" y="60" type="line"/>
      <point x="260" y="641" type="line" smooth="yes"/>
      <point x="260" y="680"/>
      <point x="239" y="701"/>
      <point x="200" y="701" type="curve" smooth="yes"/>
      <point x="20" y="701" type="line"/>
      <point x="20" y="641" type="line"/>
      <point x="227" y="641" type="line"/>
      <point x="200" y="668" type="line"/>
      <point x="200" y="60" type="line" smooth="yes"/>
      <point x="200" y="21"/>
      <point x="221" y="0"/>
      <point x="260" y="0" type="curve" smooth="yes"/>
    </contour>
  </outline>
</glyph>
<glyph name="Yeru-cy" format="1">
  <advance width="835"/>
  <unicode hex="042B"/>
  <outline>
    <contour>
      <point x="420" y="0" type="line"/>
      <point x="530" y="6"/>
      <point x="618" y="97"/>
      <point x="618" y="209" type="curve" smooth="yes"/>
      <point x="618" y="325"/>
      <point x="525" y="418"/>
      <point x="409" y="418" type="curve" smooth="yes"/>
      <point x="125" y="418" type="line"/>
      <point x="125" y="358" type="line"/>
      <point x="409" y="358" type="line" smooth="yes"/>
      <point x="492" y="358"/>
      <point x="558" y="292"/>
      <point x="558" y="209" type="curve" smooth="yes"/>
      <point x="558" y="126"/>
      <point x="491" y="60"/>
      <point x="408" y="60" type="curve" smooth="yes"/>
      <point x="140" y="60" type="line"/>
      <point x="140" y="700" type="line"/>
      <point x="80" y="700" type="line"/>
      <point x="80" y="60" type="line" smooth="yes"/>
      <point x="80" y="21"/>
      <point x="101" y="0"/>
      <point x="140" y="0" type="curve" smooth="yes"/>
    </contour>
    <contour>
      <point x="755" y="0" type="line"/>
      <point x="755" y="700" type="line"/>
      <point x="695" y="700" type="line"/>
      <point x="695" y="0" type="line"/>
    </contour>
    <contour>
      <point x="428" y="-167" type="move" name="below"/>
    </contour>
    <contour>
      <point x="428" y="869" type="move" name="accent"/>
    </contour>
    <contour>
      <point x="428" y="1079" type="move" name="above"/>
    </contour>
    <contour>
      <point x="433" y="8" type="move" name="bottom"/>
    </contour>
  </outline>
</glyph>
<glyph name="Softsign-cy" format="2">
	<advance width="778"/>
	<unicode hex="042C"/>
	<outline>
		<contour>
			<point x="140" y="0" type="curve" smooth="yes"/>
			<point x="508" y="0" type="line" smooth="yes"/>
			<point x="624" y="0"/>
			<point x="718" y="93"/>
			<point x="718" y="209" type="curve" smooth="yes"/>
			<point x="718" y="325"/>
			<point x="625" y="418"/>
			<point x="509" y="418" type="curve" smooth="yes"/>
			<point x="125" y="418" type="line"/>
			<point x="125" y="358" type="line"/>
			<point x="509" y="358" type="line" smooth="yes"/>
			<point x="592" y="358"/>
			<point x="658" y="292"/>
			<point x="658" y="209" type="curve" smooth="yes"/>
			<point x="658" y="126"/>
			<point x="591" y="60"/>
			<point x="508" y="60" type="curve" smooth="yes"/>
			<point x="113" y="60" type="line"/>
			<point x="140" y="33" type="line"/>
			<point x="140" y="700" type="line"/>
			<point x="80" y="700" type="line"/>
			<point x="80" y="60" type="line" smooth="yes"/>
			<point x="80" y="21"/>
			<point x="101" y="0"/>
		</contour>
	</outline>
</glyph>
<glyph name="Iu-cy" format="1">
  <advance width="1029"/>
  <unicode hex="042E"/>
  <outline>
    <contour>
      <point x="784" y="-25"/>
      <point x="929" y="123"/>
      <point x="929" y="350" type="curve" smooth="yes"/>
      <point x="929" y="577"/>
      <point x="784" y="725"/>
      <point x="604" y="725" type="curve" smooth="yes"/>
      <point x="425" y="725"/>
      <point x="280" y="577"/>
      <point x="280" y="350" type="curve" smooth="yes"/>
      <point x="280" y="123"/>
      <point x="425" y="-25"/>
      <point x="604" y="-25" type="curve" smooth="yes"/>
    </contour>
    <contour>
      <point x="160" y="0" type="line"/>
      <point x="160" y="700" type="line"/>
      <point x="100" y="700" type="line"/>
      <point x="100" y="0" type="line"/>
    </contour>
    <contour>
      <point x="310" y="320" type="line"/>
      <point x="310" y="380" type="line"/>
      <point x="130" y="380" type="line"/>
      <point x="130" y="320" type="line"/>
    </contour>
    <contour>
      <point x="451" y="35"/>
      <point x="340" y="166"/>
      <point x="340" y="350" type="curve" smooth="yes"/>
      <point x="340" y="534"/>
      <point x="451" y="665"/>
      <point x="604" y="665" type="curve" smooth="yes"/>
      <point x="758" y="665"/>
      <point x="869" y="535"/>
      <point x="869" y="350" type="curve" smooth="yes"/>
      <point x="869" y="165"/>
      <point x="758" y="35"/>
      <point x="604" y="35" type="curve" smooth="yes"/>
    </contour>
  </outline>
</glyph>
<glyph name="be-cy" format="1">
  <advance width="742"/>
  <unicode hex="0431"/>
  <outline>
    <contour>
      <point x="528" y="-9"/>
      <point x="682" y="125"/>
      <point x="682" y="294" type="curve" smooth="yes"/>
      <point x="682" y="463"/>
      <point x="542" y="605"/>
      <point x="372" y="605" type="curve" smooth="yes"/>
      <point x="244" y="605"/>
      <point x="127" y="526"/>
      <point x="85" y="409" type="curve"/>
      <point x="138" y="382" type="line"/>
      <point x="179" y="491"/>
      <point x="272" y="545"/>
      <point x="372" y="545" type="curve" smooth="yes"/>
      <point x="508" y="545"/>
      <point x="622" y="431"/>
      <point x="622" y="294" type="curve" smooth="yes"/>
      <point x="622" y="166"/>
      <point x="503" y="51"/>
      <point x="373" y="51" type="curve" smooth="yes"/>
      <point x="287" y="51"/>
      <point x="218" y="83"/>
      <point x="157" y="153" type="curve" smooth="yes"/>
      <point x="143" y="169"/>
      <point x="140" y="181"/>
      <point x="140" y="210" type="curve" smooth="yes"/>
      <point x="140" y="610" type="line" smooth="yes"/>
      <point x="140" y="682"/>
      <point x="198" y="740"/>
      <point x="270" y="740" type="curve" smooth="yes"/>
      <point x="524" y="740" type="line"/>
      <point x="524" y="800" type="line"/>
      <point x="270" y="800" type="line" smooth="yes"/>
      <point x="165" y="800"/>
      <point x="80" y="715"/>
      <point x="80" y="610" type="curve" smooth="yes"/>
      <point x="80" y="210" type="line" smooth="yes"/>
      <point x="80" y="173"/>
      <point x="86" y="144"/>
      <point x="112" y="114" type="curve" smooth="yes"/>
      <point x="179" y="37"/>
      <point x="263" y="-9"/>
      <point x="373" y="-9" type="curve" smooth="yes"/>
    </contour>
  </outline>
</glyph>
<glyph name="ve-cy" format="2">
	<advance width="726"/>
	<unicode hex="0432"/>
	<outline>
		<contour>
			<point x="140" y="0" type="curve" smooth="yes"/>
			<point x="479" y="0" type="line" smooth="yes"/>
			<point x="571" y="0"/>
			<point x="646" y="75"/>
			<point x="646" y="169" type="curve" smooth="yes"/>
			<point x="646" y="232"/>
			<point x="610" y="287"/>
			<point x="559" y="315" type="curve"/>
			<point x="559" y="296" type="line"/>
			<point x="608" y="325"/>
			<point x="642" y="378"/>
			<point x="642" y="439" type="curve" smooth="yes"/>
			<point x="642" y="529"/>
			<point x="569" y="602"/>
			<point x="479" y="602" type="curve" smooth="yes"/>
			<point x="140" y="602" type="line" smooth="yes"/>
			<point x="105" y="602"/>
			<point x="80" y="576"/>
			<point x="80" y="541" type="curve" smooth="yes"/>
			<point x="80" y="61" type="line" smooth="yes"/>
			<point x="80" y="26"/>
			<point x="106" y="0"/>
		</contour>
		<contour>
			<point x="140" y="33" type="line"/>
			<point x="140" y="569" type="line"/>
			<point x="113" y="542" type="line"/>
			<point x="479" y="542" type="line" smooth="yes"/>
			<point x="536" y="542"/>
			<point x="582" y="496"/>
			<point x="582" y="439" type="curve" smooth="yes"/>
			<point x="582" y="382"/>
			<point x="536" y="336"/>
			<point x="479" y="336" type="curve" smooth="yes"/>
			<point x="125" y="336" type="line"/>
			<point x="125" y="276" type="line"/>
			<point x="479" y="276" type="line" smooth="yes"/>
			<point x="538" y="276"/>
			<point x="586" y="228"/>
			<point x="586" y="169" type="curve" smooth="yes"/>
			<point x="586" y="108"/>
			<point x="538" y="60"/>
			<point x="479" y="60" type="curve" smooth="yes"/>
			<point x="113" y="60" type="line"/>
		</contour>
	</outline>
</glyph>
<glyph name="de-cy" format="2">
	<advance width="747"/>
	<unicode hex="0434"/>
	<outline>
		<contour>
			<point x="115" y="0" type="line"/>
			<point x="203" y="87"/>
			<point x="243" y="181"/>
			<point x="242" y="305" type="curve" smooth="yes"/>
			<point x="240" y="509" type="line" smooth="yes"/>
			<point x="240" y="526"/>
			<point x="254" y="540"/>
			<point x="271" y="540" type="curve" smooth="yes"/>
			<point x="534" y="540" type="line" smooth="yes"/>
			<point x="551" y="540"/>
			<point x="565" y="526"/>
			<point x="565" y="509" type="curve" smooth="yes"/>
			<point x="567" y="0" type="line"/>
			<point x="627" y="0" type="line"/>
			<point x="625" y="508" type="line" smooth="yes"/>
			<point x="625" y="561"/>
			<point x="586" y="600"/>
			<point x="533" y="600" type="curve" smooth="yes"/>
			<point x="272" y="600" type="line" smooth="yes"/>
			<point x="219" y="600"/>
			<point x="179" y="561"/>
			<point x="180" y="508" type="curve" smooth="yes"/>
			<point x="182" y="305" type="line" smooth="yes"/>
			<point x="183" y="196"/>
			<point x="150" y="119"/>
			<point x="73" y="42" type="curve"/>
		</contour>
		<contour>
			<point x="60" y="-100" type="line"/>
			<point x="120" y="-100" type="line"/>
			<point x="120" y="60" type="line"/>
			<point x="81" y="60"/>
			<point x="60" y="39"/>
			<point x="60" y="0" type="curve" smooth="yes"/>
		</contour>
		<contour>
			<point x="115" y="0" type="line"/>
			<point x="597" y="0" type="line"/>
			<point x="597" y="60" type="line"/>
			<point x="115" y="60" type="line"/>
		</contour>
		<contour>
			<point x="627" y="-100" type="line"/>
			<point x="687" y="-100" type="line"/>
			<point x="687" y="0" type="line" smooth="yes"/>
			<point x="687" y="39"/>
			<point x="666" y="60"/>
			<point x="627" y="60" type="curve"/>
		</contour>
	</outline>
</glyph>
<glyph name="zhe-cy" format="1">
  <advance width="940"/>
  <unicode hex="0436"/>
  <outline>
    <contour>
      <point x="594" y="308"/>
      <point x="597" y="316"/>
      <point x="602" y="321" type="curve"/>
      <point x="860" y="600" type="line"/>
      <point x="778" y="600" type="line"/>
      <point x="558" y="362" type="line" smooth="yes"/>
      <point x="542" y="345"/>
      <point x="534" y="323"/>
      <point x="534" y="300" type="curve" smooth="yes"/>
      <point x="534" y="277"/>
      <point x="542" y="255"/>
      <point x="558" y="238" type="curve" smooth="yes"/>
      <point x="778" y="-1" type="line"/>
      <point x="860" y="-1" type="line"/>
      <point x="602" y="279" type="line"/>
      <point x="597" y="284"/>
      <point x="594" y="292"/>
      <point x="594" y="300" type="curve" smooth="yes"/>
    </contour>
    <contour>
      <point x="500" y="0" type="line"/>
      <point x="500" y="600" type="line"/>
      <point x="440" y="600" type="line"/>
      <point x="440" y="0" type="line"/>
    </contour>
    <contour>
      <point x="346" y="292"/>
      <point x="343" y="284"/>
      <point x="338" y="279" type="curve"/>
      <point x="80" y="-1" type="line"/>
      <point x="162" y="-1" type="line"/>
      <point x="382" y="238" type="line" smooth="yes"/>
      <point x="398" y="255"/>
      <point x="406" y="277"/>
      <point x="406" y="300" type="curve" smooth="yes"/>
      <point x="406" y="323"/>
      <point x="398" y="345"/>
      <point x="382" y="362" type="curve" smooth="yes"/>
      <point x="162" y="600" type="line"/>
      <point x="80" y="600" type="line"/>
      <point x="338" y="321" type="line"/>
      <point x="343" y="316"/>
      <point x="346" y="308"/>
      <point x="346" y="300" type="curve" smooth="yes"/>
    </contour>
    <contour>
      <point x="593" y="270" type="line"/>
      <point x="593" y="330" type="line"/>
      <point x="347" y="330" type="line"/>
      <point x="347" y="270" type="line"/>
    </contour>
    <contour>
      <point x="468" y="759" type="move" name="accent"/>
    </contour>
  </outline>
</glyph>
<glyph name="ze-cy" format="2">
	<advance width="696"/>
	<unicode hex="0437"/>
	<guideline x="311" y="661" angle="90"/>
	<anchor x="311" y="-167" name="below"/>
	<anchor x="311" y="759" name="accent"/>
	<anchor x="311" y="969" name="above"/>
	<anchor x="310" y="8" name="bottom"/>
	<outline>
		<contour>
			<point x="449" y="276" type="line"/>
			<point x="539" y="276"/>
			<point x="612" y="349"/>
			<point x="612" y="439" type="curve" smooth="yes"/>
			<point x="612" y="529"/>
			<point x="539" y="602"/>
			<point x="449" y="602" type="curve" smooth="yes"/>
			<point x="80" y="602" type="line"/>
			<point x="80" y="542" type="line"/>
			<point x="449" y="542" type="line" smooth="yes"/>
			<point x="506" y="542"/>
			<point x="552" y="496"/>
			<point x="552" y="439" type="curve" smooth="yes"/>
			<point x="552" y="382"/>
			<point x="506" y="336"/>
			<point x="449" y="336" type="curve"/>
		</contour>
		<contour>
			<point x="80" y="0" type="line"/>
			<point x="449" y="0" type="line" smooth="yes"/>
			<point x="541" y="0"/>
			<point x="616" y="75"/>
			<point x="616" y="169" type="curve" smooth="yes"/>
			<point x="616" y="261"/>
			<point x="541" y="336"/>
			<point x="449" y="336" type="curve" smooth="yes"/>
			<point x="80" y="336" type="line"/>
			<point x="80" y="276" type="line"/>
			<point x="449" y="276" type="line" smooth="yes"/>
			<point x="508" y="276"/>
			<point x="556" y="228"/>
			<point x="556" y="169" type="curve" smooth="yes"/>
			<point x="556" y="108"/>
			<point x="508" y="60"/>
			<point x="449" y="60" type="curve" smooth="yes"/>
			<point x="80" y="60" type="line"/>
		</contour>
	</outline>
</glyph>
<glyph name="ii-cy" format="1">
  <advance width="768"/>
  <unicode hex="0438"/>
  <outline>
    <contour>
      <point x="188" y="-17"/>
      <point x="214" y="-5"/>
      <point x="232" y="21" type="curve" smooth="yes"/>
      <point x="586" y="545" type="line"/>
      <point x="592" y="553"/>
      <point x="599" y="557"/>
      <point x="607" y="557" type="curve" smooth="yes"/>
      <point x="618" y="557"/>
      <point x="628" y="549"/>
      <point x="628" y="533" type="curve" smooth="yes"/>
      <point x="628" y="0" type="line"/>
      <point x="688" y="0" type="line"/>
      <point x="688" y="533" type="line" smooth="yes"/>
      <point x="688" y="585"/>
      <point x="648" y="617"/>
      <point x="606" y="617" type="curve" smooth="yes"/>
      <point x="580" y="617"/>
      <point x="554" y="605"/>
      <point x="536" y="579" type="curve" smooth="yes"/>
      <point x="182" y="55" type="line"/>
      <point x="177" y="47"/>
      <point x="169" y="43"/>
      <point x="162" y="43" type="curve" smooth="yes"/>
      <point x="150" y="43"/>
      <point x="140" y="52"/>
      <point x="140" y="68" type="curve" smooth="yes"/>
      <point x="140" y="601" type="line"/>
      <point x="80" y="601" type="line"/>
      <point x="80" y="68" type="line" smooth="yes"/>
      <point x="80" y="16"/>
      <point x="121" y="-17"/>
      <point x="163" y="-17" type="curve" smooth="yes"/>
    </contour>
    <contour>
      <point x="384" y="759" type="move" name="accent"/>
    </contour>
  </outline>
</glyph>
<glyph name="ka-cy" format="1">
  <advance width="715"/>
  <unicode hex="043A"/>
  <outline>
    <contour>
      <point x="635" y="0" type="line"/>
      <point x="262" y="278" type="line" smooth="yes"/>
      <point x="254" y="284"/>
      <point x="250" y="292"/>
      <point x="250" y="301" type="curve" smooth="yes"/>
      <point x="250" y="310"/>
      <point x="254" y="318"/>
      <point x="262" y="324" type="curve" smooth="yes"/>
      <point x="632" y="600" type="line"/>
      <point x="532" y="600" type="line"/>
      <point x="226" y="372" type="line" smooth="yes"/>
      <point x="204" y="355"/>
      <point x="190" y="329"/>
      <point x="190" y="301" type="curve" smooth="yes"/>
      <point x="190" y="273"/>
      <point x="204" y="246"/>
      <point x="226" y="230" type="curve" smooth="yes"/>
      <point x="535" y="0" type="line"/>
    </contour>
    <contour>
      <point x="140" y="0" type="line"/>
      <point x="140" y="600" type="line"/>
      <point x="80" y="600" type="line"/>
      <point x="80" y="0" type="line"/>
    </contour>
    <contour>
      <point x="330" y="969" type="move" name="above"/>
    </contour>
    <contour>
      <point x="330" y="-167" type="move" name="below"/>
    </contour>
    <contour>
      <point x="330" y="759" type="move" name="accent"/>
    </contour>
  </outline>
</glyph>
<glyph name="el-cy" format="1">
  <advance width="656"/>
  <unicode hex="043B"/>
  <outline>
    <contour>
      <point x="576" y="0" type="line"/>
      <point x="576" y="508" type="line" smooth="yes"/>
      <point x="576" y="561"/>
      <point x="537" y="600"/>
      <point x="484" y="600" type="curve" smooth="yes"/>
      <point x="223" y="600" type="line" smooth="yes"/>
      <point x="170" y="600"/>
      <point x="131" y="561"/>
      <point x="131" y="508" type="curve" smooth="yes"/>
      <point x="131" y="165" type="line"/>
      <point x="191" y="165" type="line"/>
      <point x="191" y="509" type="line" smooth="yes"/>
      <point x="191" y="526"/>
      <point x="205" y="540"/>
      <point x="222" y="540" type="curve" smooth="yes"/>
      <point x="485" y="540" type="line" smooth="yes"/>
      <point x="502" y="540"/>
      <point x="516" y="526"/>
      <point x="516" y="509" type="curve" smooth="yes"/>
      <point x="516" y="0" type="line"/>
    </contour>
    <contour>
      <point x="26" y="0" type="line" smooth="yes"/>
      <point x="133" y="0"/>
      <point x="191" y="58"/>
      <point x="191" y="165" type="curve"/>
      <point x="131" y="165" type="line"/>
      <point x="131" y="91"/>
      <point x="100" y="60"/>
      <point x="26" y="60" type="curve" smooth="yes"/>
      <point x="20" y="60" type="line"/>
      <point x="20" y="0" type="line"/>
    </contour>
  </outline>
</glyph>
<glyph name="en-cy" format="1">
  <advance width="665"/>
  <unicode hex="043D"/>
  <outline>
    <contour>
      <point x="525" y="600" type="line"/>
      <point x="525" y="0" type="line"/>
      <point x="585" y="0" type="line"/>
      <point x="585" y="600" type="line"/>
    </contour>
    <contour>
      <point x="80" y="600" type="line"/>
      <point x="80" y="0" type="line"/>
      <point x="140" y="0" type="line"/>
      <point x="140" y="600" type="line"/>
    </contour>
    <contour>
      <point x="110" y="330" type="line"/>
      <point x="110" y="270" type="line"/>
      <point x="558" y="270" type="line"/>
      <point x="558" y="330" type="line"/>
    </contour>
  </outline>
</glyph>
<glyph name="o-cy" format="1">
  <advance width="741"/>
  <unicode hex="043E"/>
  <outline>
    <component base="o"/>
    <contour>
      <point x="370" y="-167" type="move" name="below"/>
    </contour>
    <contour>
      <point x="371" y="759" type="move" name="accent"/>
    </contour>
    <contour>
      <point x="370" y="969" type="move" name="above"/>
    </contour>
    <contour>
      <point x="370" y="301" type="move" name="slash"/>
    </contour>
  </outline>
</glyph>
<glyph name="pe-cy" format="2">
	<advance width="645"/>
	<unicode hex="043F"/>
	<outline>
		<contour>
			<point x="473" y="600" type="curve" smooth="yes"/>
			<point x="172" y="600" type="line" smooth="yes"/>
			<point x="119" y="600"/>
			<point x="80" y="561"/>
			<point x="80" y="508" type="curve" smooth="yes"/>
			<point x="80" y="0" type="line"/>
			<point x="140" y="0" type="line"/>
			<point x="140" y="509" type="line" smooth="yes"/>
			<point x="140" y="526"/>
			<point x="154" y="540"/>
			<point x="171" y="540" type="curve" smooth="yes"/>
			<point x="474" y="540" type="line" smooth="yes"/>
			<point x="491" y="540"/>
			<point x="505" y="526"/>
			<point x="505" y="509" type="curve" smooth="yes"/>
			<point x="505" y="0" type="line"/>
			<point x="565" y="0" type="line"/>
			<point x="565" y="508" type="line" smooth="yes"/>
			<point x="565" y="561"/>
			<point x="526" y="600"/>
		</contour>
	</outline>
</glyph>
<glyph name="te-cy" format="2">
	<advance width="700"/>
	<unicode hex="0442"/>
	<outline>
		<contour>
			<point x="320" y="0" type="line"/>
			<point x="380" y="0" type="line"/>
			<point x="380" y="570" type="line"/>
			<point x="320" y="570" type="line"/>
		</contour>
		<contour>
			<point x="80" y="540" type="line"/>
			<point x="620" y="540" type="line"/>
			<point x="620" y="600" type="line"/>
			<point x="80" y="600" type="line"/>
		</contour>
	</outline>
</glyph>
<glyph name="ef-cy" format="1">
  <advance width="733"/>
  <unicode hex="0444"/>
  <outline>
    <contour>
      <point x="472" y="100" type="line" smooth="yes"/>
      <point x="583" y="100"/>
      <point x="673" y="189"/>
      <point x="673" y="300" type="curve" smooth="yes"/>
      <point x="673" y="411"/>
      <point x="583" y="500"/>
      <point x="472" y="500" type="curve" smooth="yes"/>
      <point x="261" y="500" type="line" smooth="yes"/>
      <point x="150" y="500"/>
      <point x="60" y="411"/>
      <point x="60" y="300" type="curve" smooth="yes"/>
      <point x="60" y="189"/>
      <point x="150" y="100"/>
      <point x="261" y="100" type="curve" smooth="yes"/>
    </contour>
    <contour>
      <point x="183" y="160"/>
      <point x="120" y="222"/>
      <point x="120" y="300" type="curve" smooth="yes"/>
      <point x="120" y="378"/>
      <point x="183" y="440"/>
      <point x="261" y="440" type="curve" smooth="yes"/>
      <point x="472" y="440" type="line" smooth="yes"/>
      <point x="550" y="440"/>
      <point x="613" y="378"/>
      <point x="613" y="300" type="curve" smooth="yes"/>
      <point x="613" y="222"/>
      <point x="550" y="160"/>
      <point x="472" y="160" type="curve" smooth="yes"/>
      <point x="261" y="160" type="line" smooth="yes"/>
    </contour>
    <contour>
      <point x="397" y="0" type="line"/>
      <point x="397" y="600" type="line"/>
      <point x="337" y="600" type="line"/>
      <point x="337" y="0" type="line"/>
    </contour>
  </outline>
</glyph>
<glyph name="che-cy" format="1">
  <advance width="667"/>
  <unicode hex="0447"/>
  <outline>
    <contour>
      <point x="554" y="249" type="line"/>
      <point x="554" y="309" type="line"/>
      <point x="255" y="309" type="line" smooth="yes"/>
      <point x="191" y="309"/>
      <point x="140" y="361"/>
      <point x="140" y="424" type="curve" smooth="yes"/>
      <point x="140" y="600" type="line"/>
      <point x="80" y="600" type="line"/>
      <point x="80" y="424" type="line" smooth="yes"/>
      <point x="80" y="328"/>
      <point x="158" y="249"/>
      <point x="255" y="249" type="curve" smooth="yes"/>
    </contour>
    <contour>
      <point x="587" y="0" type="line"/>
      <point x="587" y="600" type="line"/>
      <point x="527" y="600" type="line"/>
      <point x="527" y="0" type="line"/>
    </contour>
    <contour>
      <point x="334" y="-167" type="move" name="below"/>
    </contour>
    <contour>
      <point x="334" y="759" type="move" name="accent"/>
    </contour>
    <contour>
      <point x="334" y="969" type="move" name="above"/>
    </contour>
    <contour>
      <point x="554" y="8" type="move" name="bottom"/>
    </contour>
  </outline>
</glyph>
<glyph name="shcha-cy" format="1">
  <advance width="770"/>
  <unicode hex="0449"/>
  <outline>
    <contour>
      <point x="395" y="45" type="line"/>
      <point x="395" y="600" type="line"/>
      <point x="335" y="600" type="line"/>
      <point x="335" y="45" type="line"/>
    </contour>
    <contour>
      <point x="710" y="-100" type="line"/>
      <point x="710" y="0" type="line" smooth="yes"/>
      <point x="710" y="39"/>
      <point x="689" y="60"/>
      <point x="650" y="60" type="curve"/>
      <point x="650" y="-100" type="line"/>
    </contour>
    <contour>
      <point x="650" y="0" type="line"/>
      <point x="650" y="600" type="line"/>
      <point x="590" y="600" type="line"/>
      <point x="590" y="33" type="line"/>
      <point x="617" y="60" type="line"/>
      <point x="171" y="60" type="line" smooth="yes"/>
      <point x="154" y="60"/>
      <point x="140" y="74"/>
      <point x="140" y="91" type="curve" smooth="yes"/>
      <point x="140" y="600" type="line"/>
      <point x="80" y="600" type="line"/>
      <point x="80" y="92" type="line" smooth="yes"/>
      <point x="80" y="39"/>
      <point x="119" y="0"/>
      <point x="172" y="0" type="curve" smooth="yes"/>
    </contour>
  </outline>
</glyph>
<glyph name="hardsign-cy" format="1">
  <advance width="715"/>
  <unicode hex="044A"/>
  <outline>
    <contour>
      <point x="460" y="0" type="line" smooth="yes"/>
      <point x="557" y="0"/>
      <point x="635" y="78"/>
      <point x="635" y="175" type="curve" smooth="yes"/>
      <point x="635" y="271"/>
      <point x="557" y="350"/>
      <point x="460" y="350" type="curve" smooth="yes"/>
      <point x="231" y="350" type="line"/>
      <point x="231" y="290" type="line"/>
      <point x="460" y="290" type="line" smooth="yes"/>
      <point x="524" y="290"/>
      <point x="575" y="238"/>
      <point x="575" y="175" type="curve" smooth="yes"/>
      <point x="575" y="111"/>
      <point x="524" y="60"/>
      <point x="460" y="60" type="curve" smooth="yes"/>
      <point x="233" y="60" type="line"/>
      <point x="260" y="33" type="line"/>
      <point x="260" y="540" type="line" smooth="yes"/>
      <point x="260" y="579"/>
      <point x="239" y="600"/>
      <point x="200" y="600" type="curve" smooth="yes"/>
      <point x="20" y="600" type="line"/>
      <point x="20" y="540" type="line"/>
      <point x="227" y="540" type="line"/>
      <point x="200" y="567" type="line"/>
      <point x="200" y="60" type="line" smooth="yes"/>
      <point x="200" y="21"/>
      <point x="221" y="0"/>
      <point x="260" y="0" type="curve" smooth="yes"/>
    </contour>
  </outline>
</glyph>
<glyph name="yeru-cy" format="1">
  <advance width="695"/>
  <unicode hex="044B"/>
  <outline>
    <contour>
      <point x="340" y="0" type="line" smooth="yes"/>
      <point x="437" y="0"/>
      <point x="515" y="78"/>
      <point x="515" y="175" type="curve" smooth="yes"/>
      <point x="515" y="271"/>
      <point x="437" y="350"/>
      <point x="340" y="350" type="curve" smooth="yes"/>
      <point x="111" y="350" type="line"/>
      <point x="111" y="290" type="line"/>
      <point x="340" y="290" type="line" smooth="yes"/>
      <point x="404" y="290"/>
      <point x="455" y="238"/>
      <point x="455" y="175" type="curve" smooth="yes"/>
      <point x="455" y="111"/>
      <point x="404" y="60"/>
      <point x="340" y="60" type="curve" smooth="yes"/>
      <point x="113" y="60" type="line"/>
      <point x="140" y="33" type="line"/>
      <point x="140" y="600" type="line"/>
      <point x="80" y="600" type="line"/>
      <point x="80" y="60" type="line" smooth="yes"/>
      <point x="80" y="21"/>
      <point x="101" y="0"/>
      <point x="140" y="0" type="curve" smooth="yes"/>
    </contour>
    <contour>
      <point x="615" y="0" type="line"/>
      <point x="615" y="600" type="line"/>
      <point x="555" y="600" type="line"/>
      <point x="555" y="0" type="line"/>
    </contour>
    <contour>
      <point x="351" y="-167" type="move" name="below"/>
    </contour>
    <contour>
      <point x="351" y="759" type="move" name="accent"/>
    </contour>
    <contour>
      <point x="351" y="969" type="move" name="above"/>
    </contour>
    <contour>
      <point x="293" y="8" type="move" name="bottom"/>
    </contour>
  </outline>
</glyph>
<glyph name="iu-cy" format="1">
  <advance width="891"/>
  <unicode hex="044E"/>
  <outline>
    <contour>
      <point x="658" y="551"/>
      <point x="771" y="439"/>
      <point x="771" y="301" type="curve" smooth="yes"/>
      <point x="771" y="163"/>
      <point x="659" y="51"/>
      <point x="520" y="51" type="curve" smooth="yes"/>
      <point x="382" y="51"/>
      <point x="270" y="163"/>
      <point x="270" y="301" type="curve" smooth="yes"/>
      <point x="270" y="439"/>
      <point x="382" y="551"/>
      <point x="520" y="551" type="curve" smooth="yes"/>
    </contour>
    <contour>
      <point x="349" y="611"/>
      <point x="210" y="472"/>
      <point x="210" y="301" type="curve" smooth="yes"/>
      <point x="210" y="130"/>
      <point x="349" y="-9"/>
      <point x="520" y="-9" type="curve" smooth="yes"/>
      <point x="692" y="-9"/>
      <point x="831" y="130"/>
      <point x="831" y="301" type="curve" smooth="yes"/>
      <point x="831" y="472"/>
      <point x="691" y="611"/>
      <point x="520" y="611" type="curve" smooth="yes"/>
    </contour>
    <contour>
      <point x="140" y="0" type="line"/>
      <point x="140" y="600" type="line"/>
      <point x="80" y="600" type="line"/>
      <point x="80" y="0" type="line"/>
    </contour>
    <contour>
      <point x="240" y="271" type="line"/>
      <point x="240" y="331" type="line"/>
      <point x="110" y="331" type="line"/>
      <point x="110" y="271" type="line"/>
    </contour>
  </outline>
</glyph>
<glyph name="ia-cy" format="2">
	<advance width="748"/>
	<unicode hex="044F"/>
	<outline>
		<contour>
			<point x="87" y="0" type="line"/>
			<point x="187" y="0" type="line"/>
			<point x="484" y="224" type="line" smooth="yes"/>
			<point x="499" y="235"/>
			<point x="505" y="250"/>
			<point x="505" y="264" type="curve" smooth="yes"/>
			<point x="505" y="288"/>
			<point x="487" y="310"/>
			<point x="456" y="310" type="curve" smooth="yes"/>
			<point x="255" y="310" type="line" smooth="yes"/>
			<point x="191" y="310"/>
			<point x="140" y="362"/>
			<point x="140" y="425" type="curve" smooth="yes"/>
			<point x="140" y="489"/>
			<point x="191" y="540"/>
			<point x="255" y="540" type="curve" smooth="yes"/>
			<point x="635" y="540" type="line"/>
			<point x="608" y="567" type="line"/>
			<point x="608" y="0" type="line"/>
			<point x="668" y="0" type="line"/>
			<point x="668" y="540" type="line" smooth="yes"/>
			<point x="668" y="579"/>
			<point x="647" y="600"/>
			<point x="608" y="600" type="curve" smooth="yes"/>
			<point x="255" y="600" type="line" smooth="yes"/>
			<point x="158" y="600"/>
			<point x="80" y="522"/>
			<point x="80" y="425" type="curve" smooth="yes"/>
			<point x="80" y="329"/>
			<point x="158" y="250"/>
			<point x="255" y="250" type="curve" smooth="yes"/>
			<point x="445" y="250" type="line"/>
			<point x="440" y="266" type="line"/>
		</contour>
	</outline>
</glyph>
<glyph name="dje-cy" format="1">
  <advance width="734"/>
  <unicode hex="0452"/>
  <outline>
    <contour>
      <point x="594" y="-21" type="line"/>
      <point x="594" y="-103"/>
      <point x="527" y="-168"/>
      <point x="444" y="-170" type="curve"/>
      <point x="444" y="-230" type="line"/>
      <point x="560" y="-230"/>
      <point x="653" y="-137"/>
      <point x="654" y="-21" type="curve"/>
    </contour>
    <contour>
      <point x="654" y="-21" type="line"/>
      <point x="654" y="301" type="line" smooth="yes"/>
      <point x="654" y="470"/>
      <point x="514" y="611"/>
      <point x="344" y="611" type="curve" smooth="yes"/>
      <point x="240" y="611"/>
      <point x="149" y="559"/>
      <point x="92" y="480" type="curve"/>
      <point x="135" y="440" type="line"/>
      <point x="185" y="511"/>
      <point x="263" y="551"/>
      <point x="344" y="551" type="curve" smooth="yes"/>
      <point x="481" y="551"/>
      <point x="594" y="438"/>
      <point x="594" y="301" type="curve" smooth="yes"/>
      <point x="594" y="-21" type="line"/>
    </contour>
    <contour>
      <point x="140" y="1" type="line"/>
      <point x="140" y="800" type="line"/>
      <point x="80" y="800" type="line"/>
      <point x="80" y="1" type="line"/>
    </contour>
    <contour>
      <point x="110" y="681" type="move" name="bar"/>
    </contour>
  </outline>
</glyph>
<glyph name="lje-cy" format="2">
	<advance width="911"/>
	<unicode hex="0459"/>
	<outline>
		<contour>
			<point x="506" y="0" type="curve" smooth="yes"/>
			<point x="676" y="0" type="line" smooth="yes"/>
			<point x="773" y="0"/>
			<point x="851" y="78"/>
			<point x="851" y="175" type="curve" smooth="yes"/>
			<point x="851" y="271"/>
			<point x="773" y="350"/>
			<point x="676" y="350" type="curve" smooth="yes"/>
			<point x="477" y="350" type="line"/>
			<point x="477" y="290" type="line"/>
			<point x="676" y="290" type="line" smooth="yes"/>
			<point x="740" y="290"/>
			<point x="791" y="238"/>
			<point x="791" y="175" type="curve" smooth="yes"/>
			<point x="791" y="111"/>
			<point x="740" y="60"/>
			<point x="676" y="60" type="curve" smooth="yes"/>
			<point x="479" y="60" type="line"/>
			<point x="506" y="33" type="line"/>
			<point x="506" y="408" type="line"/>
			<point x="446" y="408" type="line"/>
			<point x="446" y="60" type="line" smooth="yes"/>
			<point x="446" y="21"/>
			<point x="467" y="0"/>
		</contour>
		<contour>
			<point x="40" y="0" type="line"/>
			<point x="46" y="0" type="line" smooth="yes"/>
			<point x="153" y="0"/>
			<point x="211" y="58"/>
			<point x="211" y="165" type="curve"/>
			<point x="151" y="165" type="line"/>
			<point x="151" y="91"/>
			<point x="120" y="60"/>
			<point x="46" y="60" type="curve" smooth="yes"/>
			<point x="40" y="60" type="line"/>
		</contour>
		<contour>
			<point x="151" y="165" type="line"/>
			<point x="211" y="165" type="line"/>
			<point x="211" y="509" type="line" smooth="yes"/>
			<point x="211" y="526"/>
			<point x="225" y="540"/>
			<point x="242" y="540" type="curve" smooth="yes"/>
			<point x="415" y="540" type="line" smooth="yes"/>
			<point x="432" y="540"/>
			<point x="446" y="526"/>
			<point x="446" y="509" type="curve" smooth="yes"/>
			<point x="446" y="408" type="line"/>
			<point x="506" y="408" type="line"/>
			<point x="506" y="508" type="line" smooth="yes"/>
			<point x="506" y="561"/>
			<point x="467" y="600"/>
			<point x="414" y="600" type="curve" smooth="yes"/>
			<point x="243" y="600" type="line" smooth="yes"/>
			<point x="190" y="600"/>
			<point x="151" y="561"/>
			<point x="151" y="508" type="curve" smooth="yes"/>
		</contour>
	</outline>
</glyph>
<glyph name="nje-cy" format="1">
  <advance width="890"/>
  <unicode hex="045A"/>
  <outline>
    <contour>
      <point x="80" y="600" type="line"/>
      <point x="80" y="0" type="line"/>
      <point x="140" y="0" type="line"/>
      <point x="140" y="600" type="line"/>
    </contour>
    <contour>
      <point x="110" y="330" type="line"/>
      <point x="110" y="270" type="line"/>
      <point x="458" y="270" type="line"/>
      <point x="458" y="330" type="line"/>
    </contour>
    <contour>
      <point x="655" y="0" type="line" smooth="yes"/>
      <point x="752" y="0"/>
      <point x="830" y="78"/>
      <point x="830" y="175" type="curve" smooth="yes"/>
      <point x="830" y="271"/>
      <point x="752" y="350"/>
      <point x="655" y="350" type="curve" smooth="yes"/>
      <point x="456" y="350" type="line"/>
      <point x="456" y="290" type="line"/>
      <point x="655" y="290" type="line" smooth="yes"/>
      <point x="719" y="290"/>
      <point x="770" y="238"/>
      <point x="770" y="175" type="curve" smooth="yes"/>
      <point x="770" y="111"/>
      <point x="719" y="60"/>
      <point x="655" y="60" type="curve" smooth="yes"/>
      <point x="458" y="60" type="line"/>
      <point x="485" y="33" type="line"/>
      <point x="485" y="600" type="line"/>
      <point x="425" y="600" type="line"/>
      <point x="425" y="60" type="line" smooth="yes"/>
      <point x="425" y="21"/>
      <point x="446" y="0"/>
      <point x="485" y="0" type="curve" smooth="yes"/>
    </contour>
  </outline>
</glyph>
<glyph name="Fita-cy" format="2">
	<advance width="863"/>
	<unicode hex="0472"/>
	<outline>
		<contour>
			<point x="607" y="255" type="curve" smooth="yes"/>
			<point x="680" y="255"/>
			<point x="744" y="293"/>
			<point x="799" y="358" type="curve"/>
			<point x="753" y="396" type="line"/>
			<point x="707" y="342"/>
			<point x="664" y="316"/>
			<point x="598" y="316" type="curve" smooth="yes"/>
			<point x="553" y="316"/>
			<point x="494" y="345"/>
			<point x="450" y="366" type="curve" smooth="yes"/>
			<point x="397" y="392"/>
			<point x="334" y="422"/>
			<point x="270" y="422" type="curve" smooth="yes"/>
			<point x="196" y="422"/>
			<point x="128" y="386"/>
			<point x="74" y="320" type="curve"/>
			<point x="120" y="282" type="line"/>
			<point x="164" y="335"/>
			<point x="214" y="362"/>
			<point x="270" y="362" type="curve" smooth="yes"/>
			<point x="320" y="362"/>
			<point x="371" y="338"/>
			<point x="424" y="312" type="curve" smooth="yes"/>
			<point x="478" y="287"/>
			<point x="542" y="255"/>
		</contour>
		<component base="O-cy"/>
	</outline>
</glyph>
<glyph name="fita-cy" format="2">
	<advance width="741"/>
	<unicode hex="0473"/>
	<outline>
		<contour>
			<point x="627" y="350" type="line"/>
			<point x="590" y="307"/>
			<point x="555" y="286"/>
			<point x="521" y="286" type="curve" smooth="yes"/>
			<point x="462" y="286"/>
			<point x="445" y="297"/>
			<point x="384" y="326" type="curve" smooth="yes"/>
			<point x="340" y="347"/>
			<point x="285" y="373"/>
			<point x="233" y="373" type="curve" smooth="yes"/>
			<point x="170" y="373"/>
			<point x="113" y="343"/>
			<point x="68" y="287" type="curve"/>
			<point x="114" y="249" type="line"/>
			<point x="149" y="291"/>
			<point x="190" y="313"/>
			<point x="234" y="313" type="curve" smooth="yes"/>
			<point x="275" y="313"/>
			<point x="315" y="293"/>
			<point x="358" y="272" type="curve" smooth="yes"/>
			<point x="422" y="241"/>
			<point x="448" y="226"/>
			<point x="521" y="226" type="curve" smooth="yes"/>
			<point x="573" y="226"/>
			<point x="626" y="256"/>
			<point x="673" y="310" type="curve"/>
		</contour>
		<component base="o-cy"/>
	</outline>
</glyph>
